<?xml version="1.0" encoding="UTF-8"?>
<!DOCTYPE svg PUBLIC "-//W3C//DTD SVG 1.1//EN" "http://www.w3.org/Graphics/SVG/1.1/DTD/svg11.dtd">
<!-- Creator: CorelDRAW 2021 (64 Bit) -->
<svg xmlns="http://www.w3.org/2000/svg" xml:space="preserve" width="814.637mm" height="186.114mm" version="1.1" style="shape-rendering:geometricPrecision; text-rendering:geometricPrecision; image-rendering:optimizeQuality; fill-rule:evenodd; clip-rule:evenodd"
viewBox="0 0 24530.02 5604.2"
 xmlns:xlink="http://www.w3.org/1999/xlink"
 xmlns:xodm="http://www.corel.com/coreldraw/odm/2003">
 <defs>
  <style type="text/css">
   <![CDATA[
    .str1 {stroke:white;stroke-width:25.5;stroke-miterlimit:22.9256}
    .str2 {stroke:white;stroke-width:20.39;stroke-miterlimit:22.9256}
    .str0 {stroke:white;stroke-width:5.1;stroke-miterlimit:22.9256}
    .fil1 {fill:white}
    .fil0 {fill:white;fill-rule:nonzero}
   ]]>
  </style>
 </defs>
 <g id="Camada_x0020_1">
  <metadata id="CorelCorpID_0Corel-Layer"/>
  <polygon class="fil0 str0" points="5825.92,3150.68 24527.47,3150.68 24527.47,3105.08 5825.92,3105.08 "/>
  <path class="fil0 str1" d="M7591.6 2587.32c60.67,-1.93 122.64,-12.84 185.24,-33.39 62.6,-20.23 118.78,-50.08 168.22,-89.25 49.76,-39.17 85.39,-87.97 107.23,-146.39l-26.33 -9.31c-19.9,54.58 -53.93,100.16 -101.45,137.4 -47.84,36.92 -101.45,64.85 -160.84,83.47 -59.71,18.94 -117.82,28.9 -174.96,30.18 -113.01,-0.64 -208.68,-33.07 -287.33,-97.92 -78.65,-64.53 -139.01,-146.71 -180.74,-246.88 -41.41,-99.84 -62.28,-200.32 -62.28,-301.45 0,-88.93 15.09,-172.72 45.91,-251.37 30.82,-78.65 71.27,-148 122,-207.39 50.4,-59.71 106.26,-106.26 167.58,-140.29 61.64,-33.71 123.28,-50.73 185.56,-50.73 198.72,0 345.43,101.77 440.14,305.63l27.29 0 0 -139.97c-61.64,-59.07 -132.27,-105.3 -212.21,-138.69 -79.93,-33.71 -165.33,-50.4 -256.18,-50.4 -124.24,0 -237.25,30.18 -339.02,90.86 -102.09,60.35 -183.31,141.58 -243.67,243.35 -60.67,102.09 -90.85,215.09 -90.85,339.01 0,124.88 31.14,238.85 93.1,341.91 61.96,103.37 144.79,184.92 248.48,245.27 100.16,57.47 211.56,86.36 333.88,86.36l11.23 0zm3088.75 0c123.92,0 236.93,-30.18 339.01,-90.86 101.77,-60.35 182.99,-141.58 243.67,-243.35 60.36,-102.09 90.53,-215.09 90.53,-339.33 0,-123.92 -30.17,-236.93 -90.53,-339.01 -60.67,-101.77 -141.9,-182.99 -243.67,-243.35 -102.09,-60.67 -215.09,-90.86 -339.01,-90.86 -124.24,0 -237.25,30.18 -339.02,90.86 -102.09,60.35 -183.31,141.58 -243.66,243.35 -60.67,102.09 -90.86,215.09 -90.86,339.01 0,124.24 30.18,237.25 90.86,339.33 60.35,101.77 141.58,182.99 243.66,243.35 101.77,60.67 214.78,90.86 339.02,90.86zm0 -27.29c-95.99,0 -183.31,-28.9 -261.65,-87 -78.33,-57.78 -140.93,-135.8 -187.48,-233.71 -46.87,-97.91 -70.31,-206.1 -70.31,-325.53 0,-119.11 23.44,-227.61 70.31,-325.21 46.55,-97.92 109.15,-175.93 187.48,-233.71 78.34,-58.11 165.66,-87 261.65,-87 95.35,0 182.35,28.9 261,87 78.66,57.78 141.26,135.8 188.13,233.71 46.55,97.6 69.99,206.1 69.99,325.21 0,119.43 -23.44,227.62 -69.99,325.53 -46.87,97.92 -109.47,175.93 -188.13,233.71 -78.65,58.11 -165.65,87 -261,87zm3732.11 27.29l0 -27.29 -14.13 0c-17.01,0 -31.14,-2.25 -43.02,-6.42 -11.55,-4.5 -24.07,-17.66 -37.88,-39.49l-324.57 -589.75c70.95,-22.79 128.09,-54.9 172.08,-96.63 43.98,-41.41 74.16,-88.28 90.21,-139.65 10.92,-31.14 16.05,-62.92 16.05,-95.03 0,-19.9 -3.85,-47.83 -11.23,-84.11 -7.39,-35.95 -30.18,-76.08 -68.06,-120.39 -38.21,-43.98 -89.57,-79.94 -154.74,-107.23 -65.17,-27.29 -144.14,-40.77 -236.28,-40.77l-463.58 0 0 27.29 35.63 0c20.23,0 35.31,2.57 45.27,8.03 9.95,5.13 15.09,20.87 15.09,46.55l0 1183.02c0,25.68 -5.13,41.41 -15.09,46.55 -9.95,5.46 -25.04,8.03 -45.27,8.03l-35.63 0 0 27.29 346.08 0 0 -27.29 -35.63 0c-20.23,0 -35.31,-2.57 -45.59,-8.03 -10.6,-5.14 -15.73,-22.48 -15.73,-51.05l0 -548.33c151.85,0 234.36,-0.32 247.52,-0.97 32.1,59.4 50.08,92.78 54.57,99.52 85.07,154.42 169.83,308.52 253.94,462.94 5.45,9.95 8.35,18.3 8.35,25.36 0,13.8 -15.73,20.55 -46.87,20.55l-37.56 0 0 27.29 346.08 0zm-617.03 -661.98l-208.99 0 0 -657.49 213.49 0c71.59,0 130.99,16.06 178.5,47.84 47.2,32.1 82.51,72.55 105.63,121.35 23.11,48.8 34.99,100.49 34.99,154.42l0 44.95c0,28.89 -12.2,68.38 -36.28,118.14 -24.07,49.76 -60.35,90.53 -108.19,121.67 -48.15,31.46 -107.87,47.83 -179.14,49.12zm3181.85 661.98l0 -27.29 -34.99 0c-20.55,0 -35.96,-2.57 -45.91,-8.03 -10.27,-5.14 -15.09,-20.87 -15.09,-46.55l0 -1237.6 250.09 0c70.31,2.57 123.92,24.72 160.84,67.1 36.92,42.38 55.54,92.14 55.54,149.28l27.29 0 0 -243.67 -1140 0 0 243.67 27.29 0c0,-37.88 4.49,-72.88 13.16,-105.62 8.67,-32.43 25.36,-58.75 49.76,-78.98 24.4,-19.9 59.71,-30.5 105.3,-31.79l297.28 0 0 1237.6c0,25.68 -4.82,41.41 -15.09,46.55 -9.95,5.46 -25.36,8.03 -45.91,8.03l-34.99 0 0 27.29 345.43 0zm3261.79 0l0 -243.67 -27.29 0c0,57.15 -18.62,106.91 -55.86,149.28 -37.24,42.38 -91.18,64.53 -161.48,67.1l-400.65 0 0 -618 171.43 0c40.77,0 76.73,5.13 108.19,15.09 67.42,22.79 101.45,77.37 101.45,164.69l27.29 0 0 -385.56 -27.29 0c0,48.15 -8.99,85.39 -27.29,111.4 -18.3,26 -43.66,43.98 -76.08,53.93 -28.9,8.99 -62.29,13.16 -99.85,13.16l-177.85 0 0 -646.89 400.65 0c70.3,2.57 124.24,24.72 161.48,67.1 37.24,42.38 55.86,92.14 55.86,149.28l27.29 0 0 -243.67 -894.41 0 0 27.29 34.67 0c20.23,0 35.32,2.57 45.91,8.03 10.27,5.13 15.41,22.15 15.41,51.04l0 1174.03c0,28.57 -5.13,45.91 -15.41,51.05 -10.59,5.46 -25.68,8.03 -45.91,8.03l-34.67 0 0 27.29 894.41 0zm3209.14 0l0 -27.29c-23.76,0 -41.42,-0.97 -52.97,-2.89 -11.56,-1.6 -21.83,-7.06 -30.18,-15.41 -8.35,-8.35 -18.94,-22.48 -31.46,-41.73l-446.88 -669.69 389.42 -503.39c13.8,-17.98 25.04,-31.46 34.03,-39.81 8.67,-8.67 19.26,-13.8 31.78,-16.05 12.52,-2.25 32.1,-3.21 58.43,-3.21l0 -27.29 -219.27 0 0 27.29 39.49 0c32.1,1.29 48.15,6.11 48.15,15.09 0,8.02 -7.06,19.91 -20.87,35.63l-376.89 487.34c-217.02,-324.25 -327.46,-488.62 -331.31,-493.12 -10.59,-13.8 -16.05,-23.44 -16.05,-28.89 0,-3.21 1.92,-6.42 5.46,-9.63 3.21,-2.89 13.16,-5.13 29.53,-6.42l39.49 0 0 -27.29 -346.08 0 0 27.29c23.76,0 41.42,0.97 52.97,2.89 11.56,1.6 21.83,7.06 30.18,15.41 8.35,8.35 18.94,22.15 31.46,40.77 74.8,113.01 149.6,225.37 224.72,337.73l179.78 269.99 -437.26 566.31c-14.45,19.26 -26.32,33.07 -35.96,41.41 -9.31,8.03 -20.22,13.16 -32.74,14.77 -12.52,1.93 -31.46,2.89 -56.5,2.89l0 27.29 219.27 0 0 -27.29 -38.52 0c-32.75,-1.28 -49.12,-5.78 -49.12,-14.13 0,-8.02 7.07,-19.91 20.87,-35.63l426.02 -551.22c229.54,344.15 353.46,529.71 372.4,556.03 10.59,13.81 16.05,23.44 16.05,28.9 0,3.21 -2.25,6.74 -6.74,10.6 -4.17,3.53 -18.62,5.46 -43.34,5.46l-23.44 0 0 27.29 346.08 0z"/>
  <path class="fil0 str2" d="M6277.12 4430.4l0 -18.49 -29.36 0.65c-10,0 -18.71,-1.52 -25.66,-4.78 -7.18,-3.26 -10.66,-15.22 -10.66,-35.89l0 -378.63 116.79 0c27.4,0 51.98,3.48 73.07,10.22 45.45,15.44 68.29,52.42 68.29,111.57l18.49 0 0 -261.2 -18.49 0c0,32.63 -6.09,57.63 -18.49,75.03 -21.31,30.67 -60.67,45.89 -118.53,45.89l-121.14 0 0 -438.23 272.07 0c47.63,1.74 83.95,16.75 108.96,45.45 25.22,28.71 37.62,62.42 37.62,101.13l18.49 0 0 -165.07 -605.91 0 0 18.49 24.14 0c13.7,0 23.92,1.74 30.66,5.44 6.74,3.48 10.23,14.14 10.23,31.54l0 801.42c0,17.4 -3.48,28.05 -10.23,31.53 -6.74,3.7 -16.96,5.44 -30.66,5.44l-24.14 0 0 18.49 234.45 0zm676.41 -729.43c14.35,0 26.53,-5.22 36.53,-15.44 10,-10.22 15,-22.18 15,-36.32 0,-14.35 -5,-26.75 -15,-36.97 -10,-10.22 -22.18,-15.23 -36.53,-15.23 -14.57,0 -26.75,5 -36.97,15.23 -10.22,10.22 -15.22,22.62 -15.22,36.97 0,14.14 5,26.1 15.22,36.32 10.22,10.22 22.4,15.44 36.97,15.44zm124.18 729.43l0 -18.49 -24.14 0c-13.7,0 -23.93,-1.74 -30.67,-5.44 -6.74,-3.48 -10.22,-14.13 -10.22,-31.53l0 -617.43 -170.07 35.02 0 21.75c12.83,-1.74 23.49,-2.61 32.4,-2.61 5.22,0 11.96,0.44 20.23,1.09 8.26,0.65 12.61,6.09 13.04,16.09l0 546.09c0,17.4 -3.48,28.05 -10.22,31.53 -6.74,3.7 -16.96,5.44 -30.66,5.44l-24.14 0 0 18.49 234.45 0zm461.53 -2.6c19.14,0 45.89,-2.61 80.46,-8.27 34.8,-5.44 68.73,-20.66 102.44,-45.89 36.1,-27.18 54.15,-60.68 54.15,-100.48 0,-35.45 -19.79,-73.94 -59.37,-116.14 -21.96,-21.53 -46.1,-39.15 -71.98,-52.85 -25.88,-13.48 -51.98,-25.66 -78.29,-36.31 -40.02,-15.22 -76.12,-34.36 -108.31,-57.42 -32.41,-22.84 -54.59,-58.29 -66.98,-106.35 -1.74,-8.92 -2.61,-17.62 -2.61,-26.1 0,-26.75 11.09,-50.24 33.27,-70.68 24.58,-22.62 58.94,-33.71 103.09,-33.71 36.97,0 74.16,11.53 111.57,34.58 37.4,23.27 66.33,63.29 86.55,120.05l18.49 0 0 -88.51c-32.18,-31.32 -71.98,-53.94 -118.96,-67.42 -34.58,-9.79 -68.94,-14.79 -103.3,-14.79 -12.83,0 -34.14,1.74 -64.38,4.78 -30.23,3.26 -61.76,17.4 -94.82,42.41 -36.97,28.05 -55.46,68.07 -55.46,119.83 0,40.45 8.92,74.6 26.97,102.65 18.05,28.05 42.84,51.55 74.16,70.9 31.53,19.35 64.81,36.97 100.04,52.63 24.79,11.53 48.5,23.27 71.55,35.67 22.83,12.4 43.49,26.53 61.76,42.63 28.71,28.05 43.28,53.93 43.28,77.86 0,4.56 -1.74,15 -5.44,31.1 -3.69,16.32 -21.53,32.41 -53.93,48.5 -29.58,14.79 -63.51,22.4 -101.78,22.4 -3.05,0 -15.87,-0.43 -38.28,-1.3 -22.62,-0.87 -51.97,-14.13 -88.51,-39.58 -36.54,-25.44 -62.42,-66.33 -77.86,-122.22l-18.49 0 0 88.51c64.6,62.42 144.84,93.52 240.97,93.52zm564.84 -726.83c14.35,0 26.53,-5.22 36.53,-15.44 10,-10.22 15,-22.18 15,-36.32 0,-14.35 -5,-26.75 -15,-36.97 -10,-10.22 -22.18,-15.23 -36.53,-15.23 -14.57,0 -26.75,5 -36.97,15.23 -10.22,10.22 -15.22,22.62 -15.22,36.97 0,14.14 5,26.1 15.22,36.32 10.22,10.22 22.4,15.44 36.97,15.44zm124.18 729.43l0 -18.49 -24.14 0c-13.7,0 -23.92,-1.74 -30.67,-5.44 -6.74,-3.48 -10.22,-14.13 -10.22,-31.53l0 -617.43 -170.07 35.02 0 21.75c12.83,-1.74 23.49,-2.61 32.4,-2.61 5.22,0 11.96,0.44 20.23,1.09 8.26,0.65 12.62,6.09 13.05,16.09l0 546.09c0,17.4 -3.48,28.05 -10.22,31.53 -6.74,3.7 -16.96,5.44 -30.66,5.44l-24.14 0 0 18.49 234.45 0zm554.62 0c61.98,0 118.31,-15 169.2,-45.23 50.67,-30.23 91.34,-70.68 121.57,-121.57 30.45,-51.11 45.67,-107.66 45.67,-169.64 0,-61.98 -15.22,-118.31 -45.67,-169.2 -30.23,-50.67 -70.9,-91.34 -121.57,-121.57 -50.89,-30.45 -107.22,-45.67 -169.2,-45.67 -61.98,0 -118.53,15.23 -169.42,45.67 -51.11,30.23 -91.56,70.9 -121.79,121.57 -30.23,50.89 -45.24,107.22 -45.24,169.2 0,61.98 15,118.53 45.24,169.64 30.23,50.89 70.68,91.34 121.79,121.57 50.89,30.23 107.44,45.23 169.42,45.23zm0 -18.49c-42.85,0 -81.99,-14.35 -117.22,-43.06 -35.23,-28.49 -63.29,-66.98 -84.17,-114.83 -20.88,-48.06 -31.1,-101.35 -31.1,-160.07 0,-58.5 10.22,-111.78 31.1,-159.85 20.88,-48.06 48.93,-86.34 84.17,-115.04 35.23,-28.71 74.38,-43.06 117.22,-43.06 42.41,0 81.34,14.36 116.57,43.06 35.23,28.71 63.29,66.98 84.16,115.04 20.66,48.07 31.1,101.35 31.1,159.85 0,58.72 -10.44,112.01 -31.1,160.07 -20.88,47.85 -48.93,86.34 -84.16,114.83 -35.23,28.71 -74.16,43.06 -116.57,43.06zm771.88 18.49c21.1,0 40.24,-4.13 57.2,-12.4 17.18,-8.26 28.05,-20.22 33.28,-36.1l-20.44 0c-11.09,17.62 -26.31,26.31 -45.89,26.31 -16.09,0 -31.1,-8.48 -44.8,-25.66 -13.92,-16.96 -21.31,-45.45 -22.18,-85.25l0 -510.43 86.77 0 0 -18.49 -86.77 0 0 -140.71 -169.42 35.02 0 21.53c14.57,-1.52 24.79,-2.39 31.32,-2.39 5,0 11.74,0.22 20.22,0.87 8.7,0.65 13.05,6.09 13.49,16.31l0 69.37 -91.12 0 0 18.49 91.12 0c0.43,128.75 0.65,300.12 0.65,514.13 0,29.8 7.4,54.15 21.96,73.29 14.57,19.14 32.84,33.27 54.37,42.41 21.75,9.13 45.24,13.7 70.25,13.7zm592.02 0c68.29,0 129.4,-15.66 183.12,-47.19 53.72,-31.32 92.21,-80.47 115.05,-147.02l-17.18 -5.22c-21.75,62.42 -57.85,108.31 -108.31,137.23 -50.67,29.15 -107.65,43.71 -171.38,43.71 -54.8,-0.87 -100.26,-17.61 -136.14,-50.24 -35.89,-32.84 -62.42,-73.73 -79.82,-122.66 -17.4,-49.15 -26.31,-97.43 -26.31,-145.06 0,-19.14 1.08,-37.84 3.26,-56.11l560.67 0c-9.35,-53.5 -29.58,-101.13 -60.9,-143.32 -31.1,-41.97 -70.24,-75.25 -117.22,-100.04 -46.76,-24.58 -98.09,-36.97 -153.76,-36.97 -61.98,0 -118.53,15.23 -169.2,45.67 -50.67,30.23 -91.34,70.9 -121.79,121.57 -30.23,50.89 -45.45,107.22 -45.45,169.2 0,64.16 15.66,121.79 46.76,172.68 31.32,51.11 72.86,90.91 124.62,119.83 51.76,28.93 109.83,43.5 173.98,43.93zm217.26 -411.04l-451.71 0c13.05,-71.33 40.23,-129.62 81.55,-175.07 41.1,-45.45 89.17,-68.29 143.97,-68.29 54.8,0 102.87,22.84 144.19,68.29 41.54,45.45 68.72,103.74 81.99,175.07zm555.71 411.04l0 -18.49 -24.14 0c-13.7,0 -23.92,-1.74 -30.67,-5.44 -6.74,-3.48 -10.22,-14.13 -10.22,-31.53l0 -495.64c7.4,-20.44 18.49,-38.49 33.93,-54.16 27.84,-26.31 60.03,-39.58 96.13,-39.58 0.87,0 10.88,0.44 30.02,1.09 19.14,0.65 44.36,11.96 75.69,33.93 31.53,22.18 52.41,51.33 62.42,87.43l18.49 0 0 -95.04c-40.67,-36.54 -91.34,-54.81 -151.59,-54.81 -57.42,0 -105.26,18.05 -143.97,54.16 -8.05,8.04 -15.01,16.75 -21.1,26.09l0 -80.9 -169.42 35.02 0 21.75c11.53,-1.74 22.18,-2.61 31.97,-2.61 5.01,0 11.75,0.44 20.01,1.09 8.26,0.65 12.61,6.09 13.05,16.09l0 546.09c0,17.4 -3.48,28.05 -10.23,31.53 -6.74,3.7 -16.96,5.44 -30.66,5.44l-24.14 0 0 18.49 234.45 0zm1070.7 0l-168.98 0 0 -73.94c-24.58,23.92 -55.46,41.98 -92.43,54.59 -36.97,12.39 -75.03,18.7 -114.61,18.7l-13.48 0c-63.73,-4.13 -115.05,-25.01 -154.41,-61.98 -39.36,-37.19 -58.94,-78.29 -58.94,-123.31 0,-23.05 5.65,-45.23 17.18,-66.98 11.53,-21.75 29.58,-41.32 54.59,-58.94 24.79,-17.62 57.2,-32.19 97,-43.71 23.05,-5.87 45.02,-10.87 66.34,-15.23 40.89,-6.74 77.64,-18.26 110.48,-34.36 33.06,-16.09 62.2,-48.28 87.65,-96.35 -3.26,-100.48 -55.67,-150.93 -156.59,-150.93 -47.62,0 -90.91,13.92 -129.84,41.54 -38.71,27.62 -65.03,64.6 -78.51,111.36l-18.49 0 0 -94.82c28.71,-26.75 63.73,-46.54 104.61,-59.37 41.11,-12.62 83.95,-19.14 128.53,-19.14 169.42,0 254.24,56.11 254.24,168.34l0.65 446.05c0,18.49 3.04,30.02 9.13,33.93 6.09,4.13 16.96,6.09 32.18,6.09l23.71 0 0 18.49zm-342.32 -29.36c33.71,0 65.9,-6.09 97.22,-18.7 31.32,-12.62 56.55,-30.45 76.12,-53.94l-0.65 -359.28c-20.44,31.76 -43.28,55.03 -68.72,69.81 -25.44,14.57 -52.63,26.75 -81.56,36.54 -26.75,8.48 -53.93,20.01 -81.55,34.57 -31.1,17.84 -53.94,40.24 -68.51,67.42 -14.57,27.18 -21.96,54.81 -21.96,82.86 0,30.67 7.83,58.28 23.48,83.07 15.66,24.79 38.5,41.76 68.29,50.68 18.71,4.78 37.85,6.96 57.85,6.96zm727.3 269.03l0 -306.65c50.24,44.8 110.05,66.98 179.64,66.98 51.11,0 102.65,-12.61 154.85,-37.84 52.41,-25.23 96.13,-65.25 131.36,-120.05 33.06,-50.24 49.58,-110.26 49.58,-180.51l-0.43 -17.84c-5.22,-71.77 -26.53,-132.01 -63.73,-180.51 -37.4,-48.71 -83.29,-84.38 -137.66,-107.44 -44.15,-18.7 -88.51,-28.05 -133.32,-28.05 -10.87,0 -33.06,1.74 -66.55,5.22 -33.27,3.27 -71.11,23.71 -113.74,61.12l0 -66.99 -169.42 35.02 0 21.75c12.83,-1.74 23.27,-2.61 31.97,-2.61 5.01,0 11.74,0.44 20.01,1.09 8.26,0.65 12.83,6.09 13.7,16.09l0 785.76c0,17.4 -3.48,27.84 -10.22,31.53 -6.74,3.48 -17.18,5.44 -31.32,5.44l-23.49 0 0 18.49 168.76 0zm158.76 -256.2c-8.92,0 -27.62,-1.74 -55.89,-5.44 -28.05,-3.69 -62.42,-27.18 -102.87,-71.11l0 -488.03c47.63,-49.15 99.83,-73.95 156.81,-73.95 4.35,0 23.05,1.31 56.76,3.91 33.49,2.61 73.94,30.01 120.92,82.43 47.19,52.63 73.51,124.18 79.16,215.09l0 9.57c0,68.72 -13.27,128.75 -39.58,179.64 -26.32,51.11 -61.11,89.6 -104.39,115.92 -35.89,21.31 -72.64,31.97 -110.92,31.97zm689.03 -712.9c14.35,0 26.53,-5.22 36.53,-15.44 10,-10.22 15,-22.18 15,-36.32 0,-14.35 -5,-26.75 -15,-36.97 -10,-10.22 -22.18,-15.23 -36.53,-15.23 -14.57,0 -26.75,5 -36.97,15.23 -10.22,10.22 -15.22,22.62 -15.22,36.97 0,14.14 5,26.1 15.22,36.32 10.22,10.22 22.4,15.44 36.97,15.44zm124.18 729.43l0 -18.49 -24.14 0c-13.7,0 -23.93,-1.74 -30.67,-5.44 -6.74,-3.48 -10.22,-14.13 -10.22,-31.53l0 -617.43 -170.07 35.02 0 21.75c12.83,-1.74 23.49,-2.61 32.4,-2.61 5.22,0 11.96,0.44 20.23,1.09 8.26,0.65 12.61,6.09 13.04,16.09l0 546.09c0,17.4 -3.48,28.05 -10.22,31.53 -6.74,3.7 -16.96,5.44 -30.66,5.44l-24.14 0 0 18.49 234.45 0zm819.07 0l-168.98 0 0 -73.94c-24.58,23.92 -55.46,41.98 -92.43,54.59 -36.97,12.39 -75.03,18.7 -114.61,18.7l-13.48 0c-63.72,-4.13 -115.05,-25.01 -154.41,-61.98 -39.36,-37.19 -58.94,-78.29 -58.94,-123.31 0,-23.05 5.65,-45.23 17.18,-66.98 11.53,-21.75 29.58,-41.32 54.59,-58.94 24.79,-17.62 57.2,-32.19 97,-43.71 23.05,-5.87 45.02,-10.87 66.34,-15.23 40.89,-6.74 77.64,-18.26 110.48,-34.36 33.06,-16.09 62.2,-48.28 87.65,-96.35 -3.26,-100.48 -55.67,-150.93 -156.59,-150.93 -47.62,0 -90.91,13.92 -129.84,41.54 -38.71,27.62 -65.02,64.6 -78.51,111.36l-18.49 0 0 -94.82c28.71,-26.75 63.73,-46.54 104.61,-59.37 41.11,-12.62 83.95,-19.14 128.53,-19.14 169.42,0 254.24,56.11 254.24,168.34l0.65 446.05c0,18.49 3.04,30.02 9.13,33.93 6.09,4.13 16.96,6.09 32.19,6.09l23.7 0 0 18.49zm-342.31 -29.36c33.71,0 65.9,-6.09 97.21,-18.7 31.32,-12.62 56.55,-30.45 76.12,-53.94l-0.65 -359.28c-20.44,31.76 -43.28,55.03 -68.72,69.81 -25.44,14.57 -52.63,26.75 -81.56,36.54 -26.75,8.48 -53.93,20.01 -81.55,34.57 -31.1,17.84 -53.94,40.24 -68.51,67.42 -14.57,27.18 -21.96,54.81 -21.96,82.86 0,30.67 7.83,58.28 23.48,83.07 15.66,24.79 38.5,41.76 68.29,50.68 18.7,4.78 37.84,6.96 57.85,6.96zm1575.26 29.36l0 -165.07 -18.49 0c0,38.71 -12.61,72.42 -37.84,101.13 -25.23,28.71 -61.77,43.72 -109.39,45.45l-271.42 0 0 -418.65 116.13 0c27.62,0 51.98,3.48 73.29,10.22 45.67,15.44 68.72,52.42 68.72,111.57l18.49 0 0 -261.2 -18.49 0c0,32.63 -6.09,57.85 -18.49,75.47 -12.39,17.62 -29.57,29.8 -51.55,36.54 -19.57,6.09 -42.19,8.92 -67.63,8.92l-120.49 0 0 -438.23 271.42 0c47.62,1.74 84.16,16.75 109.39,45.45 25.23,28.71 37.84,62.42 37.84,101.13l18.49 0 0 -165.07 -605.91 0 0 18.49 23.49 0c13.7,0 23.92,1.74 31.1,5.44 6.96,3.48 10.44,15 10.44,34.58l0 795.33c0,19.36 -3.48,31.1 -10.44,34.58 -7.17,3.7 -17.4,5.44 -31.1,5.44l-23.49 0 0 18.49 605.91 0zm511.34 -2.6c19.14,0 45.89,-2.61 80.46,-8.27 34.8,-5.44 68.72,-20.66 102.44,-45.89 36.1,-27.18 54.15,-60.68 54.15,-100.48 0,-35.45 -19.79,-73.94 -59.37,-116.14 -21.97,-21.53 -46.1,-39.15 -71.98,-52.85 -25.88,-13.48 -51.98,-25.66 -78.29,-36.31 -40.02,-15.22 -76.12,-34.36 -108.31,-57.42 -32.41,-22.84 -54.59,-58.29 -66.98,-106.35 -1.74,-8.92 -2.61,-17.62 -2.61,-26.1 0,-26.75 11.09,-50.24 33.27,-70.68 24.58,-22.62 58.94,-33.71 103.09,-33.71 36.97,0 74.16,11.53 111.57,34.58 37.4,23.27 66.33,63.29 86.56,120.05l18.49 0 0 -88.51c-32.19,-31.32 -71.98,-53.94 -118.96,-67.42 -34.58,-9.79 -68.94,-14.79 -103.3,-14.79 -12.83,0 -34.14,1.74 -64.38,4.78 -30.23,3.26 -61.76,17.4 -94.82,42.41 -36.97,28.05 -55.46,68.07 -55.46,119.83 0,40.45 8.92,74.6 26.97,102.65 18.05,28.05 42.84,51.55 74.16,70.9 31.53,19.35 64.81,36.97 100.04,52.63 24.8,11.53 48.5,23.27 71.55,35.67 22.84,12.4 43.5,26.53 61.76,42.63 28.71,28.05 43.28,53.93 43.28,77.86 0,4.56 -1.73,15 -5.44,31.1 -3.7,16.32 -21.53,32.41 -53.93,48.5 -29.58,14.79 -63.51,22.4 -101.78,22.4 -3.05,0 -15.88,-0.43 -38.28,-1.3 -22.62,-0.87 -51.98,-14.13 -88.51,-39.58 -36.54,-25.44 -62.42,-66.33 -77.86,-122.22l-18.49 0 0 88.51c64.6,62.42 144.84,93.52 240.97,93.52zm620.73 242.27l0 -306.65c50.24,44.8 110.05,66.98 179.64,66.98 51.11,0 102.65,-12.61 154.85,-37.84 52.41,-25.23 96.13,-65.25 131.36,-120.05 33.06,-50.24 49.58,-110.26 49.58,-180.51l-0.43 -17.84c-5.22,-71.77 -26.53,-132.01 -63.73,-180.51 -37.4,-48.71 -83.29,-84.38 -137.67,-107.44 -44.15,-18.7 -88.51,-28.05 -133.31,-28.05 -10.87,0 -33.06,1.74 -66.55,5.22 -33.27,3.27 -71.11,23.71 -113.74,61.12l0 -66.99 -169.42 35.02 0 21.75c12.83,-1.74 23.27,-2.61 31.97,-2.61 5.01,0 11.74,0.44 20.01,1.09 8.26,0.65 12.83,6.09 13.7,16.09l0 785.76c0,17.4 -3.48,27.84 -10.22,31.53 -6.74,3.48 -17.18,5.44 -31.32,5.44l-23.49 0 0 18.49 168.77 0zm158.76 -256.2c-8.92,0 -27.62,-1.74 -55.89,-5.44 -28.05,-3.69 -62.42,-27.18 -102.87,-71.11l0 -488.03c47.63,-49.15 99.83,-73.95 156.81,-73.95 4.35,0 23.05,1.31 56.76,3.91 33.49,2.61 73.94,30.01 120.92,82.43 47.19,52.63 73.51,124.18 79.16,215.09l0 9.57c0,68.72 -13.27,128.75 -39.58,179.64 -26.32,51.11 -61.11,89.6 -104.39,115.92 -35.88,21.31 -72.64,31.97 -110.92,31.97zm970.01 16.53c68.29,0 129.4,-15.66 183.12,-47.19 53.72,-31.32 92.21,-80.47 115.05,-147.02l-17.18 -5.22c-21.75,62.42 -57.85,108.31 -108.31,137.23 -50.67,29.15 -107.66,43.71 -171.38,43.71 -54.8,-0.87 -100.26,-17.61 -136.14,-50.24 -35.88,-32.84 -62.42,-73.73 -79.81,-122.66 -17.4,-49.15 -26.31,-97.43 -26.31,-145.06 0,-19.14 1.08,-37.84 3.26,-56.11l560.67 0c-9.36,-53.5 -29.58,-101.13 -60.9,-143.32 -31.1,-41.97 -70.24,-75.25 -117.22,-100.04 -46.76,-24.58 -98.09,-36.97 -153.76,-36.97 -61.98,0 -118.53,15.23 -169.2,45.67 -50.67,30.23 -91.34,70.9 -121.79,121.57 -30.23,50.89 -45.45,107.22 -45.45,169.2 0,64.16 15.66,121.79 46.76,172.68 31.32,51.11 72.86,90.91 124.62,119.83 51.76,28.93 109.83,43.5 173.98,43.93zm217.27 -411.04l-451.71 0c13.04,-71.33 40.23,-129.62 81.55,-175.07 41.11,-45.45 89.17,-68.29 143.98,-68.29 54.8,0 102.87,22.84 144.19,68.29 41.54,45.45 68.72,103.74 81.99,175.07zm686.41 411.04c96.78,-2.6 176.38,-41.53 238.36,-117.22l-13.48 -13.27c-57.2,73.29 -131.8,110.7 -223.57,112 -54.8,-0.87 -100.26,-17.61 -136.14,-50.24 -35.89,-32.84 -62.42,-73.73 -79.82,-122.66 -17.4,-49.15 -26.09,-97.43 -26.09,-145.06 0,-68.29 13.92,-129.18 41.97,-182.9 28.05,-53.5 64.59,-91.78 109.61,-115.26 30.45,-14.79 61.55,-22.19 93.08,-22.19 10.44,0 28.93,1.96 55.24,6.31 26.53,4.14 55.67,20.01 87.65,47.2 32.19,27.18 54.15,61.76 66.11,103.74l18.27 0 0 -94.82c-57.2,-52.42 -135.27,-78.52 -233.8,-78.52 -36.1,0 -70.46,4.78 -103.09,14.14 -70.68,21.96 -128.09,62.2 -172.46,120.7 -44.36,58.5 -66.55,125.7 -66.55,201.6 0,64.16 15.44,121.79 46.54,172.68 30.88,51.11 72.42,90.91 124.18,119.83 51.76,28.93 109.83,43.5 173.99,43.93zm580.71 -729.43c14.35,0 26.53,-5.22 36.53,-15.44 10,-10.22 15,-22.18 15,-36.32 0,-14.35 -5,-26.75 -15,-36.97 -10,-10.22 -22.18,-15.23 -36.53,-15.23 -14.57,0 -26.75,5 -36.97,15.23 -10.22,10.22 -15.22,22.62 -15.22,36.97 0,14.14 5,26.1 15.22,36.32 10.22,10.22 22.4,15.44 36.97,15.44zm124.18 729.43l0 -18.49 -24.14 0c-13.7,0 -23.93,-1.74 -30.67,-5.44 -6.74,-3.48 -10.22,-14.13 -10.22,-31.53l0 -617.43 -170.07 35.02 0 21.75c12.83,-1.74 23.49,-2.61 32.4,-2.61 5.22,0 11.96,0.44 20.23,1.09 8.26,0.65 12.61,6.09 13.04,16.09l0 546.09c0,17.4 -3.48,28.05 -10.22,31.53 -6.74,3.7 -16.96,5.44 -30.66,5.44l-24.14 0 0 18.49 234.45 0zm819.07 0l-168.98 0 0 -73.94c-24.58,23.92 -55.46,41.98 -92.43,54.59 -36.97,12.39 -75.03,18.7 -114.61,18.7l-13.48 0c-63.72,-4.13 -115.05,-25.01 -154.41,-61.98 -39.36,-37.19 -58.94,-78.29 -58.94,-123.31 0,-23.05 5.65,-45.23 17.18,-66.98 11.53,-21.75 29.58,-41.32 54.59,-58.94 24.79,-17.62 57.2,-32.19 97,-43.71 23.05,-5.87 45.02,-10.87 66.33,-15.23 40.89,-6.74 77.64,-18.26 110.48,-34.36 33.06,-16.09 62.2,-48.28 87.65,-96.35 -3.26,-100.48 -55.67,-150.93 -156.59,-150.93 -47.62,0 -90.91,13.92 -129.84,41.54 -38.71,27.62 -65.02,64.6 -78.51,111.36l-18.49 0 0 -94.82c28.71,-26.75 63.73,-46.54 104.61,-59.37 41.11,-12.62 83.95,-19.14 128.53,-19.14 169.42,0 254.24,56.11 254.24,168.34l0.65 446.05c0,18.49 3.04,30.02 9.13,33.93 6.09,4.13 16.96,6.09 32.19,6.09l23.7 0 0 18.49zm-342.31 -29.36c33.71,0 65.9,-6.09 97.22,-18.7 31.32,-12.62 56.54,-30.45 76.12,-53.94l-0.65 -359.28c-20.44,31.76 -43.28,55.03 -68.72,69.81 -25.44,14.57 -52.63,26.75 -81.56,36.54 -26.75,8.48 -53.93,20.01 -81.55,34.57 -31.1,17.84 -53.94,40.24 -68.51,67.42 -14.57,27.18 -21.96,54.81 -21.96,82.86 0,30.67 7.83,58.28 23.48,83.07 15.66,24.79 38.5,41.76 68.29,50.68 18.7,4.78 37.84,6.96 57.85,6.96zm792.98 29.36l0 -18.49 -24.14 0c-13.7,0 -23.92,-1.74 -30.67,-5.44 -6.74,-3.48 -10.22,-14.13 -10.22,-31.53l0 -856.88 -169.42 35.02 0 21.75c12.83,-1.74 23.05,-2.61 31.32,-2.61 5,0 11.74,0.22 20.22,0.87 8.48,0.65 13.05,6.09 13.49,16.31l0 785.54c0,17.4 -3.48,28.05 -10.23,31.53 -6.74,3.7 -16.96,5.44 -30.66,5.44l-24.14 0 0 18.49 234.45 0zm327.13 -729.43c14.35,0 26.53,-5.22 36.53,-15.44 10,-10.22 15,-22.18 15,-36.32 0,-14.35 -5,-26.75 -15,-36.97 -10,-10.22 -22.18,-15.23 -36.53,-15.23 -14.57,0 -26.75,5 -36.97,15.23 -10.22,10.22 -15.22,22.62 -15.22,36.97 0,14.14 5,26.1 15.22,36.32 10.22,10.22 22.4,15.44 36.97,15.44zm124.18 729.43l0 -18.49 -24.14 0c-13.7,0 -23.92,-1.74 -30.67,-5.44 -6.74,-3.48 -10.22,-14.13 -10.22,-31.53l0 -617.43 -170.07 35.02 0 21.75c12.83,-1.74 23.49,-2.61 32.4,-2.61 5.22,0 11.96,0.44 20.23,1.09 8.26,0.65 12.62,6.09 13.05,16.09l0 546.09c0,17.4 -3.48,28.05 -10.22,31.53 -6.74,3.7 -16.96,5.44 -30.66,5.44l-24.14 0 0 18.49 234.45 0zm755.36 0l0 -139.4 -18.49 0c0,32.62 -6.09,57.63 -18.49,75.03 -21.31,30.66 -60.67,45.88 -118.53,45.88l-237.05 0 403.43 -654.4 -525 0 0 139.63 18.49 0c0,-32.62 6.09,-57.85 18.48,-75.47 12.18,-17.62 29.36,-29.8 51.54,-36.75 19.58,-5.87 41.98,-8.92 67.64,-8.92l236.18 0 -403.86 654.4 525.66 0zm841.47 0l-168.98 0 0 -73.94c-24.58,23.92 -55.46,41.98 -92.43,54.59 -36.97,12.39 -75.03,18.7 -114.61,18.7l-13.48 0c-63.72,-4.13 -115.05,-25.01 -154.41,-61.98 -39.36,-37.19 -58.94,-78.29 -58.94,-123.31 0,-23.05 5.65,-45.23 17.18,-66.98 11.53,-21.75 29.58,-41.32 54.59,-58.94 24.79,-17.62 57.2,-32.19 97,-43.71 23.05,-5.87 45.02,-10.87 66.33,-15.23 40.89,-6.74 77.64,-18.26 110.48,-34.36 33.06,-16.09 62.2,-48.28 87.65,-96.35 -3.26,-100.48 -55.67,-150.93 -156.59,-150.93 -47.62,0 -90.91,13.92 -129.84,41.54 -38.71,27.62 -65.02,64.6 -78.51,111.36l-18.49 0 0 -94.82c28.71,-26.75 63.72,-46.54 104.61,-59.37 41.11,-12.62 83.95,-19.14 128.53,-19.14 169.42,0 254.24,56.11 254.24,168.34l0.65 446.05c0,18.49 3.04,30.02 9.13,33.93 6.09,4.13 16.96,6.09 32.19,6.09l23.7 0 0 18.49zm-342.31 -29.36c33.71,0 65.9,-6.09 97.22,-18.7 31.32,-12.62 56.54,-30.45 76.12,-53.94l-0.65 -359.28c-20.44,31.76 -43.28,55.03 -68.72,69.81 -25.44,14.57 -52.63,26.75 -81.56,36.54 -26.75,8.48 -53.93,20.01 -81.55,34.57 -31.1,17.84 -53.94,40.24 -68.5,67.42 -14.57,27.18 -21.97,54.81 -21.97,82.86 0,30.67 7.83,58.28 23.48,83.07 15.66,24.79 38.5,41.76 68.29,50.68 18.7,4.78 37.84,6.96 57.85,6.96zm917.81 7.83c8.92,0 27.62,-1.96 56.33,-5.44 28.71,-3.69 63.29,-26.53 104.18,-68.51l0 -481.72c-47.63,-51.76 -100.26,-77.86 -158.11,-77.86 -3.7,0 -22.4,1.09 -55.68,3.05 -33.27,1.74 -73.73,29.14 -121.13,82.2 -47.19,52.85 -73.51,124.83 -78.52,216.18l0 12.83c0,67.42 13.05,126.14 39.15,176.16 26.1,49.8 60.9,87.43 104.17,112.44 34.8,20.45 71.34,30.67 109.61,30.67zm329.27 21.53l-168.76 0 0 -68.07c-50.02,45.45 -110.92,68.07 -182.25,68.07 -48.72,0 -98.96,-12.18 -150.28,-36.53 -51.55,-24.58 -94.82,-63.07 -130.27,-115.7 -35.45,-52.63 -53.29,-116.35 -53.29,-191.17l0 -5c3.92,-73.51 24.36,-135.49 61.76,-185.51 37.41,-50.02 83.73,-86.78 138.97,-110.27 43.28,-18.7 87,-28.05 131.14,-28.05 11.96,0 35.02,1.96 69.6,5.44 34.36,3.7 72.64,24.79 114.61,63.51l0 -237.71c-0.87,-10.22 -6.96,-15.66 -18.49,-16.53l-15.22 -0.65c-6.96,0 -17.4,0.87 -31.97,2.61l0 -21.75 169.64 -35.02 0 853.83c0,19.36 3.48,31.1 10.44,34.58 6.96,3.7 17.18,5.44 30.88,5.44l23.49 0 0 18.49zm819.07 0l-168.98 0 0 -73.94c-24.58,23.92 -55.46,41.98 -92.43,54.59 -36.97,12.39 -75.03,18.7 -114.61,18.7l-13.48 0c-63.72,-4.13 -115.05,-25.01 -154.41,-61.98 -39.36,-37.19 -58.94,-78.29 -58.94,-123.31 0,-23.05 5.65,-45.23 17.18,-66.98 11.53,-21.75 29.58,-41.32 54.59,-58.94 24.79,-17.62 57.2,-32.19 97,-43.71 23.05,-5.87 45.02,-10.87 66.34,-15.23 40.89,-6.74 77.64,-18.26 110.48,-34.36 33.06,-16.09 62.2,-48.28 87.65,-96.35 -3.26,-100.48 -55.67,-150.93 -156.59,-150.93 -47.62,0 -90.91,13.92 -129.84,41.54 -38.71,27.62 -65.03,64.6 -78.51,111.36l-18.49 0 0 -94.82c28.71,-26.75 63.73,-46.54 104.61,-59.37 41.11,-12.62 83.95,-19.14 128.53,-19.14 169.42,0 254.24,56.11 254.24,168.34l0.65 446.05c0,18.49 3.04,30.02 9.13,33.93 6.09,4.13 16.96,6.09 32.18,6.09l23.71 0 0 18.49zm-342.31 -29.36c33.71,0 65.9,-6.09 97.21,-18.7 31.32,-12.62 56.55,-30.45 76.12,-53.94l-0.65 -359.28c-20.44,31.76 -43.28,55.03 -68.72,69.81 -25.44,14.57 -52.63,26.75 -81.56,36.54 -26.75,8.48 -53.93,20.01 -81.55,34.57 -31.1,17.84 -53.94,40.24 -68.51,67.42 -14.57,27.18 -21.96,54.81 -21.96,82.86 0,30.67 7.83,58.28 23.48,83.07 15.66,24.79 38.5,41.76 68.29,50.68 18.71,4.78 37.85,6.96 57.85,6.96z"/>
  <polygon class="fil0 str1" points="10605.46,1094.03 10752.18,934.15 10656.19,934.15 10592.3,1084.71 "/>
  <g id="_2319732966000">
   <path class="fil1" d="M538.77 2255.91c312.84,-815.85 1103.49,-1395.03 2029.43,-1395.03 219.73,0 431.83,32.62 631.74,93.26l230.44 -339.97c-269.48,-96.03 -559.71,-148.32 -862.16,-148.32 -1147.04,0 -2118.41,752.1 -2447.9,1790.05l418.45 0z"/>
   <path class="fil1" d="M4176.76 4487.47l228.53 338.65c452.11,-462.87 730.72,-1095.94 730.72,-1794.09 0,-654.48 -244.86,-1251.77 -647.96,-1705.27l-230.02 339.36c656.31,853.23 633.95,2030.92 -81.27,2821.35z"/>
   <path class="fil1" d="M395.43 3033.67c0,-101.15 6.91,-200.69 20.29,-298.16l-398.18 0c-216.98,1876.14 1616.34,3353.71 3407.9,2719.38l-229.57 -344.84c-1441.9,390.77 -2800.44,-637.57 -2800.44,-2076.39z"/>
   <path class="fil1" d="M44.89 2735.52l1488.34 0 0 487.03 -1488.34 0c-24.32,-162.49 -24.71,-324.83 0,-487.03z"/>
   <path class="fil1" d="M1530.36 2045.79l2212.45 3271.16c126.32,-66.81 302.94,-167.4 407.79,-261.92l-2047.44 -3041.55 -572.8 32.31z"/>
   <path class="fil1" d="M3995.89 929.33l0.15 -0.2 0.15 -0.28 0.17 -0.28 0.17 -0.3 0.16 -0.3 0.19 -0.27 0.16 -0.3 0.64 -1.09c3.84,-6.46 7.64,-12.93 11.42,-19.41 3.77,-6.5 7.55,-13.01 11.29,-19.52 3.73,-6.53 7.48,-13.05 11.16,-19.59 3.69,-6.54 7.38,-13.1 11.04,-19.68 3.65,-6.56 7.29,-13.14 10.88,-19.75 3.61,-6.59 7.2,-13.21 10.75,-19.83 3.54,-6.62 7.1,-13.26 10.62,-19.92 3.5,-6.65 6.98,-13.3 10.46,-20 3.47,-6.69 6.9,-13.37 10.31,-20.08 3.41,-6.7 6.82,-13.44 10.16,-20.18 3.37,-6.74 6.71,-13.48 10.02,-20.26 3.33,-6.77 6.62,-13.56 9.87,-20.35 3.26,-6.81 6.5,-13.62 9.72,-20.44 3.25,-6.83 6.39,-13.67 9.55,-20.53 3.17,-6.87 6.3,-13.75 9.4,-20.65 3.11,-6.89 6.18,-13.79 9.24,-20.72 3.06,-6.9 6.08,-13.86 9.08,-20.8 2.99,-6.95 5.97,-13.94 8.92,-20.93 2.93,-6.98 5.85,-13.97 8.74,-20.98 2.51,-6.12 5.01,-12.23 7.46,-18.37l1.1 -2.75c2.85,-7.05 5.67,-14.13 8.42,-21.2 2.78,-7.09 5.53,-14.18 8.26,-21.28 2.7,-7.12 5.4,-14.26 8.07,-21.44 2.65,-7.13 5.28,-14.3 7.87,-21.47 2.62,-7.18 5.18,-14.39 7.73,-21.64 2.54,-7.22 5.03,-14.46 7.52,-21.74 2.47,-7.24 4.93,-14.5 7.34,-21.79 2.42,-7.29 4.81,-14.62 7.17,-21.95 2.34,-7.33 4.66,-14.66 6.96,-22.02 2.29,-7.38 4.54,-14.78 6.77,-22.18 2.23,-7.4 4.42,-14.81 6.59,-22.25 2.15,-7.45 4.28,-14.91 6.39,-22.38 2.08,-7.49 4.16,-14.97 6.18,-22.48 2.03,-7.55 4.04,-15.09 6,-22.66 18.23,-70.11 33.54,-141.77 45.69,-215.1 15.61,89.34 26.85,176.52 34.03,261.68 0.79,9.16 1.52,18.31 2.19,27.4 0.67,9.1 1.3,18.15 1.89,27.18 0.58,9.06 1.11,18.1 1.62,27.11 0.47,8.96 0.94,17.93 1.33,26.85 0.4,8.96 0.75,17.88 1.07,26.76 0.3,8.89 0.56,17.72 0.79,26.56 0.21,8.83 0.39,17.65 0.52,26.46 0.12,8.75 0.22,17.51 0.26,26.21l0.03 1.53c0.04,8.23 0.04,16.43 -0.01,24.63 -0.03,8.68 -0.11,17.34 -0.23,26 -0.14,8.61 -0.31,17.23 -0.51,25.78 -0.23,8.59 -0.48,17.15 -0.76,25.71 -0.3,8.53 -0.62,17.01 -0.99,25.5 -0.38,8.49 -0.76,16.96 -1.26,25.42 -0.45,8.42 -0.92,16.85 -1.48,25.23 -0.54,8.39 -1.11,16.77 -1.75,25.12 -0.61,8.32 -1.27,16.63 -1.99,24.93 -0.68,8.31 -1.44,16.55 -2.23,24.84 -0.76,8.24 -1.6,16.45 -2.44,24.66 -0.86,8.2 -1.76,16.39 -2.69,24.56 -0.93,8.16 -1.88,16.3 -2.9,24.42 -1.02,8.11 -2.04,16.21 -3.14,24.28 -1.07,8.07 -2.2,16.12 -3.35,24.14 -1.18,8.03 -2.38,16.03 -3.6,24.02 -1.23,7.98 -2.52,15.95 -3.83,23.88 -1.3,7.93 -2.66,15.86 -4.04,23.75 -1.37,7.91 -2.79,15.79 -4.23,23.64 -1.45,7.86 -2.94,15.68 -4.47,23.5 -1.52,7.85 -3.06,15.63 -4.65,23.41 -1.6,7.77 -3.22,15.53 -4.86,23.27 -1.67,7.73 -3.37,15.44 -5.09,23.15 -1.74,7.69 -3.5,15.37 -5.3,23.04 -1.77,7.64 -3.61,15.28 -5.48,22.91 -1.85,7.6 -3.76,15.21 -5.68,22.78 -1.93,7.57 -3.89,15.14 -5.88,22.68 -2,7.53 -4.03,15.06 -6.08,22.58 -2.07,7.48 -4.13,14.98 -6.27,22.45 -2.11,7.46 -4.24,14.92 -6.44,22.35 -2.18,7.43 -4.41,14.84 -6.63,22.23 -2.24,7.38 -4.53,14.77 -6.85,22.13 -2.29,7.36 -4.63,14.67 -6.99,22.02 -2.35,7.3 -4.78,14.62 -7.2,21.91 -2.41,7.29 -4.87,14.56 -7.37,21.82 -2.48,7.25 -4.99,14.49 -7.56,21.7 -2.52,7.24 -5.1,14.43 -7.71,21.62 -2.59,7.18 -5.22,14.35 -7.85,21.51 -2.69,7.14 -5.37,14.28 -8.07,21.41 -2.73,7.12 -5.49,14.22 -8.26,21.29 -2.75,7.09 -5.56,14.16 -8.38,21.2 -2.83,7.06 -5.67,14.11 -8.57,21.15 -2.87,7.01 -5.77,14.01 -8.73,21 -2.91,6.99 -5.88,13.99 -8.88,20.92 -2.98,6.98 -5.99,13.94 -9.03,20.88 -3.02,6.93 -6.08,13.84 -9.18,20.72 -3.07,6.93 -6.19,13.8 -9.32,20.67 -3.16,6.86 -6.31,13.72 -9.51,20.58 -3.19,6.82 -6.39,13.67 -9.65,20.46 -3.23,6.81 -6.5,13.62 -9.77,20.41 -3.29,6.78 -6.61,13.54 -9.95,20.3 -3.34,6.75 -6.7,13.49 -10.08,20.22 -3.38,6.74 -6.78,13.45 -10.2,20.18 -3.44,6.69 -6.9,13.37 -10.36,20.06 -3.49,6.66 -6.96,13.33 -10.48,19.96 -3.52,6.67 -7.06,13.29 -10.64,19.91 -3.07,5.73 -6.19,11.47 -9.29,17.17l-1.46 2.69c-3.6,6.59 -7.21,13.18 -10.85,19.76 -3.65,6.58 -7.29,13.13 -10.99,19.68 -3.68,6.55 -7.4,13.1 -11.13,19.63 -3.73,6.51 -7.48,13.02 -11.29,19.53 -3.76,6.49 -7.56,12.96 -11.37,19.44 -3.83,6.47 -7.68,12.93 -11.53,19.4 -3.88,6.45 -7.76,12.86 -11.64,19.3 -3.91,6.42 -7.83,12.82 -11.77,19.24 -3.95,6.42 -7.91,12.78 -11.89,19.18 -3.97,6.35 -7.98,12.73 -11.99,19.11 -4.01,6.35 -8.05,12.69 -12.11,19.04l-0.43 0.68c-3.88,6.11 -7.79,12.2 -11.73,18.34 -4.08,6.28 -8.18,12.6 -12.31,18.9 -4.13,6.3 -8.28,12.58 -12.46,18.84l-4.1 6.15 -8.44 12.65c-4.16,6.26 -8.39,12.5 -12.62,18.74 -4.22,6.22 -8.47,12.46 -12.72,18.68 -4.27,6.23 -8.55,12.43 -12.83,18.62 -4.3,6.2 -8.59,12.39 -12.93,18.57 -4.32,6.18 -8.67,12.34 -13.01,18.49 -4.38,6.15 -8.74,12.31 -13.12,18.47 -4.39,6.14 -8.8,12.26 -13.22,18.39 -4.41,6.11 -8.85,12.22 -13.29,18.34 -4.46,6.11 -8.92,12.2 -13.41,18.27 -4.47,6.11 -8.97,12.18 -13.47,18.26 -4.51,6.11 -9.04,12.15 -13.57,18.18 -4.54,6.07 -9.08,12.11 -13.64,18.14 -4.56,6.04 -9.15,12.1 -13.75,18.11 -4,5.28 -8.07,10.57 -12.13,15.84l-1.69 2.2c-4.63,6.02 -9.24,12 -13.87,18 -4.65,5.99 -9.3,11.98 -13.96,17.95 -4.67,5.99 -9.36,11.95 -14.04,17.92 -4.7,5.96 -9.39,11.91 -14.11,17.86 -4.73,5.95 -9.44,11.91 -14.18,17.86 -4.75,5.93 -9.49,11.87 -14.24,17.78 -4.77,5.93 -9.53,11.84 -14.33,17.76 -4.78,5.9 -9.57,11.84 -14.38,17.71 -4.79,5.89 -9.63,11.79 -14.42,17.68 -4.83,5.88 -9.68,11.75 -14.53,17.64 -4.86,5.87 -9.71,11.75 -14.55,17.6 -4.88,5.87 -9.76,11.72 -14.63,17.57l-14.69 17.53 -14.73 17.52 -14.8 17.47 -14.84 17.44 -14.88 17.41 -14.96 17.4 -14.96 17.35 -15.04 17.34 -15.06 17.32 -15.1 17.28 -15.15 17.28 -15.19 17.24 -15.24 17.22 -15.24 17.21 -15.29 17.19 -15.31 17.16 -15.33 17.17 -15.37 17.13 -15.4 17.12 -15.4 17.12 -15.45 17.12 -15.44 17.06 -15.48 17.08 -15.48 17.08 -15.51 17.06 -15.51 17.05 -15.52 17.05 -15.53 17.05 -15.53 17.04 -15.52 17.03 -15.55 17.05 -15.53 17.04 -15.55 17.03 -15.53 17.04 -15.52 17.05 -15.53 17.05 -7.8 8.57 -7.68 8.5 -15.5 17.08 -15.45 17.09 -15.47 17.08 -15.47 17.09 -15.45 17.08 -15.43 17.09 -15.43 17.12 -15.38 17.13 -15.4 17.12 -3.71 4.16 -11.6 13 -11.24 12.66 -4.03 4.55c-5.09,5.71 -10.19,11.45 -15.26,17.18l-10.43 11.85 -4.77 5.38 -15.18 17.24c-5.08,5.75 -10.11,11.48 -15.17,17.24 -4.03,4.6 -8.04,9.18 -12.04,13.8l-3.07 3.49 -15.08 17.32 -15.05 17.31 -15.01 17.37 -14.96 17.37 -14.91 17.41 -14.85 17.41 -14.85 17.49 -14.73 17.48c-4.91,5.83 -9.81,11.67 -14.7,17.52 -4.9,5.85 -9.79,11.7 -14.65,17.56l-14.6 17.59c-4.84,5.87 -9.69,11.75 -14.51,17.64 -4.83,5.87 -9.68,11.77 -14.44,17.65 -4.83,5.91 -9.63,11.82 -14.41,17.71 -4.78,5.92 -9.58,11.83 -14.34,17.76l-3.68 4.61 -10.53 13.19c-4.72,5.93 -9.44,11.9 -14.15,17.84 -4.69,5.96 -9.39,11.94 -14.04,17.91 -4.71,5.97 -9.39,11.96 -14.02,17.95 -4.66,5.97 -9.29,11.96 -13.9,17.98 -4.63,6 -9.26,12.01 -13.84,18.03 -4.6,6.03 -9.18,12.05 -13.76,18.07 -4.56,6.04 -9.11,12.11 -13.65,18.15 -4.54,6.06 -9.06,12.1 -13.57,18.18 -4.53,6.06 -9.02,12.15 -13.48,18.23 -4.47,6.09 -8.97,12.2 -13.38,18.3 -4.47,6.11 -8.87,12.25 -13.29,18.35 -4.41,6.14 -8.82,12.26 -13.18,18.41 -4.38,6.15 -8.76,12.31 -13.09,18.46 -4.38,6.18 -8.69,12.35 -13.01,18.54 -4.32,6.18 -8.61,12.38 -12.88,18.58 -4.28,6.2 -8.54,12.41 -12.77,18.66 -4.26,6.22 -8.49,12.46 -12.67,18.7 -4.2,6.24 -8.41,12.51 -12.55,18.78 -4.16,6.28 -8.31,12.55 -12.43,18.85 -4.13,6.28 -8.26,12.59 -12.32,18.92 -4.1,6.32 -8.15,12.66 -12.19,18.99 -4.05,6.36 -8.07,12.7 -12.08,19.08 -4,6.35 -7.98,12.74 -11.94,19.13 -3.96,6.39 -7.91,12.79 -11.83,19.23 -3.91,6.4 -7.81,12.84 -11.68,19.28 -3.87,6.4 -7.71,12.91 -11.54,19.37 -3.84,6.47 -7.65,12.94 -11.42,19.44 -3.77,6.5 -7.55,13.01 -11.28,19.53 -2.3,4.07 -4.65,8.12 -6.91,12.18l-4.23 7.44c-3.69,6.54 -7.34,13.13 -11.01,19.67 -3.65,6.59 -7.25,13.18 -10.85,19.77 -3.58,6.62 -7.17,13.24 -10.7,19.87 -3.54,6.63 -7.06,13.28 -10.54,19.94 -3.49,6.67 -6.97,13.36 -10.41,20.05 -3.42,6.7 -6.85,13.43 -10.23,20.14 -3.38,6.74 -6.74,13.45 -10.07,20.23 -3.32,6.8 -6.63,13.56 -9.91,20.34 -3.28,6.8 -6.51,13.6 -9.72,20.42 -3.24,6.85 -6.42,13.68 -9.59,20.53 -3.15,6.85 -6.28,13.75 -9.4,20.62 -3.1,6.9 -6.18,13.82 -9.22,20.72l-0.36 0.86c-2.93,6.63 -5.83,13.31 -8.69,19.96 -3.02,6.98 -5.95,13.95 -8.9,20.92 -2.93,7.01 -5.81,14.03 -8.7,21.04 -2.86,7.05 -5.69,14.1 -8.47,21.17 -2.81,7.06 -5.57,14.16 -8.3,21.27 -2.73,7.1 -5.43,14.24 -8.1,21.4 -2.67,7.14 -5.28,14.32 -7.87,21.51l-2.16 5.96c-1.85,5.22 -3.73,10.42 -5.57,15.64 -2.52,7.22 -5.03,14.44 -7.49,21.74 -2.47,7.25 -4.91,14.54 -7.33,21.84 -2.4,7.3 -4.75,14.62 -7.05,21.96 -2.35,7.36 -4.63,14.73 -6.9,22.1 -2.24,7.39 -4.44,14.81 -6.63,22.23 -2.19,7.46 -4.32,14.9 -6.43,22.38 -2.11,7.48 -4.16,14.98 -6.19,22.49 -2.03,7.5 -4.01,15.06 -5.95,22.62 -1.96,7.57 -3.88,15.16 -5.75,22.77 -1.88,7.62 -3.71,15.25 -5.49,22.9 -1.8,7.67 -3.54,15.35 -5.26,23.04 -1.7,7.72 -3.4,15.45 -5.02,23.2 -0.94,4.47 -1.87,8.92 -2.78,13.4 -0.7,3.28 -1.4,6.61 -2.05,9.87 -1.6,7.81 -3.13,15.62 -4.58,23.43 -1.46,7.91 -2.85,15.79 -4.22,23.67l-0.05 0.46 -0.09 -0.54c-1.3,-7.62 -2.55,-15.5 -3.8,-23.56l-0.85 -5.25 -4.71 -28.88c-1.53,-9.44 -3.09,-19.02 -4.66,-28.82 -1.52,-9.42 -3.03,-19.04 -4.56,-28.79 -1.46,-9.42 -2.97,-19 -4.43,-28.72 -1.45,-9.4 -2.86,-18.93 -4.3,-28.62 -1.37,-9.36 -2.74,-18.88 -4.08,-28.5 -1.3,-9.36 -2.59,-18.81 -3.89,-28.38 -1.25,-9.32 -2.47,-18.73 -3.68,-28.27 -1.18,-9.29 -2.34,-18.65 -3.48,-28.13 -1.09,-9.22 -2.17,-18.57 -3.22,-27.99 -1.02,-9.2 -2.01,-18.5 -2.98,-27.87 -0.94,-9.14 -1.85,-18.41 -2.74,-27.71 -0.86,-9.1 -1.68,-18.31 -2.47,-27.56 -0.78,-9.09 -1.53,-18.22 -2.23,-27.41 -0.68,-9.04 -1.36,-18.11 -1.99,-27.26l-0.11 -1.73c-0.54,-8.38 -1.05,-16.85 -1.52,-25.36 -0.51,-8.9 -0.97,-17.87 -1.4,-26.91 -0.42,-8.89 -0.79,-17.81 -1.14,-26.8 -0.33,-8.83 -0.63,-17.7 -0.89,-26.64 -0.23,-7.92 -0.42,-15.92 -0.55,-23.97l-0.03 -2.51c-0.16,-8.7 -0.24,-17.45 -0.3,-26.26 -0.05,-8.66 -0.07,-17.37 -0.04,-26.13 0.04,-8.62 0.12,-17.28 0.25,-25.98 0.12,-8.57 0.28,-17.17 0.5,-25.82 0.22,-8.53 0.46,-17.06 0.74,-25.67 0.32,-8.49 0.64,-17 1.05,-25.54 0.38,-8.4 0.79,-16.86 1.26,-25.36 0.47,-8.37 0.99,-16.77 1.54,-25.2 0.54,-8.34 1.17,-16.69 1.8,-25.1 0.62,-8.26 1.33,-16.57 2.05,-24.91 0.71,-8.21 1.49,-16.46 2.31,-24.76 0.8,-8.19 1.65,-16.38 2.56,-24.61 0.89,-8.15 1.81,-16.31 2.81,-24.49 0.97,-8.08 1.98,-16.19 3.07,-24.33 1.05,-8.03 2.13,-16.1 3.26,-24.19 1.15,-7.96 2.35,-15.99 3.57,-24.02 0.75,-4.93 1.54,-9.88 2.35,-14.84l1.45 -9.08c1.29,-7.91 2.6,-15.83 4.02,-23.76 1.36,-7.87 2.79,-15.72 4.27,-23.62 1.45,-7.8 2.95,-15.64 4.51,-23.48 1.54,-7.76 3.13,-15.53 4.75,-23.32 1.64,-7.72 3.3,-15.47 5.02,-23.2 1.69,-7.68 3.44,-15.36 5.21,-23.08 1.8,-7.62 3.62,-15.25 5.48,-22.92 1.86,-7.59 3.75,-15.17 5.69,-22.79l2.08 -7.97c1.23,-4.9 2.53,-9.79 3.84,-14.69 2,-7.52 4.08,-15.01 6.18,-22.5 2.11,-7.46 4.26,-14.9 6.47,-22.34 2.17,-7.41 4.43,-14.81 6.71,-22.18 2.28,-7.37 4.62,-14.7 6.99,-22.04 2.36,-7.29 4.78,-14.58 7.24,-21.87 2.46,-7.25 4.94,-14.51 7.52,-21.75 2.51,-7.21 5.1,-14.41 7.72,-21.6 2.62,-7.15 5.29,-14.3 7.97,-21.43 2.7,-7.14 5.44,-14.25 8.23,-21.32 2.77,-7.08 5.59,-14.15 8.45,-21.2 2.83,-7.01 5.73,-14.03 8.66,-21.02 2.94,-6.99 5.89,-13.96 8.9,-20.93 2.99,-6.96 6.03,-13.87 9.11,-20.8 1.64,-3.65 3.29,-7.34 4.94,-11.02 1.45,-3.22 2.9,-6.43 4.38,-9.64 3.13,-6.86 6.3,-13.72 9.53,-20.55 3.21,-6.82 6.47,-13.61 9.76,-20.41 3.26,-6.79 6.58,-13.57 9.93,-20.33 3.32,-6.72 6.7,-13.48 10.08,-20.2l4.58 -8.99 5.68 -11.12c3.47,-6.68 6.94,-13.35 10.47,-20.01 3.52,-6.65 7.06,-13.28 10.65,-19.89 3.58,-6.61 7.18,-13.21 10.83,-19.79 3.64,-6.57 7.32,-13.13 11.04,-19.67 3.71,-6.54 7.43,-13.05 11.23,-19.58 3.73,-6.5 7.52,-12.98 11.36,-19.47 3.8,-6.46 7.65,-12.92 11.53,-19.36 3.11,-5.18 6.24,-10.36 9.41,-15.53l2.28 -3.77c3.94,-6.4 7.87,-12.8 11.84,-19.19 3.97,-6.38 7.96,-12.76 11.99,-19.11 4.02,-6.35 8.07,-12.69 12.17,-19.02 4.07,-6.31 8.16,-12.63 12.3,-18.93 4.14,-6.28 8.27,-12.55 12.46,-18.83 4.18,-6.26 8.37,-12.5 12.59,-18.76 4.24,-6.23 8.46,-12.45 12.76,-18.66 4.27,-6.22 8.55,-12.4 12.88,-18.57 4.3,-6.22 8.63,-12.38 13,-18.54 4.35,-6.15 8.73,-12.3 13.13,-18.46 4.4,-6.12 8.83,-12.23 13.26,-18.35l6.74 -9.24 6.63 -9.06c4.46,-6.1 8.97,-12.18 13.48,-18.23 4.5,-6.08 9.04,-12.14 13.6,-18.18 4.54,-6.06 9.1,-12.08 13.67,-18.11 4.6,-6.04 9.21,-12.04 13.84,-18.06l15.24 -17.2 305.44 178.42 -305.44 -178.42 30.53 -34.38 132.46 77.37 0.02 -0.01 -132.48 -77.37 15.27 -17.2 45.86 26.79 -45.86 -26.79c151.83,-170.99 540.97,-608.43 630.99,-702.13l16.11 -16.7 8.44 -8.71 7.68 -7.98 16.04 -16.74 16.06 -16.73 16.04 -16.76 16.07 -16.73 12.01 -12.5 4.04 -4.23 16.07 -16.7 16.04 -16.78 16 -16.74 15.98 -16.8 15.98 -16.78 15.94 -16.8 15.92 -16.82 15.9 -16.82 15.84 -16.87 15.83 -16.85 15.78 -16.92 15.76 -16.92 15.71 -16.92 15.71 -16.97 15.61 -16.97 15.59 -16.99 15.56 -17.05 15.5 -17.05 6.35 -6.98 9.12 -10.11c5.14,-5.68 10.3,-11.39 15.41,-17.08l15.39 -17.15 15.32 -17.18 15.25 -17.18 15.21 -17.27 15.13 -17.25c5.03,-5.78 10.06,-11.53 15.06,-17.29 5.02,-5.8 10.03,-11.56 15.04,-17.36 4.99,-5.79 9.95,-11.57 14.94,-17.36 4.94,-5.81 9.94,-11.63 14.89,-17.44 4.94,-5.81 9.89,-11.61 14.82,-17.44 4.93,-5.84 9.86,-11.67 14.74,-17.51 4.91,-5.85 9.8,-11.68 14.69,-17.53 4.86,-5.87 9.77,-11.71 14.62,-17.59 4.86,-5.87 9.7,-11.73 14.54,-17.63 4.83,-5.87 9.64,-11.77 14.46,-17.65l3.33 -4.07c0.03,-0.23 0.12,-0.23 0.19,-0.32l10.81 -13.35 0.08 -0.11 0.16 -0.16 0.08 -0.12 0.12 -0.16 0.11 -0.12 0.12 -0.15 0.13 -0.15 0.08 -0.15 0.13 -0.16 0.11 -0.11 0.15 -0.16 0.08 -0.11 0.15 -0.17 0.08 -0.11 0.15 -0.2 0.07 -0.07 0.17 -0.23 0.04 -0.07 0.2 -0.23 0.03 -0.03 0.2 -0.28 0.04 -0.02 0.22 -0.27 0.23 -0.28 0.2 -0.28 0.02 -0.03 0.2 -0.26 0.05 -0.03 0.2 -0.24 0.04 -0.07 0.17 -0.22 0.04 -0.05 0.19 -0.21 0.05 -0.09 0.16 -0.19 0.09 -0.09 0.14 -0.19 0.2 -0.28 0.24 -0.27 0.21 -0.28 0.23 -0.28 0.24 -0.27 0.22 -0.28 0.21 -0.3 0.23 -0.27 6.24 -7.77 0.24 -0.28 0.45 -0.55 0.23 -0.27 0.22 -0.3 0.23 -0.24 0.22 -0.31 0.23 -0.26 0.21 -0.3 0.04 -0.04 0.19 -0.23 0.19 -0.24 0.04 -0.03 0.23 -0.27 0.11 -0.17 0.12 -0.13 0.2 -0.28 0.05 -0.05 0.19 -0.21 0.2 -0.27 0 -0.02 0.24 -0.3 0.14 -0.16 0.08 -0.1 0.21 -0.3 0.09 -0.08 0.14 -0.19 0.23 -0.27 0.01 -0.03 0.21 -0.26 0.15 -0.2 0.05 -0.07 0.23 -0.28 0.11 -0.11 0.12 -0.17 0.21 -0.28 0.03 -0.05 0.2 -0.21 0.19 -0.24 0.04 -0.04 0.21 -0.3 0.12 -0.13 0.1 -0.12 0.23 -0.3 0.05 -0.07 0.16 -0.21 0.23 -0.24 0 -0.04 0.24 -0.27 0.12 -0.17 0.08 -0.11 0.23 -0.28 0.07 -0.08 0.16 -0.19 0.2 -0.28 0.02 0 0.23 -0.28 0.16 -0.2 0.05 -0.07 0.23 -0.28 0.08 -0.11 0.12 -0.17 0.24 -0.27 0.03 -0.04 0.19 -0.24 0.19 -0.23 0.02 -0.04 0.26 -0.28 0.09 -0.16 0.39 -0.46 0.16 -0.23 0.23 -0.25 0 -0.03 0.23 -0.27 0.12 -0.19 0.1 -0.11 0.23 -0.26 0.07 -0.09 0.16 -0.19 0.21 -0.28 0.23 -0.27 0.16 -0.2 0.05 -0.08 0.24 -0.3 0.07 -0.11 0.14 -0.15 0.21 -0.3 0.04 0 0.19 -0.27 0.19 -0.23 0.03 -0.05 0.24 -0.28 0.11 -0.16 0.09 -0.14 0.24 -0.27 0.05 -0.05 0.16 -0.21 0.21 -0.28 0.23 -0.27 0.12 -0.19 0.09 -0.09 0.23 -0.28 0.05 -0.09 0.15 -0.19 0.24 -0.28 0.11 -0.15 0.12 -0.14 0.22 -0.28 0.13 -0.17 0.09 -0.11 0.22 -0.27 0.15 -0.19 0.07 -0.08 0.23 -0.28 0.17 -0.24 0.04 -0.04 0.21 -0.28 0.22 -0.25 0.01 -0.03 0.22 -0.27 0.23 -0.3 0.2 -0.27 0.24 -0.28 0.01 -0.03 0.2 -0.24 0.21 -0.28 0.07 -0.07 0.16 -0.2 0.21 -0.28 0.1 -0.11 0.13 -0.17 0.24 -0.28 0.07 -0.12 0.13 -0.16 0.23 -0.27 0.09 -0.16 0.12 -0.14 0.22 -0.27 0.15 -0.19 0.08 -0.11 0.21 -0.27 0.16 -0.22 0.05 -0.08 0.23 -0.25 0.23 -0.28 0.21 -0.26 0.23 -0.31 0.2 -0.27 0.24 -0.3 0.2 -0.27 0.23 -0.28 0.21 -0.28 0.23 -0.27 0.23 -0.28 0.21 -0.28 0.21 -0.3 0.23 -0.26 0.23 -0.3 0.2 -0.28 0.24 -0.27 0.2 -0.28 0.24 -0.28 0.22 -0.27 0.2 -0.27 0.24 -0.3 0.2 -0.27 0.24 -0.3 0.2 -0.27 0.21 -0.3 0.24 -0.26 0.23 -0.3 0.2 -0.27 0.21 -0.28 0.24 -0.28 0.2 -0.3 0.23 -0.25 1.1 -1.4 0.44 -0.56 0.08 -0.14 0.13 -0.15 0.67 -0.83 0.2 -0.3 0.08 -0.1 0.14 -0.16 0.24 -0.3 0.2 -0.28 0.15 -0.17 0.08 -0.12 0.22 -0.28 0.05 -0.05 1.7 -2.16 0.09 -0.11 0.14 -0.17 0.56 -0.74 0.11 -0.09 0.2 -0.3 0.07 -0.07 0.17 -0.2 0.19 -0.25 0.02 -0.04 0.21 -0.27 0.14 -0.15 0.09 -0.12 0.2 -0.3 0.05 -0.05 0.17 -0.21 0.2 -0.23 0.03 -0.07 0.23 -0.28 0.08 -0.09 0.13 -0.17 0.22 -0.28 0 -0.01 0.21 -0.26 0.15 -0.2 0.07 -0.08 0.23 -0.3 0.08 -0.08 0.14 -0.2 0.23 -0.24 -0.01 -0.01 0.23 -0.3 0.12 -0.16 0.08 -0.12 0.23 -0.27 0.05 -0.07 0.16 -0.23 0.19 -0.21 0.05 -0.07 0.2 -0.28 0.12 -0.11 0.11 -0.16 0.23 -0.28 0 -0.02 0.22 -0.27 0.15 -0.2 0.07 -0.07 0.23 -0.3 0.07 -0.09 0.15 -0.19 0.2 -0.25 0.02 0 0.23 -0.3 0.12 -0.17 0.08 -0.11 0.24 -0.28 0.02 -0.04 0.19 -0.23 0.19 -0.26 0.04 -0.04 0.2 -0.28 0.11 -0.13 0.11 -0.14 0.23 -0.28 0.01 -0.04 0.19 -0.24 0.17 -0.21 0.05 -0.08 0.22 -0.26 0.44 -0.58 0.15 -0.17 0.07 -0.09 0.22 -0.28 0.15 -0.2 0.08 -0.08 0.22 -0.3 0.13 -0.19 0.08 -0.07 0.24 -0.3 0.12 -0.17 0.08 -0.11 0.78 -1.01 0.09 -0.12 0.21 -0.26 0.12 -0.19 0.11 -0.11 0.21 -0.28 0.12 -0.17 0.08 -0.11 0.23 -0.3 0.12 -0.14 0.09 -0.12 0.23 -0.3 0.14 -0.14 0.09 -0.16 0.21 -0.26 0.11 -0.15 0.09 -0.14 0.24 -0.3 0.09 -0.13 0.11 -0.15 0.22 -0.26 0.24 -0.3 0.2 -0.3 0.23 -0.27 0.43 -0.55 0.22 -0.3 0.21 -0.27 3.49 -4.5 0.2 -0.3 0.67 -0.83 0.21 -0.28 0.23 -0.28 0.22 -0.27 0.43 -0.56 0.22 -0.28 0.23 -0.3 0.2 -0.27 0.22 -0.27 0.24 -0.28 0.2 -0.3 0.19 -0.24 0.03 -0.05 0.23 -0.26 0.12 -0.16 0.09 -0.14 0.22 -0.28 0.04 -0.04 0.17 -0.21 0.16 -0.24 0.07 -0.07 0.2 -0.27 0.11 -0.11 0.14 -0.19 0.2 -0.26 0.23 -0.31 0.12 -0.16 0.09 -0.11 0.2 -0.28 0.05 -0.05 0.19 -0.23 0.17 -0.24 0.03 -0.04 0.21 -0.3 0.09 -0.12 0.12 -0.13 0.21 -0.28 0.03 -0.03 0.2 -0.27 0.13 -0.19 0.07 -0.1 0.23 -0.3 0.08 -0.07 0.15 -0.19 0.17 -0.28 0.04 -0.02 0.21 -0.28 0.11 -0.14 0.32 -0.43 0.02 -0.04 0.17 -0.23 0.19 -0.21 0.03 -0.07 0.23 -0.28 0.08 -0.12 0.14 -0.16 0.21 -0.28 0 -0.02 0.23 -0.25 0.15 -0.19 0.07 -0.11 0.22 -0.28 0.04 -0.08 0.16 -0.2 0.19 -0.24 0.04 -0.03 0.22 -0.28 0.11 -0.15 0.12 -0.13 0.2 -0.3 0.04 -0.03 0.03 -0.04 0.38 -0.48 0.21 -0.3 0.08 -0.09 0.13 -0.19 0.22 -0.27 0.21 -0.28 0.12 -0.17 0.11 -0.12 0.2 -0.28 0.05 -0.04 0.17 -0.23 0.17 -0.24 0.04 -0.04 0.23 -0.28 0.08 -0.12 0.12 -0.17 0.22 -0.27 0.01 -0.03 0.2 -0.26 0.14 -0.19 0.09 -0.12 0.21 -0.27 0.07 -0.07 0.13 -0.2 0.02 -0.04 0.43 -0.52 0.11 -0.16 0.09 -0.14 0.23 -0.27 0.04 -0.04 0.16 -0.24 0.17 -0.21 0.07 -0.04 0.21 -0.3 0.08 -0.13 0.12 -0.16 0.22 -0.28 0.2 -0.28 0.15 -0.16 0.09 -0.14 0.21 -0.27 0.11 -0.11 0.11 -0.17 0.22 -0.28 0.44 -0.57 0.03 -0.07 0.17 -0.21 0.21 -0.28 0.03 -0.03 0.19 -0.27 0.22 -0.26 0 -0.01 0.23 -0.28 0.2 -0.24 0 -0.04 0.2 -0.3 0.19 -0.19 0.05 -0.08 0.2 -0.28 0.15 -0.17 0.07 -0.11 0.08 -0.09 0.13 -0.19 0.03 -0.03 0.17 -0.21 0.02 -0.04 0.12 -0.16 0.12 -0.11 0.2 -0.3 0.04 -0.02 0.14 -0.2 0.05 -0.05 0.11 -0.15 0.09 -0.14 0.08 -0.07 0.14 -0.21 0.16 -0.22 0.07 -0.07 0.2 -0.28 0.07 -0.05 0.16 -0.23 0 -0.02 0.15 -0.2 0.05 -0.07 0.12 -0.14 0.09 -0.15 0.05 -0.05 0.31 -0.42 0.07 -0.09 0.11 -0.12 0.09 -0.16 0.07 -0.04 0.15 -0.2 0.03 -0.05 0.14 -0.16 0.09 -0.12 0.08 -0.09 0.12 -0.17 0.19 -0.23 0.02 -0.07 0.12 -0.16 0.09 -0.12 0.09 -0.09 0.31 -0.42 0.04 -0.04 0.12 -0.17 0.1 -0.12 0.07 -0.08 0.15 -0.2 0.01 0 0.63 -0.85 0.16 -0.2 0.07 -0.07 0.08 -0.15 0.12 -0.13 0.04 -0.08 0.17 -0.2 0.31 -0.42 0.12 -0.16 0.04 -0.05 0.16 -0.2 0.02 0 0.14 -0.24 0.07 -0.05 0.08 -0.12 0.12 -0.17 0.05 -0.03 0.15 -0.21 0.24 -0.33 0.07 -0.1 0.16 -0.17 0.02 -0.02 0.16 -0.23 0.03 -0.03 0.12 -0.17 0.09 -0.11 0.08 -0.09 0.14 -0.2 0.01 0.03 0.15 -0.26 0.04 -0.04 0.13 -0.16 0.08 -0.12 0.08 -0.09 0.15 -0.19 0 -0.02 0.17 -0.21 0.03 -0.07 0.13 -0.14 0.11 -0.14 0.04 -0.08 0.16 -0.2 0.2 -0.3 0.09 -0.1 0.56 -0.75 0.19 -0.23 0.02 -0.05 0.23 -0.3 0.09 -0.15 0.11 -0.15 0.21 -0.26 0.05 -0.09 0.16 -0.2 0.21 -0.27 0.03 0 0.19 -0.26 0.17 -0.25 0.04 -0.07 0.2 -0.27 0.12 -0.15 0.09 -0.14 0.21 -0.28 0.07 -0.08 0.16 -0.2 0.22 -0.3 0.2 -0.28 0.17 -0.21 0.04 -0.07 0.23 -0.28 0.08 -0.15 0.12 -0.13 0.22 -0.28 0.05 -0.05 0.17 -0.21 0.2 -0.28 0.02 -0.01 0.2 -0.28 0.15 -0.2 0.05 -0.08 0.24 -0.28 0.08 -0.14 0.12 -0.16 0.21 -0.27 0.04 -0.07 0.17 -0.21 0.2 -0.26 0.02 -0.05 0.2 -0.25 0.15 -0.2 0.08 -0.08 0.2 -0.3 0.1 -0.11 0.15 -0.17 0.2 -0.28 0.03 -0.05 0.16 -0.24 0.19 -0.24 0.04 -0.03 0.21 -0.28 0.15 -0.19 0.08 -0.11 0.42 -0.55 0.21 -0.3 0.02 -0.03 0.2 -0.26 0.19 -0.24 0.02 -0.03 0.23 -0.28 0.12 -0.17 0.08 -0.12 0.23 -0.3 0.07 -0.09 0.14 -0.19 0.2 -0.27 0.04 -0.04 0.19 -0.26 0.16 -0.23 0.07 -0.05 0.22 -0.3 0.11 -0.15 0.11 -0.12 0.2 -0.28 0.07 -0.08 0.15 -0.21 0.2 -0.28 0.03 0 0.19 -0.27 0.17 -0.23 0.05 -0.07 0.2 -0.28 0.12 -0.14 0.1 -0.15 0.21 -0.3 0.05 -0.07 0.16 -0.2 0.22 -0.28 0.17 -0.23 0.04 -0.05 0.2 -0.31 0.13 -0.13 0.62 -0.83 0.12 -0.15 0.08 -0.12 0.11 -0.16 0.11 -0.11 0.12 -0.17 0.07 -0.09 0.12 -0.19 0.1 -0.11 0.19 -0.27 0.17 -0.2 0.05 -0.05 0.19 -0.28 0.16 -0.21 0.05 -0.05 0.38 -0.52 0.04 -0.04 0.17 -0.23 0.03 -0.02 0.2 -0.28 0.2 -0.27 0.02 -0.02 0.17 -0.27 0.04 -0.03 0.39 -0.52 0.02 -0.03 0.17 -0.24 0.21 -0.27 0.04 -0.07 0.24 -0.3 0.12 -0.16 0.08 -0.11 0.12 -0.17 0.08 -0.11 0.13 -0.17 0.09 -0.12 0.1 -0.16 0.11 -0.12 0.11 -0.14 0.11 -0.15 0.09 -0.13 0.11 -0.16 0.09 -0.09 0.2 -0.26 0.12 -0.2 0.09 -0.11 0.14 -0.19 0.07 -0.07 0.13 -0.19 0.07 -0.1 0.16 -0.2 0.03 -0.07 0.19 -0.23 0.04 -0.05 0.19 -0.23 0 -0.04 0.17 -0.25 0.03 -0.02 0.19 -0.25 0.03 -0.04 0.19 -0.23 0.01 -0.03 0.2 -0.28 0.22 -0.27 -0.02 -0.02 0.22 -0.24 0.02 -0.05 0.16 -0.21 0.03 -0.05 0.19 -0.21 0.04 -0.07 0.16 -0.23 0.03 -0.05 0.17 -0.22 0.05 -0.08 0.13 -0.2 0.05 -0.1 0.17 -0.16 0.07 -0.11 0.13 -0.17 0.07 -0.12 0.12 -0.15 0.09 -0.12 0.12 -0.16 0.09 -0.14 0.11 -0.15 0.11 -0.14 0.07 -0.12 0.13 -0.16 0.1 -0.12 0.12 -0.16 0.09 -0.11 0.12 -0.19 0.05 -0.09 0.16 -0.2 0.07 -0.05 0.15 -0.2 0.07 -0.08 0.14 -0.21 0.04 -0.07 0.17 -0.22 0.04 -0.04 0.16 -0.24 0.03 -0.04 0.2 -0.24 0.01 -0.03 0.2 -0.25 0 -0.02 0.2 -0.27 0.21 -0.3 0.09 -0.12 0.12 -0.17 0.21 -0.26 0.03 -0.07 0.16 -0.23 0.22 -0.27 0 -0.03 0.21 -0.28 0.12 -0.16 0.12 -0.11 0.17 -0.32 0.08 -0.03 0.15 -0.23 0.19 -0.27 0.04 -0.03 0.32 -0.45 0.08 -0.12 0.21 -0.27 0.08 -0.09 0.13 -0.19 0.2 -0.3 0.03 0 0.19 -0.27 0.16 -0.23 0.05 -0.08 0.23 -0.27 0.07 -0.12 0.15 -0.17 0.19 -0.28 0.04 -0.03 0.19 -0.26 0.16 -0.24 0.04 -0.01 0.21 -0.31 0.1 -0.16 0.12 -0.12 0.2 -0.3 0.04 -0.05 0.15 -0.2 0.21 -0.28 0.02 -0.03 0.21 -0.27 0.14 -0.19 0.09 -0.12 0.2 -0.28 0.07 -0.1 0.14 -0.19 0.2 -0.3 0.23 -0.28 0.15 -0.2 0.05 -0.08 0.23 -0.28 0.08 -0.11 0.12 -0.19 0.21 -0.27 0.03 -0.04 0.19 -0.24 0.15 -0.26 0.05 -0.02 0.2 -0.31 0.12 -0.12 0.11 -0.14 0.2 -0.3 0.03 -0.05 0.16 -0.23 0.2 -0.26 0.04 -0.04 0.2 -0.28 0.12 -0.19 0.08 -0.11 0.23 -0.27 0.05 -0.08 0.15 -0.2 0.22 -0.3 0.21 -0.3 0.2 -0.28 0.23 -0.28 0.2 -0.28 0.2 -0.3 0.2 -0.27 0.23 -0.28 0.2 -0.3 0.23 -0.27 0.19 -0.3 0.2 -0.3 0.21 -0.28 0.23 -0.27 0.2 -0.3 0.21 -0.3 0.03 -0.04 0.19 -0.23 0.08 -0.13 0.12 -0.17 0.43 -0.55 0 -0.01 0.2 -0.28 0.07 -0.09 0.16 -0.19 0.12 -0.17 0.07 -0.12 0.22 -0.24 0 -0.02 0.43 -0.59 0.1 -0.13 0.11 -0.15 0.16 -0.23 0.04 -0.07 0.21 -0.27 0.02 -0.04 0.19 -0.26 0.11 -0.11 0.12 -0.17 0.14 -0.2 0.07 -0.09 0.19 -0.28 0.07 -0.04 1.57 -2.16 0.07 -0.08 0.21 -0.3 0.2 -0.28 0.33 -0.45 0.08 -0.1 0.2 -0.28 0.01 -0.03 0.22 -0.27 0.03 -0.08 0.28 -0.35 0.11 -0.16 0.71 -0.97 0.12 -0.17 0.16 -0.2 0.05 -0.08 0.2 -0.27 0.01 0 0.2 -0.27 0.05 -0.12 0.15 -0.19 0.4 -0.54 0.01 -0.04 0.23 -0.28 0.01 -0.04 0.39 -0.54 0.16 -0.21 0.04 -0.05 0.63 -0.86 0.15 -0.19 0.07 -0.11 0.19 -0.28 0.01 0 0.22 -0.3 0.05 -0.05 0.16 -0.23 0.09 -0.14 0.12 -0.15 0.16 -0.25 0.03 -0.03 0.21 -0.3 0.03 -0.04 0.19 -0.24 0.08 -0.12 0.12 -0.17 0.15 -0.22 0.07 -0.05 0.2 -0.3 0.2 -0.28 0.07 -0.11 0.16 -0.19 0.12 -0.17 0.08 -0.11 0.46 -0.63 0.33 -0.47 0.34 -0.45 0.33 -0.48 0.35 -0.46 8.85 -12.19 2.65 -3.69 0.13 -0.16 0.08 -0.11 0.14 -0.23 0.07 -0.07 0.17 -0.25 0.04 -0.03 0.19 -0.28 0.01 -0.01 0.19 -0.3 0.02 0 0.23 -0.3 0.02 -0.04 0.16 -0.23 0.08 -0.09 0.14 -0.19 0.08 -0.14 0.11 -0.16 0.12 -0.16 0.09 -0.12 0.14 -0.2 0.07 -0.09 0.17 -0.23 0.03 -0.04 0.2 -0.27 0.01 -0.04 0.22 -0.27 0.01 -0.03 0.17 -0.27 0.04 -0.05 0.17 -0.23 0.05 -0.09 0.16 -0.21 0.08 -0.08 0.12 -0.2 0.11 -0.14 0.12 -0.15 0.12 -0.17 0.07 -0.09 0.15 -0.23 0.07 -0.08 0.16 -0.24 0.04 -0.04 0.2 -0.28 0.21 -0.3 0.02 -0.04 0.17 -0.24 0.07 -0.07 0.16 -0.21 0.07 -0.12 0.13 -0.16 0.11 -0.15 0.08 -0.15 0.11 -0.17 0.11 -0.11 0.15 -0.22 0.07 -0.09 0.17 -0.23 0.02 -0.05 0.64 -0.86 0.02 -0.07 0.17 -0.21 0.04 -0.1 0.16 -0.2 0.08 -0.12 0.12 -0.16 0.12 -0.16 0.08 -0.11 0.16 -0.22 0.05 -0.09 0.16 -0.23 0.04 -0.05 0.19 -0.27 0.02 -0.03 0.2 -0.28 0.23 -0.3 0.02 -0.03 0.19 -0.24 0.05 -0.08 0.15 -0.22 0.08 -0.09 0.13 -0.2 0.1 -0.15 0.09 -0.15 0.13 -0.16 0.08 -0.12 0.15 -0.22 0.07 -0.07 0.16 -0.26 0.03 -0.04 0.2 -0.27 0.01 0 0.19 -0.3 0.04 -0.04 0.19 -0.25 0.02 -0.07 0.17 -0.21 0.05 -0.09 0.15 -0.19 0.09 -0.13 0.12 -0.17 0.12 -0.15 0.08 -0.15 0.12 -0.16 0.09 -0.11 0.16 -0.23 0.04 -0.05 0.2 -0.3 0.2 -0.3 0.2 -0.28 0.2 -0.3 0.22 -0.26 0.04 -0.08 0.16 -0.23 0.07 -0.1 0.15 -0.2 0.2 -0.28 0.08 -0.14 0.12 -0.16 0.12 -0.15 0.08 -0.14 0.15 -0.19 0.07 -0.12 0.13 -0.22 0.05 -0.07 0.16 -0.21 0.05 -0.05 0.19 -0.27 0 -0.02 0.21 -0.27 0 -0.03 0.22 -0.3 0 -0.01 0.21 -0.27 0.03 -0.03 0.17 -0.27 0.03 -0.05 0.17 -0.24 0.05 -0.07 0.16 -0.2 0.04 -0.11 0.16 -0.19 0.08 -0.12 0.11 -0.17 0.12 -0.14 0.08 -0.16 0.14 -0.17 0.09 -0.09 0.14 -0.2 0.07 -0.11 0.14 -0.21 0.07 -0.05 0.16 -0.26 0.04 -0.04 0.19 -0.27 0.02 -0.02 0.21 -0.27 0.19 -0.31 0.04 -0.03 0.17 -0.27 0.03 -0.04 0.17 -0.26 0.02 -0.07 0.17 -0.2 0.07 -0.09 0.13 -0.2 0.08 -0.12 0.15 -0.17 0.09 -0.14 0.1 -0.16 0.11 -0.16 0.08 -0.12 0.15 -0.19 0.07 -0.07 0.15 -0.24 0.05 -0.08 0.16 -0.24 0.03 -0.05 0.2 -0.24 0.02 -0.03 0.2 -0.3 0.02 0 0.19 -0.3 0.02 -0.02 0.19 -0.27 0.04 -0.04 0.16 -0.26 0.05 -0.05 0.17 -0.21 0.05 -0.12 0.13 -0.2 0.08 -0.11 0.12 -0.16 0.09 -0.14 0.14 -0.16 0.08 -0.15 0.11 -0.15 0.14 -0.17 0.07 -0.11 0.14 -0.19 0.07 -0.11 0.16 -0.21 0.04 -0.07 0.19 -0.25 0.02 -0.04 0.2 -0.25 0.01 0 0.21 -0.31 0 -0.02 0.19 -0.28 0.03 -0.03 0.19 -0.26 0.04 -0.05 0.15 -0.24 0.05 -0.08 0.16 -0.2 0.08 -0.11 0.12 -0.17 0.08 -0.14 0.12 -0.16 0.11 -0.15 0.12 -0.15 0.12 -0.17 0.07 -0.09 0.14 -0.23 0.07 -0.08 0.16 -0.21 0.04 -0.08 0.17 -0.23 0.03 -0.07 0.2 -0.26 0 -0.03 0.22 -0.27 0.19 -0.3 0.04 -0.03 0.19 -0.27 0.11 -0.16 0.27 -0.42 0.04 -0.01 0.17 -0.28 0.14 -0.16 0.08 -0.13 0.4 -0.56 0.11 -0.16 0.11 -0.13 0.19 -0.28 0.02 -0.02 0.17 -0.28 0.12 -0.16 0.09 -0.12 0.21 -0.3 -0.01 0 0.2 -0.3 0.12 -0.15 0.09 -0.15 0.2 -0.27 0.01 0 0.2 -0.3 0.09 -0.16 0.1 -0.12 0.2 -0.31 0.23 -0.28 0.08 -0.15 0.11 -0.11 0.19 -0.32 0.23 -0.28 0.08 -0.15 0.11 -0.15 0.22 -0.27 -0.02 -0.01 0.22 -0.3 0.09 -0.14 0.11 -0.15 0.19 -0.3 0.2 -0.3 0.2 -0.27 0.21 -0.31 0.21 -0.28 0.19 -0.3 0.19 -0.28 0.23 -0.31 0.19 -0.3 0.2 -0.28 0.23 -0.27 0.19 -0.3 0.2 -0.3 1.63 -2.32 0.2 -0.28 0.59 -0.87 0.21 -0.31 0.4 -0.58 0.2 -0.27 0.17 -0.32 0.23 -0.26 0.21 -0.31 0.19 -0.28 0.22 -0.3 0.19 -0.3 0.22 -0.28 0.19 -0.27 0.23 -0.3 0.04 -0.09 0.15 -0.22 0.14 -0.21 0.05 -0.07 0.21 -0.3 0.04 -0.04 0.17 -0.24 0.11 -0.19 0.08 -0.11 0.19 -0.3 0.02 -0.02 0.21 -0.27 0.08 -0.16 0.11 -0.12 0.19 -0.28 0.03 -0.02 0.19 -0.3 0.07 -0.11 0.12 -0.17 0.16 -0.24 0.05 -0.07 0.21 -0.3 0.04 -0.07 0.15 -0.22 0.12 -0.19 0.08 -0.11 0.2 -0.27 0.02 -0.04 0.19 -0.26 0.11 -0.19 0.11 -0.1 0.17 -0.28 0.02 -0.03 0.2 -0.3 0.07 -0.11 0.12 -0.17 0.19 -0.24 0.02 -0.05 0.21 -0.28 0.03 -0.09 0.16 -0.2 0.15 -0.2 0.05 -0.11 0.2 -0.27 0.03 -0.05 0.19 -0.24 0.13 -0.17 0.05 -0.12 0.2 -0.28 0.01 -0.02 0.17 -0.27 0.12 -0.13 0.1 -0.16 0.19 -0.26 0.03 -0.05 0.19 -0.28 0.08 -0.09 0.11 -0.2 0.17 -0.23 0.04 -0.07 0.21 -0.28 0.04 -0.05 0.15 -0.23 0.12 -0.19 0.07 -0.12 0.22 -0.3 0.03 0 0.17 -0.27 0.11 -0.15 0.09 -0.15 0.19 -0.28 0 -0.02 0.21 -0.27 0.08 -0.15 0.13 -0.15 0.15 -0.27 0.02 -0.03 0.2 -0.28 0.07 -0.09 0.15 -0.21 0.13 -0.2 0.07 -0.09 0.2 -0.28 0.03 -0.07 0.16 -0.23 0.42 -0.59 0 -0.02 0.19 -0.28 0.11 -0.12 0.11 -0.15 0.2 -0.3 0.19 -0.28 0.21 -0.3 0.19 -0.3 0.2 -0.28 0.2 -0.31 0.2 -0.3 0.19 -0.3 0.19 -0.28 0.19 -0.23 0.04 -0.04 0.19 -0.28 0.01 -0.03 0.19 -0.28 0.04 -0.03 0.16 -0.25 0.05 -0.08 0.16 -0.23 0.07 -0.11 0.12 -0.19 0.12 -0.16 0.07 -0.14 0.16 -0.2 0.04 -0.08 0.19 -0.25 0.03 -0.04 0.21 -0.27 0.19 -0.3 0 -0.05 0.19 -0.24 0.07 -0.09 0.15 -0.22 0.08 -0.12 0.12 -0.16 0.12 -0.17 0.04 -0.09 0.16 -0.24 0.05 -0.08 0.19 -0.27 0.04 0 0.19 -0.31 0.02 0 0.17 -0.28 0.05 -0.05 0.15 -0.24 0.07 -0.11 0.15 -0.2 0.08 -0.14 0.11 -0.14 0.14 -0.19 0.07 -0.11 0.16 -0.24 0.04 -0.05 0.19 -0.28 0.03 0 0.19 -0.3 0.01 -0.02 0.17 -0.27 0.05 -0.07 0.16 -0.24 0.07 -0.09 0.12 -0.19 0.12 -0.15 0.08 -0.15 0.15 -0.2 0.07 -0.09 0.16 -0.23 0.03 -0.04 0.2 -0.28 0.2 -0.3 0.02 -0.05 0.19 -0.24 0.05 -0.08 0.14 -0.23 0.08 -0.11 0.12 -0.16 0.12 -0.19 0.11 -0.12 0.35 -0.54 0.02 -0.05 0.21 -0.28 -0.01 -0.02 0.2 -0.28 0.04 -0.05 0.16 -0.23 0.08 -0.11 0.14 -0.17 0.09 -0.19 0.31 -0.42 0.15 -0.2 0.04 -0.09 0.16 -0.26 0.04 -0.03 0.19 -0.3 0.24 -0.35 0.16 -0.24 0.08 -0.11 0.12 -0.17 0.13 -0.15 0.08 -0.16 0.09 -0.16 0.08 -0.09 0.17 -0.26 0.03 -0.04 0.17 -0.28 0.04 -0.03 0.2 -0.28 0 -0.03 0.19 -0.27 0.19 -0.3 0.09 -0.12 0.1 -0.17 0.13 -0.16 0.09 -0.12 0.12 -0.21 0.07 -0.08 0.17 -0.26 0.01 -0.04 0.19 -0.3 0.23 -0.28 0.03 -0.05 0.16 -0.24 0.19 -0.3 0.2 -0.3 0 0 0.21 -0.3 0.07 -0.11 0.12 -0.17 0.59 -0.89 0.11 -0.14 0.09 -0.16 0.19 -0.24 0.02 -0.05 0.23 -0.37 0.16 -0.22 0.42 -0.56 0 -0.03 0.14 -0.21 0.05 -0.04 0.11 -0.17 0.1 -0.12 0.07 -0.11 0.14 -0.2 0.01 -0.04 0.15 -0.21 0.03 -0.03 0.14 -0.19 0.07 -0.11 0.08 -0.12 0.11 -0.17 0.05 -0.04 0.14 -0.23 0.01 -0.03 0.15 -0.2 0.07 -0.09 0.08 -0.14 0.11 -0.16 0.05 -0.05 0.13 -0.23 0.15 -0.23 0.07 -0.07 0.09 -0.15 0.11 -0.15 0.04 -0.07 0.15 -0.22 0.01 -0.01 0.14 -0.24 0.04 -0.04 0.12 -0.17 0.08 -0.11 0.07 -0.11 0.12 -0.19 0.03 -0.05 0.16 -0.22 0.03 -0.04 0.12 -0.17 0.07 -0.12 0.1 -0.11 0.11 -0.17 0.03 -0.05 0.15 -0.23 0.03 -0.01 0.14 -0.2 0.05 -0.09 0.09 -0.14 0.11 -0.17 0.04 -0.04 0.16 -0.24 0.15 -0.22 0.05 -0.07 0.11 -0.16 0.07 -0.15 0.08 -0.1 0.14 -0.19 0.01 -0.03 0.15 -0.21 0.04 -0.05 0.1 -0.16 0.09 -0.13 0.08 -0.09 0.13 -0.19 0.03 -0.04 0.15 -0.23 0.02 -0.03 0.12 -0.19 0.08 -0.11 0.08 -0.12 0.12 -0.17 0.02 -0.05 0.17 -0.21 -0.02 -0.03 0.15 -0.2 0.07 -0.09 0.09 -0.12 0.09 -0.16 0.05 -0.05 0.15 -0.24 0.15 -0.23 0.04 -0.08 0.12 -0.15 0.08 -0.13 0.05 -0.09 0.14 -0.2 0.03 -0.02 0.15 -0.24 0.03 -0.04 0.12 -0.16 0.09 -0.15 0.07 -0.07 0.12 -0.2 0.02 -0.03 0.17 -0.24 0.01 -0.05 0.12 -0.16 0.07 -0.11 0.09 -0.11 0.11 -0.17 0.04 -0.07 0.14 -0.23 0.02 0 0.14 -0.21 0.05 -0.08 0.09 -0.14 0.09 -0.16 0.05 -0.07 0.15 -0.23 0.09 -0.14 0.1 -0.16 0.17 -0.24 0.01 -0.04 0.21 -0.31 0.04 -0.04 0.16 -0.26 0.11 -0.13 0.09 -0.16 0.16 -0.23 0.04 -0.07 0.2 -0.27 0.03 -0.07 0.16 -0.23 0.08 -0.16 0.12 -0.13 0.16 -0.26 0.01 -0.04 0.23 -0.3 0.01 -0.05 0.15 -0.27 0.11 -0.12 0.11 -0.15 0.17 -0.25 0.01 -0.03 0.2 -0.3 0.04 -0.07 0.17 -0.24 0.08 -0.16 0.11 -0.14 0.15 -0.23 0.04 -0.07 0.2 -0.28 0.04 -0.05 0.15 -0.24 0.11 -0.15 0.11 -0.15 0.15 -0.23 0.03 -0.07 0.2 -0.3 0.05 -0.05 0.15 -0.24 0.11 -0.15 0.08 -0.15 0.17 -0.24 0.05 -0.04 0.17 -0.28 0.03 -0.07 0.16 -0.23 0.11 -0.17 0.08 -0.12 0.17 -0.28 0.03 -0.02 0.21 -0.31 0.04 -0.05 0.16 -0.23 0.09 -0.17 0.08 -0.14 0.17 -0.23 0.01 -0.05 0.2 -0.3 0.05 -0.05 0.13 -0.24 0.11 -0.17 0.11 -0.12 0.17 -0.31 0.21 -0.28 0.21 -0.28 0.16 -0.28 0.2 -0.32 0.2 -0.27 0.2 -0.32 0.17 -0.27 0.21 -0.31 0.17 -0.28 0.2 -0.28 0.2 -0.3 0.19 -0.31 0.19 -0.3 0.22 -0.31 0.19 -0.28 0.2 -0.3 0.2 -0.3 0.19 -0.3 0.2 -0.3 0.19 -0.3 0.19 -0.3 0.2 -0.3 0.23 -0.28 0.15 -0.28 0.23 -0.28 0.19 -0.31 0.19 -0.3 0.19 -0.3 0.07 -0.11 0.12 -0.19 0.14 -0.19 0.05 -0.11 0.2 -0.27 0.01 -0.03 0.19 -0.28 0.05 -0.08 0.14 -0.23 0.12 -0.16 0.08 -0.12 0.16 -0.24 0.05 -0.08 0.17 -0.28 0.04 -0.03 0.17 -0.27 0.07 -0.09 0.12 -0.2 0.12 -0.2 0.07 -0.08 0.17 -0.31 0.03 0 0.19 -0.3 0.04 -0.08 0.15 -0.23 0.12 -0.14 0.08 -0.15 0.16 -0.23 0.03 -0.07 0.19 -0.3 0.05 -0.03 0.15 -0.27 0.08 -0.12 0.11 -0.17 0.15 -0.2 0.05 -0.09 0.2 -0.31 0.97 -1.44 0.04 -0.07 0.5 -0.76 0.05 -0.07 0.19 -0.3 0.02 -0.01 0.17 -0.28 0.08 -0.09 0.11 -0.19 0.14 -0.19 0.64 -1.01 0.12 -0.15 0.08 -0.15 0.17 -0.23 0.01 -0.07 0.19 -0.3 0.05 -0.03 0.14 -0.27 0.09 -0.12 0.51 -0.76 0.19 -0.27 0.05 -0.09 0.73 -1.11 0.01 -0.03 0.74 -1.14 0.2 -0.3 0.1 -0.11 0.12 -0.17 0.37 -0.59 0.17 -0.3 0.23 -0.3 0.17 -0.3 0.2 -0.3 0.17 -0.3 0.2 -0.3 0.09 -0.13 0.11 -0.17 0.11 -0.16 0.1 -0.13 0.12 -0.2 0.07 -0.09 0.36 -0.58 0.02 -0.01 0.4 -0.59 0.04 -0.07 0.15 -0.23 0.19 -0.28 0.09 -0.15 0.09 -0.15 0.12 -0.2 0.08 -0.1 0.15 -0.24 0.03 -0.05 0.19 -0.25 0 -0.04 0.2 -0.3 0.03 -0.03 0.16 -0.28 0.05 -0.05 0.15 -0.24 0.05 -0.11 0.14 -0.2 0.11 -0.11 0.08 -0.17 0.14 -0.16 0.08 -0.15 0.13 -0.19 0.04 -0.09 0.16 -0.26 0.23 -0.33 0.19 -0.27 0.02 -0.07 0.17 -0.24 0.07 -0.09 0.14 -0.2 0.07 -0.15 0.11 -0.15 0.12 -0.17 0.09 -0.13 0.13 -0.17 0.05 -0.12 0.15 -0.24 0.05 -0.04 0.17 -0.3 0.02 0 0.19 -0.3 0.03 -0.03 0.17 -0.28 0.03 -0.05 0.16 -0.24 0.07 -0.09 0.12 -0.19 0.09 -0.16 0.11 -0.15 0.11 -0.19 0.08 -0.11 0.12 -0.22 0.07 -0.08 0.17 -0.27 0 -0.04 0.2 -0.28 0.02 -0.01 0.19 -0.28 0.05 -0.07 0.14 -0.23 0.05 -0.09 0.14 -0.2 0.08 -0.12 0.11 -0.17 0.11 -0.19 0.08 -0.11 0.15 -0.2 0.07 -0.11 0.14 -0.25 0.05 -0.04 0.17 -0.28 0.01 -0.02 0.19 -0.28 0.02 -0.04 0.16 -0.25 0.04 -0.08 0.16 -0.22 0.05 -0.12 0.12 -0.19 0.11 -0.14 0.1 -0.17 0.13 -0.17 0.05 -0.11 0.15 -0.23 0.05 -0.08 0.17 -0.27 0 -0.03 0.2 -0.27 0.01 -0.03 0.17 -0.28 0.04 -0.05 0.16 -0.24 0.07 -0.11 0.12 -0.19 0.08 -0.13 0.11 -0.16 0.12 -0.19 0.07 -0.11 0.14 -0.21 0.05 -0.08 0.17 -0.26 0.03 -0.03 0.19 -0.31 0.2 -0.3 0.01 -0.05 0.17 -0.26 0.07 -0.11 0.12 -0.19 0.12 -0.19 0.05 -0.11 0.17 -0.26 0.01 -0.04 0.2 -0.3 0.03 -0.04 0.16 -0.25 0.08 -0.12 0.12 -0.17 0.03 -0.09 0.16 -0.2 0.03 -0.03 0.16 -0.27 0 -0.01 0.17 -0.26 0.03 -0.03 0.14 -0.23 0.05 -0.08 0.11 -0.19 0.07 -0.11 0.11 -0.15 0.11 -0.15 0.08 -0.12 0.09 -0.17 0.07 -0.09 0.12 -0.2 0.05 -0.05 0.15 -0.24 0.02 -0.03 0.16 -0.27 0.02 0 0.17 -0.26 0.02 -0.07 0.16 -0.2 0.03 -0.08 0.12 -0.16 0.08 -0.14 0.09 -0.15 0.1 -0.15 0.08 -0.11 0.11 -0.19 0.05 -0.09 0.14 -0.2 0.19 -0.3 0.01 -0.03 0.16 -0.26 0.01 -0.01 0.2 -0.28 0.14 -0.23 0.07 -0.07 0.09 -0.19 0.1 -0.14 0.08 -0.12 0.11 -0.17 0.05 -0.11 0.13 -0.19 0.04 -0.05 0.13 -0.23 0.03 -0.05 0.17 -0.24 -0.01 -0.01 0.17 -0.26 0.03 -0.01 0.15 -0.26 0.05 -0.05 0.11 -0.21 0.08 -0.08 0.11 -0.17 0.08 -0.14 0.07 -0.13 0.11 -0.16 0.07 -0.09 0.13 -0.2 0.05 -0.07 0.12 -0.23 0.02 -0.03 0.17 -0.25 0.01 -0.03 0.17 -0.26 0.01 -0.04 0.15 -0.22 0.02 -0.08 0.15 -0.2 0.07 -0.1 0.19 -0.3 0.07 -0.11 0.12 -0.2 0.04 -0.08 0.15 -0.21 0.04 -0.05 0.14 -0.24 0.01 -0.02 0.19 -0.26 -0.02 -0.03 0.17 -0.24 0.05 -0.05 0.11 -0.21 0.07 -0.09 0.12 -0.15 0.07 -0.15 0.19 -0.3 0.05 -0.1 0.12 -0.19 0.05 -0.08 0.13 -0.21 0.05 -0.04 0.15 -0.26 -0.03 -0.02 0.2 -0.25 0.02 -0.04 0.16 -0.23 0.04 -0.08 0.12 -0.19 0.05 -0.09 0.13 -0.16 0.05 -0.14 0.09 -0.14 0.11 -0.16 0.05 -0.11 0.13 -0.19 0.04 -0.04 0.15 -0.25 0.03 -0.04 0.15 -0.25 0.09 -0.14 0.09 -0.16 0.12 -0.19 0.08 -0.12 0.15 -0.24 0.05 -0.05 0.19 -0.31 0.17 -0.31 0.04 -0.07 0.15 -0.2 0.08 -0.14 0.11 -0.17 0.12 -0.19 0.07 -0.11 0.17 -0.27 0.03 -0.04 0.19 -0.3 0.01 -0.01 0.17 -0.28 0.05 -0.09 0.14 -0.2 0.09 -0.13 0.09 -0.17 0.14 -0.19 0.05 -0.11 0.19 -0.27 -0.02 -0.01 0.2 -0.3 0.04 -0.07 0.15 -0.23 0.05 -0.12 0.15 -0.17 0.09 -0.19 0.09 -0.12 0.14 -0.23 0.04 -0.07 0.21 -0.3 0.11 -0.22 0.07 -0.08 0.05 -0.11 0.12 -0.21 0.15 -0.19 0.04 -0.09 0.07 -0.11 0.12 -0.19 0.03 -0.01 0.14 -0.2 0.04 -0.1 0.08 -0.09 0.11 -0.2 0.14 -0.2 0.05 -0.09 0.08 -0.11 0.11 -0.19 0.02 -0.01 0.12 -0.2 0.05 -0.08 0.08 -0.13 0.11 -0.16 0 -0.01 0.14 -0.2 0.05 -0.1 0.08 -0.11 0.1 -0.17 0.04 -0.03 0.12 -0.19 0.05 -0.08 0.07 -0.15 0.14 -0.17 0 -0.03 0.12 -0.2 0.04 -0.05 0.08 -0.15 0.11 -0.15 0.01 -0.05 0.14 -0.2 0.04 -0.05 0.08 -0.15 0.11 -0.15 0.02 -0.05 0.14 -0.19 0.03 -0.05 0.11 -0.15 0.08 -0.15 0.04 -0.07 0.12 -0.17 0.04 -0.05 0.08 -0.17 0.11 -0.15 0.01 -0.03 0.14 -0.21 0.03 -0.05 0.11 -0.15 0.08 -0.14 0.03 -0.05 0.12 -0.2 0.04 -0.07 0.08 -0.12 0.09 -0.16 0.07 -0.05 0.11 -0.2 0.02 -0.05 0.12 -0.16 0.08 -0.12 0.04 -0.07 0.14 -0.2 0.01 -0.04 0.11 -0.16 0.09 -0.13 0.03 -0.07 0.14 -0.2 0.01 -0.03 0.11 -0.16 0.08 -0.13 0.05 -0.07 0.12 -0.2 0.02 -0.04 0.11 -0.17 0.08 -0.12 0.05 -0.08 0.12 -0.21 0.02 0 0.11 -0.19 0.08 -0.12 0.05 -0.08 0.12 -0.2 0 0 0.12 -0.19 0.07 -0.11 0.07 -0.1 0.12 -0.2 0.01 -0.03 0.12 -0.17 0.05 -0.11 0.07 -0.11 0.13 -0.19 0.12 -0.2 0.07 -0.09 0.05 -0.11 0.14 -0.19 0.11 -0.19 0.07 -0.12 0.14 -0.21 0.05 -0.08 0.17 -0.27 0.02 -0.04 0.19 -0.3 0.02 -0.01 0.19 -0.28 0.03 -0.08 0.16 -0.23 0.07 -0.09 0.12 -0.2 0.11 -0.16 0.07 -0.15 0.14 -0.21 0.05 -0.07 0.38 -0.59 0.03 -0.04 0.16 -0.26 0.04 -0.09 0.15 -0.23 0.08 -0.13 0.09 -0.15 0.12 -0.19 0.08 -0.13 0.15 -0.22 0.04 -0.08 0.17 -0.3 0.19 -0.3 0.05 -0.05 0.15 -0.24 0.05 -0.12 0.12 -0.17 0.11 -0.16 0.08 -0.14 0.12 -0.21 0.07 -0.09 0.17 -0.26 0 -0.04 0.2 -0.3 0.02 -0.03 0.19 -0.27 0.03 -0.08 0.15 -0.23 0.08 -0.12 0.11 -0.17 0.13 -0.19 0.04 -0.11 0.15 -0.23 0.05 -0.08 0.16 -0.27 0 -0.03 0.17 -0.3 0.07 -0.03 0.14 -0.27 0.07 -0.1 0.14 -0.2 0.17 -0.3 0.2 -0.31 0.19 -0.3 0.17 -0.31 0.19 -0.3 0.2 -0.3 0.16 -0.32 0.19 -0.27 0.2 -0.31 0.17 -0.31 0.2 -0.3 0.16 -0.3 0.2 -0.31 0.17 -0.3 0.2 -0.3 0.2 -0.3 0.16 -0.31 0.38 -0.59 0.17 -0.31 0.19 -0.3 0.2 -0.3 0.19 -0.3 0.19 -0.31 0.19 -0.3 0.17 -0.31 0.17 -0.28 0.19 -0.3 0.19 -0.31 0.17 -0.3 0.19 -0.32 0.07 -0.07 0.12 -0.23 0.08 -0.14 0.11 -0.16 0.11 -0.15 0.1 -0.16 0.12 -0.21 0.07 -0.08 0.15 -0.24 0.03 -0.05 0.17 -0.3 0.19 -0.3 0.07 -0.04 0.12 -0.27 0.05 -0.08 0.15 -0.21 0.05 -0.14 0.12 -0.16 0.11 -0.17 0.08 -0.14 0.14 -0.21 0.04 -0.08 0.16 -0.27 0.04 -0.04 0.16 -0.28 0.03 -0.01 0.17 -0.3 0.02 -0.05 0.17 -0.26 0.05 -0.09 0.13 -0.19 0.07 -0.15 0.11 -0.16 0.12 -0.17 0.07 -0.12 0.12 -0.24 0.07 -0.08 0.16 -0.24 0.01 -0.05 0.19 -0.3 0 -0.02 0.17 -0.28 0.04 -0.04 0.15 -0.26 0.07 -0.11 0.11 -0.2 0.09 -0.14 0.11 -0.16 0.11 -0.17 0.1 -0.12 0.12 -0.23 0.05 -0.08 0.15 -0.27 0.02 -0.04 0.19 -0.31 0.01 0.01 0.17 -0.31 0.02 -0.04 0.16 -0.23 0.07 -0.11 0.12 -0.2 0.09 -0.15 0.08 -0.16 0.12 -0.17 0.08 -0.12 0.12 -0.23 0.05 -0.1 0.16 -0.24 0.03 -0.05 0.2 -0.28 -0.02 -0.03 0.38 -0.58 0.07 -0.08 0.11 -0.23 0.08 -0.15 0.11 -0.15 0.19 -0.28 0.17 -0.32 0.17 -0.31 0.2 -0.3 0.17 -0.28 0.19 -0.31 0.17 -0.3 0.19 -0.31 0.17 -0.3 0.2 -0.31 0.17 -0.3 0.2 -0.32 0.17 -0.26 0.17 -0.34 0.2 -0.3 0.16 -0.3 0.19 -0.31 0.19 -0.31 0.19 -0.3 0.17 -0.28 0.16 -0.31 0.2 -0.31 0.16 -0.24 0.03 -0.05 0.17 -0.3 0.02 0 0.16 -0.3 0.01 -0.05 0.16 -0.24 0.05 -0.07 0.15 -0.26 0.04 -0.07 0.15 -0.23 0.07 -0.14 0.11 -0.17 0.09 -0.15 0.08 -0.15 0.12 -0.19 0.07 -0.12 0.13 -0.22 0.04 -0.08 0.17 -0.24 0.01 -0.05 0.2 -0.3 0.01 -0.01 0.16 -0.3 0 -0.02 0.17 -0.3 0.04 -0.07 0.15 -0.23 0.05 -0.09 0.15 -0.2 0.07 -0.13 0.1 -0.16 0.09 -0.16 0.08 -0.16 0.12 -0.2 0.08 -0.09 0.12 -0.23 0.05 -0.08 0.16 -0.24 0.04 -0.05 0.16 -0.31 0.19 -0.28 0.02 -0.04 0.17 -0.27 0.01 -0.07 0.16 -0.24 0.05 -0.08 0.14 -0.21 0.08 -0.14 0.09 -0.17 0.11 -0.16 0.08 -0.14 0.12 -0.19 0.05 -0.11 0.14 -0.24 0.05 -0.05 0.16 -0.28 0.03 -0.04 0.17 -0.3 0.17 -0.31 0.03 -0.01 0.17 -0.3 0.03 -0.05 0.16 -0.23 0.05 -0.11 0.12 -0.19 0.08 -0.13 0.11 -0.17 0.08 -0.17 0.09 -0.14 0.32 -0.52 0.04 -0.07 0.17 -0.27 0.02 -0.04 0.17 -0.3 0.17 -0.3 0.02 -0.05 0.16 -0.27 0.04 -0.05 0.14 -0.25 0.05 -0.1 0.13 -0.2 0.1 -0.13 0.08 -0.12 0.12 -0.2 0.07 -0.15 0.12 -0.22 0.05 -0.08 0.19 -0.3 0.17 -0.31 0.19 -0.3 0.2 -0.31 0.19 -0.3 0.16 -0.3 0.19 -0.32 0.17 -0.3 0.19 -0.3 0.17 -0.31 0.17 -0.3 0.19 -0.31 0.19 -0.3 0.17 -0.31 0.19 -0.31 0.16 -0.27 0.17 -0.31 0.03 -0.03 0.15 -0.23 0.05 -0.11 0.13 -0.19 0.05 -0.13 0.11 -0.16 0.08 -0.17 0.08 -0.11 0.12 -0.21 0.04 -0.07 0.17 -0.26 0 -0.04 0.19 -0.28 0 -0.03 0.16 -0.26 0.03 -0.04 0.15 -0.23 0.07 -0.12 0.11 -0.17 0.07 -0.16 0.11 -0.14 0.1 -0.19 0.05 -0.1 0.15 -0.24 0.04 -0.03 0.15 -0.3 0.01 0 0.17 -0.3 0.02 -0.03 0.16 -0.27 0.03 -0.04 0.15 -0.24 0.05 -0.11 0.11 -0.19 0.09 -0.13 0.07 -0.15 0.14 -0.19 0.05 -0.09 0.15 -0.24 0.01 -0.05 0.17 -0.26 -0.01 -0.01 0.19 -0.28 0.02 -0.04 0.15 -0.24 0.07 -0.09 0.12 -0.2 0.07 -0.12 0.08 -0.16 0.11 -0.17 0.07 -0.11 0.12 -0.21 0.05 -0.08 0.16 -0.24 0.01 -0.04 0.16 -0.3 0.19 -0.3 0.01 -0.03 0.15 -0.24 0.07 -0.08 0.11 -0.21 0.08 -0.14 0.08 -0.12 0.11 -0.2 0.05 -0.12 0.15 -0.21 0.04 -0.07 0.15 -0.26 0.03 -0.02 0.16 -0.3 0.02 -0.01 0.17 -0.27 0 -0.07 0.16 -0.21 0.05 -0.11 0.12 -0.2 0.08 -0.11 0.07 -0.16 0.12 -0.2 0.05 -0.09 0.15 -0.21 0.03 -0.07 0.16 -0.28 0.17 -0.31 0.01 -0.01 0.17 -0.26 0.03 -0.07 0.14 -0.23 0.05 -0.11 0.1 -0.17 0.11 -0.15 0.08 -0.12 0.11 -0.19 0.05 -0.09 0.15 -0.24 0.04 -0.05 0.16 -0.3 0.17 -0.28 0.02 -0.05 0.16 -0.23 0.03 -0.09z"/>
  </g>
 </g>
</svg>
