<?xml version="1.0" encoding="UTF-8"?>
<!DOCTYPE svg PUBLIC "-//W3C//DTD SVG 1.1//EN" "http://www.w3.org/Graphics/SVG/1.1/DTD/svg11.dtd">
<!-- Creator: CorelDRAW 2021 (64 Bit) -->
<svg xmlns="http://www.w3.org/2000/svg" xml:space="preserve" width="814.637mm" height="186.114mm" version="1.1" style="shape-rendering:geometricPrecision; text-rendering:geometricPrecision; image-rendering:optimizeQuality; fill-rule:evenodd; clip-rule:evenodd"
viewBox="0 0 14527.72 3319.05"
 xmlns:xlink="http://www.w3.org/1999/xlink"
 xmlns:xodm="http://www.corel.com/coreldraw/odm/2003">
 <defs>
  <style type="text/css">
   <![CDATA[
    .str1 {stroke:#2B374D;stroke-width:15.1;stroke-miterlimit:22.9256}
    .str2 {stroke:#2B374D;stroke-width:12.08;stroke-miterlimit:22.9256}
    .str0 {stroke:#2B374D;stroke-width:3.02;stroke-miterlimit:22.9256}
    .fil1 {fill:#003152}
    .fil2 {fill:#1AA552}
    .fil0 {fill:#2B374D;fill-rule:nonzero}
   ]]>
  </style>
 </defs>
 <g id="Camada_x0020_1">
  <metadata id="CorelCorpID_0Corel-Layer"/>
  <polygon class="fil0 str0" points="3450.36,1865.96 14526.21,1865.96 14526.21,1838.96 3450.36,1838.96 "/>
  <path class="fil0 str1" d="M4496.07 1532.32c35.93,-1.14 72.63,-7.61 109.71,-19.77 37.08,-11.98 70.35,-29.66 99.63,-52.86 29.47,-23.2 50.57,-52.1 63.5,-86.7l-15.59 -5.51c-11.79,32.32 -31.94,59.32 -60.08,81.38 -28.33,21.87 -60.08,38.41 -95.26,49.43 -35.36,11.22 -69.78,17.11 -103.62,17.87 -66.93,-0.38 -123.59,-19.58 -170.17,-57.99 -46.58,-38.22 -82.33,-86.89 -107.04,-146.21 -24.53,-59.13 -36.88,-118.64 -36.88,-178.53 0,-52.67 8.94,-102.29 27.19,-148.87 18.25,-46.58 42.21,-87.65 72.25,-122.83 29.85,-35.36 62.93,-62.93 99.25,-83.09 36.5,-19.96 73.01,-30.04 109.9,-30.04 117.69,0 204.58,60.27 260.67,181.01l16.16 0 0 -82.9c-36.5,-34.98 -78.33,-62.36 -125.68,-82.14 -47.34,-19.96 -97.92,-29.85 -151.72,-29.85 -73.58,0 -140.51,17.87 -200.78,53.81 -60.46,35.74 -108.56,83.85 -144.31,144.12 -35.93,60.46 -53.81,127.39 -53.81,200.78 0,73.96 18.44,141.46 55.14,202.49 36.69,61.22 85.75,109.52 147.16,145.26 59.32,34.03 125.3,51.15 197.74,51.15l6.65 0zm1829.29 0c73.39,0 140.32,-17.87 200.78,-53.81 60.27,-35.74 108.38,-83.85 144.31,-144.12 35.74,-60.46 53.61,-127.39 53.61,-200.97 0,-73.39 -17.87,-140.32 -53.61,-200.78 -35.94,-60.27 -84.04,-108.38 -144.31,-144.12 -60.46,-35.93 -127.39,-53.81 -200.78,-53.81 -73.58,0 -140.51,17.87 -200.78,53.81 -60.46,35.74 -108.56,83.85 -144.31,144.12 -35.94,60.46 -53.81,127.39 -53.81,200.78 0,73.58 17.87,140.51 53.81,200.97 35.74,60.27 83.85,108.38 144.31,144.12 60.27,35.93 127.2,53.81 200.78,53.81zm0 -16.16c-56.85,0 -108.57,-17.11 -154.96,-51.53 -46.39,-34.22 -83.47,-80.42 -111.04,-138.42 -27.76,-57.99 -41.64,-122.06 -41.64,-192.79 0,-70.54 13.88,-134.8 41.64,-192.6 27.57,-57.99 64.65,-104.19 111.04,-138.42 46.39,-34.41 98.11,-51.53 154.96,-51.53 56.47,0 108,17.11 154.58,51.53 46.58,34.22 83.66,80.42 111.42,138.42 27.57,57.8 41.45,122.06 41.45,192.6 0,70.73 -13.88,134.8 -41.45,192.79 -27.76,57.99 -64.83,104.19 -111.42,138.42 -46.58,34.42 -98.11,51.53 -154.58,51.53zm2210.31 16.16l0 -16.16 -8.37 0c-10.08,0 -18.44,-1.33 -25.48,-3.8 -6.84,-2.66 -14.26,-10.46 -22.44,-23.38l-192.22 -349.27c42.02,-13.5 75.86,-32.51 101.91,-57.23 26.05,-24.53 43.92,-52.29 53.43,-82.71 6.46,-18.44 9.51,-37.26 9.51,-56.28 0,-11.79 -2.28,-28.33 -6.65,-49.81 -4.37,-21.29 -17.87,-45.06 -40.31,-71.3 -22.63,-26.05 -53.05,-47.34 -91.64,-63.5 -38.6,-16.16 -85.37,-24.15 -139.94,-24.15l-274.55 0 0 16.16 21.1 0c11.98,0 20.91,1.52 26.81,4.76 5.9,3.04 8.94,12.36 8.94,27.57l0 700.64c0,15.21 -3.04,24.53 -8.94,27.57 -5.89,3.23 -14.83,4.75 -26.81,4.75l-21.1 0 0 16.16 204.96 0 0 -16.16 -21.11 0c-11.98,0 -20.91,-1.52 -27,-4.75 -6.27,-3.04 -9.32,-13.31 -9.32,-30.23l0 -324.74c89.93,0 138.8,-0.19 146.59,-0.57 19.01,35.18 29.66,54.95 32.32,58.94 50.38,91.45 100.58,182.72 150.39,274.17 3.23,5.89 4.94,10.84 4.94,15.02 0,8.17 -9.32,12.17 -27.76,12.17l-22.25 0 0 16.16 204.96 0zm-365.43 -392.05l-123.78 0 0 -389.39 126.44 0c42.4,0 77.58,9.51 105.71,28.33 27.95,19.01 48.87,42.97 62.55,71.87 13.69,28.9 20.72,59.51 20.72,91.45l0 26.62c0,17.11 -7.22,40.5 -21.49,69.97 -14.26,29.47 -35.75,53.62 -64.07,72.06 -28.52,18.63 -63.89,28.33 -106.09,29.09zm1884.43 392.05l0 -16.16 -20.72 0c-12.17,0 -21.29,-1.52 -27.19,-4.75 -6.08,-3.04 -8.93,-12.36 -8.93,-27.57l0 -732.96 148.11 0c41.64,1.52 73.39,14.64 95.26,39.74 21.86,25.1 32.89,54.57 32.89,88.41l16.16 0 0 -144.31 -675.16 0 0 144.31 16.16 0c0,-22.44 2.66,-43.16 7.8,-62.55 5.13,-19.2 15.02,-34.79 29.47,-46.77 14.45,-11.79 35.36,-18.06 62.36,-18.82l176.06 0 0 732.96c0,15.21 -2.85,24.53 -8.94,27.57 -5.89,3.23 -15.02,4.75 -27.19,4.75l-20.72 0 0 16.16 204.58 0zm1931.77 0l0 -144.31 -16.16 0c0,33.84 -11.03,63.31 -33.08,88.41 -22.05,25.1 -54,38.22 -95.64,39.74l-237.29 0 0 -366 101.53 0c24.15,0 45.44,3.04 64.08,8.94 39.93,13.5 60.08,45.82 60.08,97.54l16.16 0 0 -228.35 -16.16 0c0,28.52 -5.32,50.57 -16.16,65.97 -10.84,15.4 -25.86,26.05 -45.06,31.94 -17.11,5.33 -36.89,7.8 -59.13,7.8l-105.33 0 0 -383.12 237.29 0c41.64,1.52 73.58,14.64 95.64,39.74 22.05,25.1 33.08,54.57 33.08,88.41l16.16 0 0 -144.31 -529.71 0 0 16.16 20.53 0c11.98,0 20.92,1.52 27.19,4.76 6.08,3.04 9.12,13.12 9.12,30.23l0 695.31c0,16.92 -3.04,27.19 -9.12,30.23 -6.28,3.23 -15.21,4.75 -27.19,4.75l-20.53 0 0 16.16 529.71 0zm1900.59 0l0 -16.16c-14.07,0 -24.53,-0.57 -31.37,-1.71 -6.85,-0.95 -12.93,-4.18 -17.87,-9.12 -4.94,-4.94 -11.22,-13.31 -18.63,-24.72l-264.66 -396.62 230.63 -298.13c8.17,-10.65 14.83,-18.63 20.15,-23.58 5.13,-5.13 11.41,-8.17 18.82,-9.51 7.42,-1.33 19.01,-1.9 34.6,-1.9l0 -16.16 -129.86 0 0 16.16 23.38 0c19.01,0.76 28.52,3.62 28.52,8.94 0,4.75 -4.18,11.79 -12.36,21.1l-223.21 288.62c-128.53,-192.04 -193.93,-289.38 -196.22,-292.04 -6.28,-8.17 -9.51,-13.88 -9.51,-17.11 0,-1.9 1.14,-3.8 3.23,-5.7 1.9,-1.71 7.8,-3.04 17.49,-3.8l23.38 0 0 -16.16 -204.96 0 0 16.16c14.07,0 24.53,0.57 31.37,1.71 6.85,0.95 12.93,4.18 17.87,9.13 4.94,4.94 11.22,13.12 18.63,24.14 44.3,66.93 88.6,133.47 133.09,200.02l106.48 159.9 -258.96 335.39c-8.56,11.41 -15.59,19.58 -21.3,24.53 -5.51,4.76 -11.98,7.8 -19.39,8.75 -7.42,1.14 -18.63,1.71 -33.46,1.71l0 16.16 129.86 0 0 -16.16 -22.81 0c-19.4,-0.76 -29.09,-3.42 -29.09,-8.37 0,-4.75 4.18,-11.79 12.36,-21.1l252.3 -326.46c135.94,203.82 209.34,313.72 220.55,329.31 6.28,8.18 9.51,13.88 9.51,17.11 0,1.9 -1.33,3.99 -3.99,6.28 -2.47,2.09 -11.03,3.23 -25.67,3.23l-13.88 0 0 16.16 204.96 0z"/>
  <path class="fil0 str2" d="M3717.58 2623.87l0 -10.95 -17.39 0.39c-5.92,0 -11.08,-0.9 -15.2,-2.83 -4.25,-1.93 -6.31,-9.01 -6.31,-21.25l0 -224.24 69.17 0c16.23,0 30.78,2.06 43.28,6.05 26.92,9.14 40.44,31.04 40.44,66.08l10.95 0 0 -154.69 -10.95 0c0,19.32 -3.61,34.13 -10.95,44.44 -12.62,18.16 -35.93,27.18 -70.2,27.18l-71.74 0 0 -259.54 161.13 0c28.21,1.03 49.72,9.92 64.53,26.92 14.94,17 22.28,36.97 22.28,59.89l10.95 0 0 -97.76 -358.84 0 0 10.95 14.3 0c8.11,0 14.17,1.03 18.16,3.22 3.99,2.06 6.06,8.37 6.06,18.68l0 474.63c0,10.31 -2.06,16.62 -6.06,18.68 -3.99,2.19 -10.05,3.22 -18.16,3.22l-14.3 0 0 10.95 138.85 0zm400.6 -432c8.5,0 15.71,-3.09 21.64,-9.14 5.92,-6.05 8.89,-13.14 8.89,-21.51 0,-8.5 -2.96,-15.84 -8.89,-21.89 -5.92,-6.05 -13.14,-9.02 -21.64,-9.02 -8.63,0 -15.84,2.96 -21.9,9.02 -6.05,6.05 -9.01,13.39 -9.01,21.89 0,8.37 2.96,15.46 9.01,21.51 6.05,6.05 13.27,9.14 21.9,9.14zm73.54 432l0 -10.95 -14.3 0c-8.12,0 -14.17,-1.03 -18.16,-3.22 -3.99,-2.06 -6.05,-8.37 -6.05,-18.68l0 -365.67 -100.72 20.74 0 12.88c7.6,-1.03 13.91,-1.54 19.19,-1.54 3.09,0 7.08,0.26 11.98,0.65 4.89,0.39 7.47,3.61 7.73,9.53l0 323.42c0,10.31 -2.06,16.62 -6.05,18.68 -3.99,2.19 -10.05,3.22 -18.16,3.22l-14.3 0 0 10.95 138.85 0zm273.34 -1.54c11.33,0 27.18,-1.55 47.65,-4.9 20.61,-3.22 40.7,-12.23 60.67,-27.18 21.38,-16.1 32.07,-35.94 32.07,-59.51 0,-21 -11.72,-43.79 -35.16,-68.78 -13.01,-12.75 -27.3,-23.18 -42.63,-31.3 -15.33,-7.98 -30.78,-15.2 -46.37,-21.51 -23.7,-9.02 -45.08,-20.35 -64.14,-34 -19.19,-13.52 -32.33,-34.52 -39.67,-62.98 -1.03,-5.28 -1.55,-10.43 -1.55,-15.46 0,-15.84 6.57,-29.75 19.71,-41.86 14.56,-13.39 34.91,-19.97 61.05,-19.97 21.9,0 43.92,6.83 66.08,20.48 22.15,13.78 39.28,37.48 51.26,71.1l10.95 0 0 -52.42c-19.06,-18.55 -42.63,-31.94 -70.45,-39.93 -20.48,-5.8 -40.83,-8.76 -61.18,-8.76 -7.6,0 -20.22,1.03 -38.13,2.83 -17.9,1.93 -36.58,10.3 -56.16,25.12 -21.89,16.62 -32.84,40.31 -32.84,70.97 0,23.96 5.28,44.18 15.97,60.79 10.69,16.62 25.37,30.53 43.92,41.99 18.68,11.46 38.38,21.9 59.25,31.17 14.68,6.83 28.72,13.78 42.38,21.12 13.52,7.34 25.76,15.71 36.58,25.25 17,16.62 25.63,31.94 25.63,46.11 0,2.7 -1.03,8.89 -3.22,18.42 -2.19,9.66 -12.75,19.19 -31.94,28.72 -17.52,8.76 -37.61,13.27 -60.28,13.27 -1.8,0 -9.4,-0.26 -22.67,-0.77 -13.4,-0.52 -30.78,-8.37 -52.42,-23.44 -21.64,-15.07 -36.97,-39.28 -46.11,-72.39l-10.95 0 0 52.42c38.25,36.97 85.78,55.39 142.71,55.39zm334.52 -430.46c8.5,0 15.71,-3.09 21.64,-9.14 5.92,-6.05 8.89,-13.14 8.89,-21.51 0,-8.5 -2.96,-15.84 -8.89,-21.89 -5.92,-6.05 -13.14,-9.02 -21.64,-9.02 -8.63,0 -15.84,2.96 -21.9,9.02 -6.05,6.05 -9.02,13.39 -9.02,21.89 0,8.37 2.96,15.46 9.02,21.51 6.05,6.05 13.27,9.14 21.9,9.14zm73.54 432l0 -10.95 -14.3 0c-8.12,0 -14.17,-1.03 -18.16,-3.22 -3.99,-2.06 -6.05,-8.37 -6.05,-18.68l0 -365.67 -100.72 20.74 0 12.88c7.6,-1.03 13.91,-1.54 19.19,-1.54 3.09,0 7.09,0.26 11.98,0.65 4.89,0.39 7.47,3.61 7.73,9.53l0 323.42c0,10.31 -2.06,16.62 -6.05,18.68 -3.99,2.19 -10.05,3.22 -18.16,3.22l-14.3 0 0 10.95 138.85 0zm328.47 0c36.71,0 70.07,-8.89 100.21,-26.79 30.01,-17.9 54.1,-41.86 72,-72 18.03,-30.27 27.05,-63.76 27.05,-100.47 0,-36.71 -9.01,-70.07 -27.05,-100.21 -17.9,-30.01 -41.99,-54.1 -72,-72 -30.14,-18.03 -63.5,-27.05 -100.21,-27.05 -36.71,0 -70.2,9.02 -100.34,27.05 -30.27,17.9 -54.23,41.99 -72.13,72 -17.9,30.14 -26.79,63.5 -26.79,100.21 0,36.71 8.89,70.2 26.79,100.47 17.9,30.14 41.86,54.09 72.13,72 30.14,17.9 63.63,26.79 100.34,26.79zm0 -10.95c-25.38,0 -48.56,-8.5 -69.42,-25.5 -20.87,-16.87 -37.48,-39.67 -49.85,-68.01 -12.36,-28.46 -18.42,-60.02 -18.42,-94.8 0,-34.65 6.05,-66.2 18.42,-94.67 12.37,-28.46 28.98,-51.13 49.85,-68.13 20.86,-17 44.05,-25.5 69.42,-25.5 25.12,0 48.17,8.5 69.04,25.5 20.86,17 37.48,39.67 49.85,68.13 12.24,28.47 18.42,60.02 18.42,94.67 0,34.78 -6.18,66.33 -18.42,94.8 -12.37,28.34 -28.98,51.14 -49.85,68.01 -20.87,17 -43.92,25.5 -69.04,25.5zm457.14 10.95c12.49,0 23.83,-2.44 33.87,-7.34 10.18,-4.89 16.62,-11.98 19.71,-21.38l-12.11 0c-6.57,10.43 -15.58,15.58 -27.18,15.58 -9.53,0 -18.42,-5.02 -26.53,-15.2 -8.24,-10.05 -12.62,-26.92 -13.14,-50.49l0 -302.3 51.39 0 0 -10.95 -51.39 0 0 -83.33 -100.34 20.74 0 12.75c8.63,-0.9 14.69,-1.42 18.55,-1.42 2.96,0 6.96,0.13 11.98,0.51 5.15,0.39 7.73,3.61 7.99,9.66l0 41.08 -53.97 0 0 10.95 53.97 0c0.26,76.25 0.39,177.75 0.39,304.49 0,17.65 4.38,32.07 13.01,43.41 8.63,11.33 19.45,19.71 32.2,25.12 12.88,5.41 26.79,8.11 41.61,8.11zm350.62 0c40.44,0 76.64,-9.27 108.45,-27.95 31.81,-18.55 54.61,-47.66 68.14,-87.07l-10.18 -3.09c-12.88,36.97 -34.26,64.14 -64.14,81.27 -30.01,17.26 -63.76,25.89 -101.5,25.89 -32.46,-0.51 -59.38,-10.43 -80.63,-29.75 -21.25,-19.45 -36.97,-43.66 -47.27,-72.64 -10.3,-29.11 -15.58,-57.7 -15.58,-85.91 0,-11.33 0.64,-22.41 1.93,-33.23l332.05 0c-5.54,-31.68 -17.52,-59.89 -36.07,-84.88 -18.42,-24.86 -41.6,-44.57 -69.42,-59.25 -27.69,-14.56 -58.09,-21.9 -91.06,-21.9 -36.71,0 -70.2,9.02 -100.21,27.05 -30.01,17.9 -54.1,41.99 -72.13,72 -17.9,30.14 -26.92,63.5 -26.92,100.21 0,38 9.27,72.13 27.69,102.27 18.55,30.27 43.15,53.84 73.8,70.97 30.66,17.13 65.05,25.76 103.04,26.02zm128.67 -243.43l-267.52 0c7.73,-42.25 23.83,-76.77 48.3,-103.68 24.34,-26.92 52.81,-40.44 85.27,-40.44 32.46,0 60.92,13.52 85.4,40.44 24.6,26.92 40.7,61.44 48.55,103.68zm329.11 243.43l0 -10.95 -14.3 0c-8.12,0 -14.17,-1.03 -18.16,-3.22 -3.99,-2.06 -6.05,-8.37 -6.05,-18.68l0 -293.54c4.38,-12.11 10.95,-22.8 20.09,-32.07 16.49,-15.58 35.55,-23.44 56.93,-23.44 0.52,0 6.44,0.26 17.77,0.65 11.34,0.39 26.28,7.08 44.82,20.09 18.68,13.14 31.04,30.4 36.97,51.78l10.95 0 0 -56.29c-24.09,-21.64 -54.1,-32.46 -89.78,-32.46 -34,0 -62.34,10.69 -85.26,32.07 -4.77,4.77 -8.89,9.92 -12.5,15.45l0 -47.91 -100.34 20.74 0 12.88c6.83,-1.03 13.14,-1.54 18.93,-1.54 2.96,0 6.96,0.26 11.85,0.65 4.89,0.39 7.47,3.61 7.73,9.53l0 323.42c0,10.31 -2.06,16.62 -6.05,18.68 -3.99,2.19 -10.05,3.22 -18.16,3.22l-14.3 0 0 10.95 138.85 0zm634.12 0l-100.08 0 0 -43.79c-14.56,14.17 -32.84,24.86 -54.74,32.33 -21.89,7.34 -44.44,11.08 -67.88,11.08l-7.98 0c-37.74,-2.45 -68.14,-14.81 -91.45,-36.71 -23.31,-22.02 -34.91,-46.37 -34.91,-73.03 0,-13.65 3.35,-26.79 10.17,-39.67 6.83,-12.88 17.52,-24.47 32.33,-34.91 14.69,-10.43 33.88,-19.06 57.45,-25.89 13.65,-3.48 26.66,-6.44 39.29,-9.02 24.21,-3.99 45.98,-10.82 65.43,-20.35 19.58,-9.53 36.84,-28.59 51.91,-57.06 -1.93,-59.5 -32.97,-89.39 -92.74,-89.39 -28.21,0 -53.84,8.24 -76.89,24.6 -22.92,16.36 -38.51,38.26 -46.5,65.95l-10.95 0 0 -56.16c17,-15.84 37.74,-27.57 61.95,-35.16 24.34,-7.47 49.72,-11.34 76.12,-11.34 100.34,0 150.57,33.23 150.57,99.7l0.39 264.17c0,10.95 1.8,17.78 5.41,20.1 3.61,2.45 10.05,3.6 19.06,3.6l14.04 0 0 10.95zm-202.74 -17.39c19.96,0 39.03,-3.61 57.58,-11.07 18.55,-7.47 33.49,-18.03 45.08,-31.94l-0.39 -212.78c-12.11,18.81 -25.63,32.59 -40.7,41.34 -15.07,8.63 -31.17,15.84 -48.3,21.64 -15.84,5.02 -31.94,11.85 -48.3,20.48 -18.42,10.56 -31.94,23.83 -40.57,39.93 -8.63,16.1 -13.01,32.46 -13.01,49.07 0,18.16 4.63,34.52 13.91,49.2 9.28,14.68 22.8,24.73 40.44,30.01 11.08,2.83 22.41,4.12 34.26,4.12zm430.73 159.33l0 -181.61c29.75,26.53 65.18,39.67 106.39,39.67 30.27,0 60.8,-7.47 91.71,-22.41 31.04,-14.94 56.93,-38.64 77.8,-71.1 19.58,-29.75 29.37,-65.3 29.37,-106.9l-0.26 -10.56c-3.09,-42.51 -15.71,-78.18 -37.74,-106.91 -22.15,-28.85 -49.33,-49.97 -81.53,-63.63 -26.15,-11.07 -52.42,-16.62 -78.95,-16.62 -6.44,0 -19.58,1.03 -39.42,3.09 -19.71,1.93 -42.12,14.04 -67.36,36.19l0 -39.67 -100.34 20.74 0 12.88c7.6,-1.03 13.78,-1.54 18.93,-1.54 2.96,0 6.96,0.26 11.85,0.65 4.89,0.39 7.6,3.61 8.11,9.53l0 465.36c0,10.3 -2.06,16.49 -6.05,18.68 -3.99,2.06 -10.18,3.22 -18.54,3.22l-13.91 0 0 10.95 99.95 0zm94.03 -151.73c-5.28,0 -16.36,-1.03 -33.1,-3.22 -16.62,-2.19 -36.97,-16.1 -60.92,-42.12l0 -289.03c28.21,-29.11 59.12,-43.79 92.87,-43.79 2.58,0 13.65,0.77 33.62,2.32 19.84,1.55 43.79,17.77 71.62,48.82 27.95,31.17 43.53,73.54 46.88,127.38l0 5.67c0,40.7 -7.86,76.25 -23.44,106.39 -15.59,30.27 -36.2,53.07 -61.83,68.65 -21.25,12.62 -43.02,18.93 -65.69,18.93zm408.07 -422.21c8.5,0 15.71,-3.09 21.64,-9.14 5.92,-6.05 8.89,-13.14 8.89,-21.51 0,-8.5 -2.96,-15.84 -8.89,-21.89 -5.92,-6.05 -13.14,-9.02 -21.64,-9.02 -8.63,0 -15.84,2.96 -21.9,9.02 -6.05,6.05 -9.01,13.39 -9.01,21.89 0,8.37 2.96,15.46 9.01,21.51 6.05,6.05 13.27,9.14 21.9,9.14zm73.54 432l0 -10.95 -14.3 0c-8.12,0 -14.17,-1.03 -18.16,-3.22 -3.99,-2.06 -6.05,-8.37 -6.05,-18.68l0 -365.67 -100.72 20.74 0 12.88c7.6,-1.03 13.91,-1.54 19.19,-1.54 3.09,0 7.08,0.26 11.98,0.65 4.89,0.39 7.47,3.61 7.73,9.53l0 323.42c0,10.31 -2.06,16.62 -6.05,18.68 -3.99,2.19 -10.05,3.22 -18.16,3.22l-14.3 0 0 10.95 138.85 0zm485.09 0l-100.08 0 0 -43.79c-14.55,14.17 -32.84,24.86 -54.74,32.33 -21.89,7.34 -44.44,11.08 -67.88,11.08l-7.98 0c-37.74,-2.45 -68.14,-14.81 -91.45,-36.71 -23.31,-22.02 -34.91,-46.37 -34.91,-73.03 0,-13.65 3.35,-26.79 10.18,-39.67 6.83,-12.88 17.52,-24.47 32.33,-34.91 14.68,-10.43 33.87,-19.06 57.44,-25.89 13.65,-3.48 26.66,-6.44 39.29,-9.02 24.21,-3.99 45.98,-10.82 65.43,-20.35 19.58,-9.53 36.84,-28.59 51.91,-57.06 -1.93,-59.5 -32.97,-89.39 -92.74,-89.39 -28.21,0 -53.84,8.24 -76.89,24.6 -22.93,16.36 -38.51,38.26 -46.5,65.95l-10.95 0 0 -56.16c17,-15.84 37.74,-27.57 61.95,-35.16 24.34,-7.47 49.72,-11.34 76.12,-11.34 100.34,0 150.57,33.23 150.57,99.7l0.39 264.17c0,10.95 1.8,17.78 5.41,20.1 3.61,2.45 10.05,3.6 19.06,3.6l14.04 0 0 10.95zm-202.74 -17.39c19.96,0 39.03,-3.61 57.58,-11.07 18.55,-7.47 33.49,-18.03 45.08,-31.94l-0.39 -212.78c-12.11,18.81 -25.63,32.59 -40.7,41.34 -15.07,8.63 -31.17,15.84 -48.3,21.64 -15.84,5.02 -31.94,11.85 -48.3,20.48 -18.42,10.56 -31.94,23.83 -40.57,39.93 -8.63,16.1 -13.01,32.46 -13.01,49.07 0,18.16 4.64,34.52 13.91,49.2 9.28,14.68 22.8,24.73 40.44,30.01 11.08,2.83 22.41,4.12 34.26,4.12zm932.94 17.39l0 -97.76 -10.95 0c0,22.92 -7.47,42.89 -22.41,59.89 -14.94,17 -36.58,25.89 -64.79,26.92l-160.75 0 0 -247.94 68.78 0c16.36,0 30.78,2.06 43.41,6.05 27.05,9.14 40.7,31.04 40.7,66.08l10.95 0 0 -154.69 -10.95 0c0,19.32 -3.61,34.26 -10.95,44.7 -7.34,10.43 -17.52,17.65 -30.53,21.64 -11.59,3.61 -24.99,5.28 -40.06,5.28l-71.36 0 0 -259.54 160.75 0c28.21,1.03 49.85,9.92 64.79,26.92 14.94,17 22.41,36.97 22.41,59.89l10.95 0 0 -97.76 -358.84 0 0 10.95 13.91 0c8.11,0 14.17,1.03 18.42,3.22 4.12,2.06 6.18,8.89 6.18,20.48l0 471.03c0,11.47 -2.06,18.42 -6.18,20.48 -4.25,2.19 -10.3,3.22 -18.42,3.22l-13.91 0 0 10.95 358.84 0zm302.84 -1.54c11.33,0 27.18,-1.55 47.65,-4.9 20.61,-3.22 40.7,-12.23 60.67,-27.18 21.38,-16.1 32.07,-35.94 32.07,-59.51 0,-21 -11.72,-43.79 -35.16,-68.78 -13.01,-12.75 -27.3,-23.18 -42.63,-31.3 -15.33,-7.98 -30.78,-15.2 -46.37,-21.51 -23.7,-9.02 -45.08,-20.35 -64.14,-34 -19.19,-13.52 -32.33,-34.52 -39.67,-62.98 -1.03,-5.28 -1.55,-10.43 -1.55,-15.46 0,-15.84 6.57,-29.75 19.71,-41.86 14.56,-13.39 34.91,-19.97 61.05,-19.97 21.9,0 43.92,6.83 66.08,20.48 22.15,13.78 39.28,37.48 51.26,71.1l10.95 0 0 -52.42c-19.06,-18.55 -42.63,-31.94 -70.45,-39.93 -20.48,-5.8 -40.83,-8.76 -61.18,-8.76 -7.6,0 -20.22,1.03 -38.13,2.83 -17.9,1.93 -36.58,10.3 -56.16,25.12 -21.9,16.62 -32.84,40.31 -32.84,70.97 0,23.96 5.28,44.18 15.97,60.79 10.69,16.62 25.37,30.53 43.92,41.99 18.68,11.46 38.38,21.9 59.25,31.17 14.68,6.83 28.72,13.78 42.38,21.12 13.52,7.34 25.76,15.71 36.58,25.25 17,16.62 25.63,31.94 25.63,46.11 0,2.7 -1.03,8.89 -3.22,18.42 -2.19,9.66 -12.75,19.19 -31.94,28.72 -17.52,8.76 -37.61,13.27 -60.28,13.27 -1.8,0 -9.4,-0.26 -22.67,-0.77 -13.39,-0.52 -30.78,-8.37 -52.42,-23.44 -21.64,-15.07 -36.97,-39.28 -46.11,-72.39l-10.95 0 0 52.42c38.25,36.97 85.78,55.39 142.71,55.39zm367.62 143.48l0 -181.61c29.75,26.53 65.18,39.67 106.39,39.67 30.27,0 60.79,-7.47 91.71,-22.41 31.04,-14.94 56.93,-38.64 77.8,-71.1 19.58,-29.75 29.37,-65.3 29.37,-106.9l-0.26 -10.56c-3.09,-42.51 -15.71,-78.18 -37.74,-106.91 -22.15,-28.85 -49.33,-49.97 -81.53,-63.63 -26.15,-11.07 -52.42,-16.62 -78.95,-16.62 -6.44,0 -19.58,1.03 -39.42,3.09 -19.71,1.93 -42.12,14.04 -67.36,36.19l0 -39.67 -100.34 20.74 0 12.88c7.6,-1.03 13.78,-1.54 18.93,-1.54 2.96,0 6.96,0.26 11.85,0.65 4.89,0.39 7.6,3.61 8.11,9.53l0 465.36c0,10.3 -2.06,16.49 -6.05,18.68 -3.99,2.06 -10.18,3.22 -18.55,3.22l-13.91 0 0 10.95 99.95 0zm94.02 -151.73c-5.28,0 -16.36,-1.03 -33.1,-3.22 -16.62,-2.19 -36.97,-16.1 -60.92,-42.12l0 -289.03c28.21,-29.11 59.12,-43.79 92.87,-43.79 2.58,0 13.65,0.77 33.62,2.32 19.84,1.55 43.79,17.77 71.62,48.82 27.95,31.17 43.53,73.54 46.88,127.38l0 5.67c0,40.7 -7.86,76.25 -23.44,106.39 -15.59,30.27 -36.2,53.07 -61.83,68.65 -21.25,12.62 -43.02,18.93 -65.69,18.93zm574.48 9.79c40.44,0 76.64,-9.27 108.45,-27.95 31.81,-18.55 54.61,-47.66 68.14,-87.07l-10.18 -3.09c-12.88,36.97 -34.26,64.14 -64.14,81.27 -30.01,17.26 -63.76,25.89 -101.5,25.89 -32.46,-0.51 -59.38,-10.43 -80.63,-29.75 -21.25,-19.45 -36.97,-43.66 -47.27,-72.64 -10.3,-29.11 -15.58,-57.7 -15.58,-85.91 0,-11.33 0.64,-22.41 1.93,-33.23l332.05 0c-5.54,-31.68 -17.52,-59.89 -36.07,-84.88 -18.42,-24.86 -41.6,-44.57 -69.42,-59.25 -27.69,-14.56 -58.09,-21.9 -91.06,-21.9 -36.71,0 -70.2,9.02 -100.21,27.05 -30.01,17.9 -54.1,41.99 -72.13,72 -17.9,30.14 -26.92,63.5 -26.92,100.21 0,38 9.27,72.13 27.69,102.27 18.54,30.27 43.15,53.84 73.8,70.97 30.66,17.13 65.05,25.76 103.04,26.02zm128.67 -243.43l-267.52 0c7.73,-42.25 23.83,-76.77 48.3,-103.68 24.34,-26.92 52.81,-40.44 85.27,-40.44 32.46,0 60.92,13.52 85.4,40.44 24.6,26.92 40.7,61.44 48.56,103.68zm406.52 243.43c57.32,-1.54 104.46,-24.6 141.17,-69.42l-7.99 -7.86c-33.87,43.41 -78.05,65.56 -132.41,66.33 -32.46,-0.51 -59.38,-10.43 -80.63,-29.75 -21.25,-19.45 -36.97,-43.66 -47.27,-72.64 -10.3,-29.11 -15.45,-57.7 -15.45,-85.91 0,-40.44 8.24,-76.51 24.86,-108.32 16.62,-31.68 38.26,-54.35 64.92,-68.26 18.03,-8.76 36.45,-13.14 55.13,-13.14 6.18,0 17.13,1.16 32.72,3.73 15.71,2.45 32.97,11.85 51.91,27.95 19.06,16.1 32.07,36.58 39.15,61.44l10.82 0 0 -56.16c-33.87,-31.04 -80.11,-46.5 -138.46,-46.5 -21.38,0 -41.73,2.83 -61.05,8.37 -41.86,13.01 -75.86,36.84 -102.14,71.49 -26.28,34.65 -39.41,74.45 -39.41,119.4 0,38 9.14,72.13 27.56,102.27 18.29,30.27 42.89,53.84 73.54,70.97 30.66,17.13 65.05,25.76 103.04,26.02zm343.92 -432c8.5,0 15.71,-3.09 21.64,-9.14 5.92,-6.05 8.89,-13.14 8.89,-21.51 0,-8.5 -2.96,-15.84 -8.89,-21.89 -5.92,-6.05 -13.14,-9.02 -21.64,-9.02 -8.63,0 -15.84,2.96 -21.9,9.02 -6.05,6.05 -9.01,13.39 -9.01,21.89 0,8.37 2.96,15.46 9.01,21.51 6.05,6.05 13.27,9.14 21.9,9.14zm73.55 432l0 -10.95 -14.3 0c-8.12,0 -14.17,-1.03 -18.16,-3.22 -3.99,-2.06 -6.05,-8.37 -6.05,-18.68l0 -365.67 -100.72 20.74 0 12.88c7.6,-1.03 13.91,-1.54 19.19,-1.54 3.09,0 7.08,0.26 11.98,0.65 4.89,0.39 7.47,3.61 7.73,9.53l0 323.42c0,10.31 -2.06,16.62 -6.05,18.68 -3.99,2.19 -10.05,3.22 -18.16,3.22l-14.3 0 0 10.95 138.85 0zm485.09 0l-100.08 0 0 -43.79c-14.56,14.17 -32.85,24.86 -54.74,32.33 -21.89,7.34 -44.44,11.08 -67.88,11.08l-7.98 0c-37.74,-2.45 -68.14,-14.81 -91.45,-36.71 -23.31,-22.02 -34.91,-46.37 -34.91,-73.03 0,-13.65 3.35,-26.79 10.18,-39.67 6.83,-12.88 17.52,-24.47 32.33,-34.91 14.68,-10.43 33.87,-19.06 57.44,-25.89 13.65,-3.48 26.66,-6.44 39.29,-9.02 24.21,-3.99 45.98,-10.82 65.43,-20.35 19.58,-9.53 36.84,-28.59 51.91,-57.06 -1.93,-59.5 -32.97,-89.39 -92.74,-89.39 -28.21,0 -53.84,8.24 -76.89,24.6 -22.93,16.36 -38.51,38.26 -46.5,65.95l-10.95 0 0 -56.16c17,-15.84 37.74,-27.57 61.95,-35.16 24.34,-7.47 49.72,-11.34 76.12,-11.34 100.34,0 150.57,33.23 150.57,99.7l0.39 264.17c0,10.95 1.8,17.78 5.41,20.1 3.61,2.45 10.05,3.6 19.06,3.6l14.04 0 0 10.95zm-202.74 -17.39c19.96,0 39.03,-3.61 57.58,-11.07 18.55,-7.47 33.49,-18.03 45.08,-31.94l-0.39 -212.78c-12.11,18.81 -25.63,32.59 -40.7,41.34 -15.07,8.63 -31.17,15.84 -48.3,21.64 -15.84,5.02 -31.94,11.85 -48.3,20.48 -18.42,10.56 -31.94,23.83 -40.57,39.93 -8.63,16.1 -13.01,32.46 -13.01,49.07 0,18.16 4.63,34.52 13.91,49.2 9.28,14.68 22.8,24.73 40.44,30.01 11.08,2.83 22.41,4.12 34.26,4.12zm469.63 17.39l0 -10.95 -14.3 0c-8.12,0 -14.17,-1.03 -18.16,-3.22 -3.99,-2.06 -6.05,-8.37 -6.05,-18.68l0 -507.48 -100.34 20.74 0 12.88c7.6,-1.03 13.65,-1.54 18.55,-1.54 2.96,0 6.95,0.13 11.98,0.52 5.02,0.39 7.73,3.61 7.99,9.66l0 465.23c0,10.31 -2.06,16.62 -6.05,18.68 -3.99,2.19 -10.05,3.22 -18.16,3.22l-14.3 0 0 10.95 138.85 0zm193.74 -432c8.5,0 15.71,-3.09 21.64,-9.14 5.92,-6.05 8.89,-13.14 8.89,-21.51 0,-8.5 -2.96,-15.84 -8.89,-21.89 -5.92,-6.05 -13.14,-9.02 -21.64,-9.02 -8.63,0 -15.84,2.96 -21.9,9.02 -6.05,6.05 -9.01,13.39 -9.01,21.89 0,8.37 2.96,15.46 9.01,21.51 6.05,6.05 13.27,9.14 21.9,9.14zm73.55 432l0 -10.95 -14.3 0c-8.11,0 -14.17,-1.03 -18.16,-3.22 -3.99,-2.06 -6.05,-8.37 -6.05,-18.68l0 -365.67 -100.72 20.74 0 12.88c7.6,-1.03 13.91,-1.54 19.19,-1.54 3.09,0 7.08,0.26 11.98,0.65 4.89,0.39 7.47,3.61 7.73,9.53l0 323.42c0,10.31 -2.06,16.62 -6.05,18.68 -3.99,2.19 -10.05,3.22 -18.16,3.22l-14.3 0 0 10.95 138.85 0zm447.35 0l0 -82.56 -10.95 0c0,19.32 -3.61,34.13 -10.95,44.44 -12.62,18.16 -35.93,27.17 -70.2,27.17l-140.39 0 238.93 -387.57 -310.93 0 0 82.69 10.95 0c0,-19.32 3.61,-34.26 10.95,-44.7 7.21,-10.43 17.39,-17.65 30.53,-21.77 11.59,-3.48 24.86,-5.28 40.06,-5.28l139.88 0 -239.18 387.56 311.31 0zm498.36 0l-100.08 0 0 -43.79c-14.56,14.17 -32.84,24.86 -54.74,32.33 -21.89,7.34 -44.44,11.08 -67.88,11.08l-7.98 0c-37.74,-2.45 -68.14,-14.81 -91.45,-36.71 -23.31,-22.02 -34.91,-46.37 -34.91,-73.03 0,-13.65 3.35,-26.79 10.18,-39.67 6.83,-12.88 17.52,-24.47 32.33,-34.91 14.68,-10.43 33.87,-19.06 57.44,-25.89 13.65,-3.48 26.66,-6.44 39.29,-9.02 24.21,-3.99 45.98,-10.82 65.43,-20.35 19.58,-9.53 36.84,-28.59 51.91,-57.06 -1.93,-59.5 -32.97,-89.39 -92.74,-89.39 -28.21,0 -53.84,8.24 -76.89,24.6 -22.93,16.36 -38.51,38.26 -46.5,65.95l-10.95 0 0 -56.16c17,-15.84 37.74,-27.57 61.95,-35.16 24.34,-7.47 49.72,-11.34 76.12,-11.34 100.34,0 150.57,33.23 150.57,99.7l0.39 264.17c0,10.95 1.8,17.78 5.41,20.1 3.61,2.45 10.05,3.6 19.06,3.6l14.04 0 0 10.95zm-202.74 -17.39c19.96,0 39.03,-3.61 57.58,-11.07 18.55,-7.47 33.49,-18.03 45.08,-31.94l-0.39 -212.78c-12.11,18.81 -25.63,32.59 -40.7,41.34 -15.07,8.63 -31.17,15.84 -48.3,21.64 -15.84,5.02 -31.94,11.85 -48.3,20.48 -18.42,10.56 -31.94,23.83 -40.57,39.93 -8.63,16.1 -13.01,32.46 -13.01,49.07 0,18.16 4.63,34.52 13.91,49.2 9.28,14.68 22.8,24.73 40.44,30.01 11.08,2.83 22.41,4.12 34.26,4.12zm543.57 4.64c5.28,0 16.36,-1.16 33.36,-3.22 17,-2.19 37.48,-15.71 61.7,-40.57l0 -285.29c-28.21,-30.66 -59.38,-46.11 -93.64,-46.11 -2.19,0 -13.27,0.64 -32.98,1.8 -19.71,1.03 -43.66,17.26 -71.74,48.69 -27.95,31.3 -43.54,73.93 -46.5,128.03l0 7.6c0,39.93 7.73,74.71 23.18,104.33 15.46,29.49 36.07,51.78 61.7,66.59 20.61,12.11 42.25,18.16 64.92,18.16zm195 12.75l-99.95 0 0 -40.31c-29.62,26.92 -65.69,40.31 -107.94,40.31 -28.85,0 -58.61,-7.21 -89,-21.64 -30.53,-14.56 -56.16,-37.35 -77.15,-68.52 -21,-31.17 -31.56,-68.91 -31.56,-113.22l0 -2.96c2.32,-43.53 14.43,-80.24 36.58,-109.87 22.16,-29.62 49.59,-51.39 82.31,-65.3 25.63,-11.07 51.52,-16.62 77.67,-16.62 7.08,0 20.74,1.16 41.22,3.22 20.35,2.19 43.02,14.68 67.88,37.61l0 -140.78c-0.52,-6.05 -4.12,-9.27 -10.95,-9.79l-9.02 -0.39c-4.12,0 -10.3,0.52 -18.94,1.54l0 -12.88 100.47 -20.74 0 505.68c0,11.47 2.06,18.42 6.18,20.48 4.12,2.19 10.18,3.22 18.29,3.22l13.91 0 0 10.95zm485.09 0l-100.08 0 0 -43.79c-14.56,14.17 -32.84,24.86 -54.74,32.33 -21.89,7.34 -44.44,11.08 -67.88,11.08l-7.98 0c-37.74,-2.45 -68.14,-14.81 -91.45,-36.71 -23.31,-22.02 -34.91,-46.37 -34.91,-73.03 0,-13.65 3.35,-26.79 10.18,-39.67 6.83,-12.88 17.52,-24.47 32.33,-34.91 14.69,-10.43 33.88,-19.06 57.45,-25.89 13.65,-3.48 26.66,-6.44 39.29,-9.02 24.21,-3.99 45.98,-10.82 65.43,-20.35 19.58,-9.53 36.84,-28.59 51.91,-57.06 -1.93,-59.5 -32.97,-89.39 -92.74,-89.39 -28.21,0 -53.84,8.24 -76.9,24.6 -22.92,16.36 -38.51,38.26 -46.5,65.95l-10.95 0 0 -56.16c17,-15.84 37.74,-27.57 61.95,-35.16 24.34,-7.47 49.72,-11.34 76.12,-11.34 100.34,0 150.57,33.23 150.57,99.7l0.39 264.17c0,10.95 1.8,17.78 5.41,20.1 3.61,2.45 10.05,3.6 19.06,3.6l14.04 0 0 10.95zm-202.74 -17.39c19.96,0 39.03,-3.61 57.58,-11.07 18.55,-7.47 33.49,-18.03 45.08,-31.94l-0.39 -212.78c-12.11,18.81 -25.63,32.59 -40.7,41.34 -15.07,8.63 -31.17,15.84 -48.3,21.64 -15.84,5.02 -31.94,11.85 -48.3,20.48 -18.42,10.56 -31.94,23.83 -40.57,39.93 -8.63,16.1 -13.01,32.46 -13.01,49.07 0,18.16 4.63,34.52 13.91,49.2 9.28,14.68 22.8,24.73 40.44,30.01 11.08,2.83 22.41,4.12 34.26,4.12z"/>
  <polygon class="fil0 str1" points="6281,647.93 6367.9,553.24 6311.05,553.24 6273.21,642.41 "/>
  <g id="_2319736147952">
   <path class="fil1" d="M319.08 1336.05c185.28,-483.18 653.54,-826.19 1201.91,-826.19 130.13,0 255.75,19.32 374.15,55.24l136.47 -201.34c-159.6,-56.87 -331.49,-87.84 -510.61,-87.84 -679.32,0 -1254.62,445.42 -1449.75,1060.14l247.82 0z"/>
   <path class="fil1" d="M2473.65 2657.67l135.35 200.56c267.76,-274.13 432.77,-649.06 432.77,-1062.53 0,-387.61 -145.01,-741.35 -383.75,-1009.93l-136.23 200.98c388.69,505.32 375.45,1202.79 -48.14,1670.92z"/>
   <path class="fil1" d="M234.19 1796.67c0,-59.91 4.09,-118.86 12.02,-176.58l-235.82 0c-128.51,1111.13 957.26,1986.21 2018.3,1610.54l-135.96 -204.23c-853.96,231.43 -1658.54,-377.6 -1658.54,-1229.73z"/>
  </g>
  <path class="fil1" d="M26.59 1620.09l881.46 0 0 288.44 -881.46 0c-14.41,-96.23 -14.64,-192.38 0,-288.44z"/>
  <path class="fil2" d="M906.34 1211.6l1310.3 1937.32c74.81,-39.57 179.41,-99.14 241.51,-155.12l-1212.58 -1801.34 -339.24 19.13z"/>
  <path class="fil2" d="M2366.53 550.39l0.09 -0.12 0.09 -0.17 0.1 -0.17 0.1 -0.17 0.09 -0.17 0.11 -0.16 0.09 -0.18 0.38 -0.64c2.28,-3.82 4.52,-7.66 6.77,-11.5 2.23,-3.85 4.47,-7.7 6.69,-11.56 2.21,-3.86 4.43,-7.73 6.61,-11.6 2.19,-3.87 4.37,-7.76 6.54,-11.66 2.16,-3.89 4.32,-7.78 6.44,-11.7 2.14,-3.91 4.26,-7.83 6.37,-11.75 2.1,-3.92 4.21,-7.86 6.29,-11.8 2.07,-3.94 4.13,-7.88 6.19,-11.85 2.05,-3.96 4.09,-7.92 6.11,-11.89 2.02,-3.97 4.04,-7.96 6.02,-11.95 2,-3.99 3.98,-7.98 5.93,-12 1.97,-4.01 3.92,-8.03 5.84,-12.05 1.93,-4.03 3.85,-8.06 5.76,-12.1 1.92,-4.05 3.78,-8.09 5.65,-12.16 1.88,-4.07 3.73,-8.14 5.57,-12.23 1.85,-4.08 3.66,-8.17 5.47,-12.27 1.81,-4.09 3.6,-8.21 5.37,-12.32 1.77,-4.12 3.54,-8.25 5.28,-12.4 1.73,-4.13 3.47,-8.28 5.18,-12.43 1.49,-3.63 2.97,-7.24 4.42,-10.88l0.65 -1.63c1.69,-4.17 3.35,-8.37 4.98,-12.56 1.65,-4.2 3.28,-8.4 4.89,-12.6 1.6,-4.21 3.2,-8.44 4.78,-12.7 1.57,-4.22 3.12,-8.47 4.66,-12.72 1.55,-4.25 3.07,-8.52 4.58,-12.82 1.5,-4.28 2.98,-8.56 4.45,-12.87 1.46,-4.29 2.92,-8.59 4.35,-12.9 1.43,-4.32 2.85,-8.66 4.25,-13 1.38,-4.34 2.76,-8.68 4.12,-13.04 1.36,-4.37 2.69,-8.75 4.01,-13.13 1.32,-4.38 2.62,-8.77 3.9,-13.18 1.27,-4.41 2.54,-8.83 3.78,-13.25 1.23,-4.44 2.46,-8.87 3.66,-13.31 1.2,-4.47 2.39,-8.94 3.55,-13.42 10.8,-41.52 19.86,-83.96 27.06,-127.39 9.25,52.91 15.9,104.54 20.16,154.98 0.47,5.42 0.9,10.85 1.3,16.23 0.4,5.39 0.77,10.75 1.12,16.1 0.34,5.37 0.66,10.72 0.96,16.06 0.28,5.3 0.56,10.62 0.79,15.9 0.24,5.3 0.45,10.59 0.64,15.85 0.17,5.26 0.33,10.5 0.47,15.73 0.13,5.23 0.23,10.46 0.31,15.67 0.07,5.18 0.13,10.37 0.15,15.52l0.02 0.91c0.02,4.88 0.02,9.73 -0.01,14.58 -0.02,5.14 -0.06,10.27 -0.14,15.4 -0.08,5.1 -0.18,10.2 -0.3,15.27 -0.14,5.09 -0.29,10.15 -0.45,15.23 -0.17,5.05 -0.37,10.08 -0.59,15.1 -0.22,5.03 -0.45,10.04 -0.75,15.05 -0.27,4.98 -0.55,9.98 -0.88,14.94 -0.32,4.97 -0.66,9.93 -1.03,14.88 -0.36,4.93 -0.76,9.85 -1.18,14.77 -0.41,4.92 -0.85,9.8 -1.32,14.71 -0.45,4.88 -0.95,9.74 -1.45,14.61 -0.51,4.86 -1.04,9.71 -1.59,14.54 -0.55,4.83 -1.11,9.65 -1.72,14.46 -0.6,4.8 -1.21,9.6 -1.86,14.38 -0.64,4.78 -1.3,9.55 -1.99,14.3 -0.7,4.76 -1.41,9.49 -2.13,14.23 -0.73,4.72 -1.49,9.45 -2.26,14.15 -0.77,4.7 -1.57,9.39 -2.39,14.07 -0.81,4.68 -1.65,9.35 -2.51,14 -0.86,4.65 -1.74,9.29 -2.65,13.92 -0.9,4.65 -1.81,9.26 -2.75,13.87 -0.95,4.6 -1.91,9.2 -2.88,13.78 -0.99,4.58 -2,9.14 -3.01,13.71 -1.03,4.56 -2.08,9.1 -3.14,13.64 -1.05,4.52 -2.14,9.05 -3.25,13.57 -1.1,4.5 -2.23,9.01 -3.36,13.49 -1.14,4.49 -2.31,8.97 -3.48,13.43 -1.18,4.46 -2.38,8.92 -3.6,13.37 -1.23,4.43 -2.45,8.87 -3.71,13.29 -1.25,4.42 -2.51,8.83 -3.82,13.24 -1.29,4.4 -2.61,8.79 -3.93,13.17 -1.33,4.37 -2.68,8.75 -4.06,13.1 -1.36,4.36 -2.74,8.69 -4.14,13.04 -1.39,4.32 -2.83,8.66 -4.26,12.98 -1.43,4.32 -2.89,8.63 -4.37,12.92 -1.47,4.29 -2.96,8.58 -4.48,12.85 -1.49,4.29 -3.02,8.55 -4.57,12.8 -1.53,4.25 -3.09,8.5 -4.65,12.74 -1.59,4.23 -3.18,8.46 -4.78,12.68 -1.61,4.21 -3.25,8.42 -4.89,12.61 -1.63,4.2 -3.29,8.39 -4.96,12.55 -1.68,4.18 -3.35,8.36 -5.07,12.52 -1.7,4.15 -3.42,8.3 -5.17,12.44 -1.72,4.14 -3.48,8.29 -5.26,12.39 -1.77,4.13 -3.55,8.25 -5.35,12.36 -1.79,4.1 -3.6,8.2 -5.44,12.27 -1.82,4.1 -3.67,8.17 -5.52,12.24 -1.87,4.06 -3.74,8.13 -5.63,12.19 -1.89,4.04 -3.78,8.09 -5.72,12.12 -1.92,4.03 -3.85,8.06 -5.79,12.09 -1.95,4.01 -3.91,8.02 -5.89,12.02 -1.98,4 -3.97,7.99 -5.97,11.98 -2,3.99 -4.01,7.97 -6.04,11.95 -2.04,3.96 -4.09,7.92 -6.14,11.88 -2.07,3.94 -4.12,7.89 -6.21,11.82 -2.08,3.95 -4.18,7.87 -6.3,11.79 -1.82,3.4 -3.66,6.79 -5.5,10.17l-0.87 1.59c-2.13,3.9 -4.27,7.81 -6.43,11.7 -2.16,3.9 -4.32,7.78 -6.51,11.66 -2.18,3.88 -4.38,7.76 -6.59,11.63 -2.21,3.86 -4.43,7.71 -6.69,11.57 -2.23,3.84 -4.48,7.67 -6.73,11.52 -2.27,3.83 -4.55,7.66 -6.83,11.49 -2.3,3.82 -4.6,7.62 -6.89,11.43 -2.31,3.8 -4.63,7.59 -6.97,11.39 -2.34,3.8 -4.68,7.57 -7.05,11.36 -2.35,3.76 -4.72,7.54 -7.1,11.32 -2.38,3.76 -4.77,7.51 -7.17,11.28l-0.26 0.4c-2.3,3.62 -4.61,7.23 -6.95,10.86 -2.42,3.72 -4.84,7.47 -7.29,11.19 -2.45,3.73 -4.91,7.45 -7.38,11.16l-2.43 3.64 -5 7.49c-2.47,3.71 -4.97,7.4 -7.48,11.1 -2.5,3.68 -5.02,7.38 -7.53,11.06 -2.53,3.69 -5.06,7.36 -7.6,11.03 -2.54,3.67 -5.09,7.34 -7.66,11 -2.56,3.66 -5.14,7.31 -7.71,10.95 -2.59,3.64 -5.18,7.29 -7.77,10.94 -2.6,3.63 -5.22,7.26 -7.83,10.89 -2.61,3.62 -5.24,7.23 -7.87,10.86 -2.64,3.62 -5.28,7.23 -7.94,10.82 -2.65,3.62 -5.31,7.21 -7.98,10.81 -2.67,3.62 -5.35,7.2 -8.04,10.77 -2.69,3.6 -5.37,7.17 -8.08,10.74 -2.7,3.58 -5.42,7.16 -8.14,10.73 -2.37,3.12 -4.78,6.26 -7.18,9.38l-1 1.3c-2.74,3.56 -5.47,7.11 -8.21,10.66 -2.75,3.55 -5.51,7.09 -8.27,10.63 -2.77,3.55 -5.54,7.08 -8.32,10.61 -2.78,3.53 -5.56,7.05 -8.36,10.58 -2.8,3.52 -5.59,7.05 -8.4,10.58 -2.81,3.51 -5.62,7.03 -8.44,10.53 -2.82,3.51 -5.64,7.01 -8.48,10.52 -2.83,3.5 -5.67,7.01 -8.52,10.49 -2.84,3.49 -5.7,6.98 -8.54,10.47 -2.86,3.48 -5.73,6.96 -8.6,10.45 -2.88,3.48 -5.75,6.96 -8.62,10.43 -2.89,3.47 -5.78,6.94 -8.67,10.41l-8.7 10.38 -8.72 10.38 -8.76 10.35 -8.79 10.33 -8.81 10.31 -8.86 10.3 -8.86 10.27 -8.91 10.27 -8.92 10.26 -8.95 10.23 -8.97 10.23 -8.99 10.21 -9.03 10.2 -9.02 10.19 -9.06 10.18 -9.06 10.16 -9.08 10.17 -9.1 10.15 -9.12 10.14 -9.12 10.14 -9.15 10.14 -9.14 10.11 -9.17 10.12 -9.17 10.11 -9.18 10.11 -9.18 10.1 -9.19 10.1 -9.2 10.1 -9.2 10.09 -9.19 10.08 -9.21 10.1 -9.2 10.09 -9.21 10.08 -9.2 10.09 -9.19 10.1 -9.2 10.1 -4.62 5.07 -4.55 5.03 -9.18 10.12 -9.15 10.12 -9.16 10.11 -9.16 10.12 -9.15 10.12 -9.14 10.12 -9.14 10.14 -9.11 10.15 -9.12 10.14 -2.19 2.46 -6.87 7.7 -6.66 7.5 -2.38 2.7c-3.01,3.38 -6.03,6.78 -9.04,10.18l-6.18 7.02 -2.82 3.19 -8.99 10.21c-3,3.4 -5.99,6.8 -8.98,10.21 -2.39,2.73 -4.76,5.44 -7.13,8.17l-1.82 2.07 -8.93 10.26 -8.91 10.25 -8.89 10.29 -8.86 10.29 -8.83 10.31 -8.79 10.31 -8.8 10.36 -8.72 10.35c-2.91,3.45 -5.81,6.91 -8.71,10.38 -2.9,3.47 -5.8,6.93 -8.68,10.4l-8.64 10.42c-2.87,3.48 -5.74,6.96 -8.6,10.45 -2.86,3.48 -5.73,6.97 -8.56,10.46 -2.86,3.5 -5.7,7 -8.53,10.49 -2.83,3.51 -5.68,7 -8.49,10.52l-2.18 2.73 -6.23 7.81c-2.8,3.51 -5.59,7.05 -8.38,10.57 -2.77,3.53 -5.56,7.07 -8.32,10.61 -2.79,3.54 -5.56,7.09 -8.3,10.63 -2.76,3.54 -5.5,7.09 -8.23,10.65 -2.74,3.55 -5.49,7.11 -8.2,10.68 -2.73,3.57 -5.44,7.14 -8.15,10.7 -2.7,3.58 -5.4,7.17 -8.09,10.75 -2.69,3.59 -5.37,7.16 -8.04,10.77 -2.68,3.59 -5.34,7.2 -7.98,10.8 -2.65,3.61 -5.31,7.23 -7.93,10.84 -2.65,3.62 -5.26,7.25 -7.87,10.87 -2.61,3.63 -5.23,7.26 -7.81,10.9 -2.59,3.64 -5.18,7.29 -7.75,10.93 -2.59,3.66 -5.14,7.32 -7.71,10.98 -2.56,3.66 -5.1,7.33 -7.63,11 -2.54,3.67 -5.06,7.35 -7.56,11.05 -2.52,3.68 -5.03,7.38 -7.51,11.08 -2.49,3.7 -4.98,7.41 -7.43,11.12 -2.46,3.72 -4.92,7.43 -7.36,11.16 -2.45,3.72 -4.89,7.46 -7.3,11.2 -2.42,3.75 -4.83,7.5 -7.22,11.24 -2.4,3.77 -4.78,7.52 -7.16,11.3 -2.37,3.76 -4.72,7.55 -7.07,11.33 -2.35,3.79 -4.68,7.58 -7,11.39 -2.31,3.79 -4.63,7.6 -6.92,11.42 -2.29,3.79 -4.56,7.65 -6.83,11.47 -2.27,3.83 -4.53,7.66 -6.77,11.51 -2.23,3.85 -4.47,7.7 -6.68,11.57 -1.36,2.41 -2.75,4.81 -4.09,7.21l-2.5 4.41c-2.19,3.87 -4.35,7.78 -6.52,11.65 -2.16,3.9 -4.29,7.81 -6.43,11.71 -2.12,3.92 -4.25,7.84 -6.34,11.77 -2.1,3.93 -4.18,7.86 -6.24,11.81 -2.07,3.95 -4.13,7.91 -6.16,11.87 -2.03,3.97 -4.06,7.95 -6.06,11.93 -2,3.99 -3.99,7.97 -5.96,11.98 -1.96,4.02 -3.93,8.03 -5.87,12.05 -1.94,4.02 -3.86,8.06 -5.76,12.09 -1.92,4.06 -3.8,8.1 -5.68,12.16 -1.87,4.06 -3.72,8.14 -5.57,12.21 -1.84,4.09 -3.66,8.18 -5.46,12.27l-0.22 0.51c-1.73,3.93 -3.45,7.88 -5.14,11.82 -1.79,4.14 -3.52,8.26 -5.27,12.39 -1.73,4.15 -3.44,8.31 -5.15,12.46 -1.69,4.17 -3.37,8.35 -5.02,12.54 -1.66,4.18 -3.3,8.39 -4.91,12.6 -1.61,4.21 -3.21,8.44 -4.79,12.67 -1.58,4.23 -3.13,8.48 -4.66,12.74l-1.28 3.53c-1.1,3.09 -2.21,6.17 -3.3,9.26 -1.5,4.28 -2.98,8.55 -4.44,12.87 -1.46,4.29 -2.91,8.61 -4.34,12.94 -1.42,4.32 -2.81,8.66 -4.17,13.01 -1.39,4.36 -2.74,8.72 -4.09,13.09 -1.33,4.37 -2.63,8.77 -3.93,13.17 -1.3,4.42 -2.56,8.83 -3.81,13.26 -1.25,4.43 -2.46,8.87 -3.66,13.32 -1.2,4.44 -2.38,8.92 -3.52,13.4 -1.16,4.49 -2.3,8.98 -3.4,13.49 -1.11,4.52 -2.19,9.03 -3.25,13.56 -1.07,4.54 -2.1,9.09 -3.12,13.65 -1.01,4.57 -2.01,9.15 -2.97,13.74 -0.56,2.65 -1.1,5.28 -1.65,7.94 -0.41,1.94 -0.83,3.91 -1.22,5.84 -0.95,4.63 -1.85,9.25 -2.71,13.88 -0.87,4.68 -1.69,9.35 -2.5,14.02l-0.03 0.27 -0.06 -0.32c-0.77,-4.51 -1.51,-9.18 -2.25,-13.95l-0.5 -3.11 -2.79 -17.1c-0.91,-5.59 -1.83,-11.27 -2.76,-17.07 -0.9,-5.58 -1.8,-11.28 -2.7,-17.05 -0.87,-5.58 -1.76,-11.25 -2.63,-17.01 -0.86,-5.57 -1.69,-11.21 -2.54,-16.95 -0.81,-5.54 -1.62,-11.18 -2.42,-16.88 -0.77,-5.54 -1.53,-11.14 -2.31,-16.81 -0.74,-5.52 -1.46,-11.09 -2.18,-16.75 -0.7,-5.5 -1.38,-11.04 -2.06,-16.66 -0.64,-5.46 -1.29,-11 -1.91,-16.58 -0.6,-5.45 -1.19,-10.96 -1.77,-16.51 -0.56,-5.42 -1.1,-10.9 -1.62,-16.41 -0.51,-5.39 -0.99,-10.85 -1.46,-16.32 -0.46,-5.38 -0.91,-10.79 -1.32,-16.24 -0.41,-5.35 -0.8,-10.73 -1.18,-16.14l-0.06 -1.03c-0.32,-4.96 -0.62,-9.98 -0.9,-15.02 -0.3,-5.27 -0.57,-10.58 -0.83,-15.94 -0.25,-5.26 -0.47,-10.55 -0.68,-15.87 -0.2,-5.23 -0.37,-10.48 -0.53,-15.78 -0.14,-4.69 -0.25,-9.43 -0.33,-14.19l-0.01 -1.49c-0.1,-5.15 -0.14,-10.34 -0.18,-15.55 -0.03,-5.13 -0.04,-10.29 -0.02,-15.47 0.02,-5.1 0.07,-10.23 0.15,-15.38 0.07,-5.07 0.17,-10.17 0.29,-15.29 0.13,-5.05 0.27,-10.11 0.44,-15.2 0.19,-5.03 0.38,-10.07 0.62,-15.12 0.22,-4.98 0.47,-9.99 0.75,-15.02 0.28,-4.95 0.59,-9.93 0.91,-14.92 0.32,-4.94 0.69,-9.89 1.06,-14.86 0.37,-4.89 0.79,-9.81 1.22,-14.75 0.42,-4.86 0.88,-9.75 1.37,-14.66 0.48,-4.85 0.98,-9.7 1.52,-14.57 0.52,-4.83 1.07,-9.66 1.66,-14.5 0.57,-4.79 1.17,-9.59 1.82,-14.41 0.62,-4.76 1.26,-9.53 1.93,-14.33 0.68,-4.72 1.39,-9.47 2.12,-14.22 0.45,-2.92 0.91,-5.85 1.39,-8.79l0.86 -5.37c0.76,-4.68 1.54,-9.38 2.38,-14.07 0.8,-4.66 1.65,-9.31 2.53,-13.99 0.86,-4.62 1.75,-9.26 2.67,-13.91 0.91,-4.6 1.85,-9.2 2.82,-13.81 0.97,-4.57 1.95,-9.16 2.97,-13.74 1,-4.55 2.04,-9.1 3.09,-13.67 1.07,-4.51 2.15,-9.03 3.24,-13.57 1.11,-4.49 2.22,-8.99 3.37,-13.49l1.23 -4.72c0.73,-2.9 1.49,-5.8 2.27,-8.7 1.18,-4.45 2.42,-8.89 3.66,-13.33 1.25,-4.42 2.52,-8.83 3.83,-13.23 1.29,-4.39 2.63,-8.77 3.98,-13.14 1.35,-4.37 2.73,-8.71 4.14,-13.06 1.4,-4.32 2.83,-8.63 4.29,-12.95 1.46,-4.29 2.93,-8.59 4.45,-12.88 1.49,-4.27 3.02,-8.53 4.57,-12.79 1.55,-4.24 3.13,-8.47 4.72,-12.69 1.6,-4.23 3.22,-8.44 4.87,-12.63 1.64,-4.19 3.31,-8.38 5,-12.56 1.68,-4.15 3.39,-8.31 5.13,-12.45 1.74,-4.14 3.49,-8.27 5.27,-12.4 1.77,-4.12 3.57,-8.21 5.4,-12.32 0.97,-2.16 1.95,-4.35 2.93,-6.53 0.86,-1.91 1.72,-3.81 2.59,-5.71 1.85,-4.06 3.73,-8.13 5.65,-12.17 1.9,-4.04 3.83,-8.06 5.78,-12.09 1.93,-4.02 3.89,-8.04 5.88,-12.04 1.96,-3.98 3.97,-7.98 5.97,-11.97l2.71 -5.33 3.36 -6.58c2.05,-3.96 4.11,-7.9 6.2,-11.85 2.08,-3.94 4.18,-7.86 6.3,-11.78 2.12,-3.91 4.26,-7.83 6.42,-11.72 2.15,-3.89 4.33,-7.78 6.54,-11.65 2.19,-3.87 4.4,-7.73 6.65,-11.59 2.21,-3.85 4.45,-7.69 6.73,-11.53 2.25,-3.83 4.53,-7.65 6.83,-11.47 1.85,-3.07 3.7,-6.14 5.57,-9.2l1.35 -2.23c2.33,-3.79 4.66,-7.58 7.01,-11.36 2.35,-3.78 4.72,-7.55 7.1,-11.32 2.38,-3.76 4.78,-7.51 7.2,-11.27 2.41,-3.74 4.83,-7.48 7.28,-11.21 2.45,-3.72 4.9,-7.43 7.38,-11.16 2.47,-3.71 4.95,-7.4 7.46,-11.11 2.51,-3.69 5.01,-7.37 7.55,-11.05 2.53,-3.68 5.06,-7.35 7.62,-11 2.54,-3.68 5.11,-7.33 7.7,-10.98 2.58,-3.64 5.17,-7.28 7.78,-10.93 2.61,-3.63 5.23,-7.24 7.86,-10.87l3.99 -5.47 3.93 -5.37c2.64,-3.61 5.31,-7.21 7.98,-10.8 2.66,-3.6 5.35,-7.19 8.05,-10.77 2.69,-3.59 5.39,-7.16 8.09,-10.73 2.73,-3.58 5.46,-7.13 8.2,-10.69l9.03 -10.19 180.89 105.67 -180.89 -105.67 18.08 -20.36 78.45 45.82 0.01 -0.01 -78.46 -45.82 9.04 -10.19 27.16 15.86 -27.16 -15.86c89.92,-101.27 320.38,-360.34 373.7,-415.83l9.54 -9.89 5 -5.16 4.55 -4.72 9.5 -9.92 9.51 -9.91 9.5 -9.92 9.52 -9.91 7.12 -7.4 2.39 -2.51 9.52 -9.89 9.5 -9.94 9.48 -9.92 9.46 -9.95 9.46 -9.94 9.44 -9.95 9.43 -9.96 9.41 -9.96 9.38 -9.99 9.38 -9.98 9.34 -10.02 9.33 -10.02 9.3 -10.02 9.3 -10.05 9.25 -10.05 9.23 -10.07 9.22 -10.1 9.18 -10.1 3.76 -4.13 5.4 -5.99c3.05,-3.36 6.1,-6.74 9.13,-10.11l9.11 -10.15 9.07 -10.18 9.03 -10.18 9.01 -10.23 8.96 -10.22c2.98,-3.42 5.95,-6.83 8.92,-10.24 2.97,-3.43 5.94,-6.85 8.91,-10.28 2.96,-3.43 5.89,-6.86 8.85,-10.28 2.93,-3.44 5.88,-6.89 8.82,-10.33 2.93,-3.44 5.86,-6.88 8.78,-10.33 2.92,-3.46 5.84,-6.91 8.73,-10.37 2.91,-3.47 5.8,-6.92 8.7,-10.38 2.88,-3.48 5.79,-6.93 8.66,-10.42 2.88,-3.48 5.74,-6.95 8.61,-10.44 2.86,-3.47 5.71,-6.97 8.56,-10.46l1.97 -2.41c0.01,-0.14 0.07,-0.14 0.11,-0.19l6.4 -7.9 0.05 -0.06 0.09 -0.1 0.05 -0.07 0.07 -0.1 0.06 -0.07 0.07 -0.09 0.08 -0.09 0.05 -0.09 0.08 -0.09 0.06 -0.06 0.09 -0.1 0.05 -0.06 0.09 -0.1 0.05 -0.06 0.09 -0.12 0.04 -0.04 0.1 -0.14 0.02 -0.04 0.12 -0.14 0.02 -0.02 0.12 -0.17 0.02 -0.01 0.13 -0.16 0.14 -0.17 0.12 -0.17 0.01 -0.02 0.12 -0.15 0.03 -0.02 0.12 -0.14 0.02 -0.04 0.1 -0.13 0.02 -0.03 0.11 -0.13 0.03 -0.06 0.1 -0.11 0.06 -0.06 0.08 -0.11 0.12 -0.17 0.14 -0.16 0.13 -0.17 0.14 -0.17 0.14 -0.16 0.13 -0.17 0.13 -0.17 0.13 -0.16 3.7 -4.6 0.14 -0.17 0.26 -0.32 0.14 -0.16 0.13 -0.17 0.14 -0.14 0.13 -0.18 0.14 -0.15 0.13 -0.17 0.02 -0.02 0.11 -0.13 0.11 -0.14 0.02 -0.02 0.14 -0.16 0.06 -0.1 0.07 -0.08 0.12 -0.17 0.03 -0.03 0.11 -0.13 0.12 -0.16 0 -0.01 0.14 -0.17 0.08 -0.09 0.05 -0.06 0.13 -0.17 0.06 -0.05 0.08 -0.11 0.14 -0.16 0.01 -0.02 0.13 -0.15 0.09 -0.12 0.03 -0.04 0.14 -0.17 0.06 -0.06 0.07 -0.1 0.13 -0.17 0.02 -0.03 0.12 -0.13 0.11 -0.14 0.02 -0.02 0.13 -0.17 0.07 -0.08 0.06 -0.07 0.14 -0.17 0.03 -0.04 0.09 -0.13 0.14 -0.14 0 -0.02 0.14 -0.16 0.07 -0.1 0.05 -0.06 0.14 -0.17 0.04 -0.05 0.1 -0.11 0.12 -0.17 0.01 0 0.14 -0.17 0.09 -0.12 0.03 -0.04 0.14 -0.17 0.05 -0.06 0.07 -0.1 0.14 -0.16 0.02 -0.02 0.11 -0.14 0.11 -0.14 0.01 -0.02 0.15 -0.17 0.06 -0.09 0.23 -0.27 0.09 -0.14 0.14 -0.15 0 -0.02 0.14 -0.16 0.07 -0.11 0.06 -0.06 0.14 -0.15 0.04 -0.06 0.1 -0.11 0.13 -0.17 0.14 -0.16 0.09 -0.12 0.03 -0.05 0.14 -0.17 0.04 -0.06 0.08 -0.09 0.13 -0.17 0.02 0 0.11 -0.16 0.11 -0.14 0.02 -0.03 0.14 -0.17 0.06 -0.09 0.06 -0.08 0.14 -0.16 0.03 -0.03 0.1 -0.13 0.13 -0.17 0.14 -0.16 0.07 -0.11 0.06 -0.06 0.14 -0.17 0.03 -0.06 0.09 -0.11 0.14 -0.17 0.06 -0.09 0.07 -0.08 0.13 -0.17 0.08 -0.1 0.06 -0.06 0.13 -0.16 0.09 -0.11 0.04 -0.05 0.13 -0.17 0.1 -0.14 0.02 -0.02 0.13 -0.17 0.13 -0.15 0.01 -0.02 0.13 -0.16 0.14 -0.17 0.12 -0.16 0.14 -0.17 0.01 -0.02 0.12 -0.14 0.13 -0.17 0.04 -0.04 0.1 -0.12 0.13 -0.17 0.06 -0.06 0.08 -0.1 0.14 -0.17 0.04 -0.07 0.08 -0.1 0.14 -0.16 0.06 -0.09 0.07 -0.08 0.13 -0.16 0.09 -0.11 0.05 -0.06 0.13 -0.16 0.1 -0.13 0.03 -0.05 0.14 -0.15 0.13 -0.17 0.13 -0.15 0.14 -0.18 0.12 -0.16 0.14 -0.17 0.12 -0.16 0.13 -0.17 0.13 -0.17 0.14 -0.16 0.13 -0.17 0.13 -0.17 0.13 -0.17 0.14 -0.15 0.14 -0.17 0.12 -0.17 0.14 -0.16 0.12 -0.17 0.14 -0.17 0.13 -0.16 0.12 -0.16 0.14 -0.17 0.12 -0.16 0.14 -0.17 0.12 -0.16 0.13 -0.17 0.14 -0.15 0.14 -0.17 0.12 -0.16 0.13 -0.17 0.14 -0.17 0.12 -0.18 0.14 -0.15 0.65 -0.83 0.26 -0.33 0.05 -0.08 0.08 -0.09 0.4 -0.49 0.12 -0.17 0.05 -0.06 0.08 -0.09 0.14 -0.17 0.12 -0.17 0.09 -0.1 0.05 -0.07 0.13 -0.17 0.03 -0.03 1.01 -1.28 0.06 -0.06 0.08 -0.1 0.34 -0.44 0.06 -0.06 0.12 -0.17 0.04 -0.04 0.1 -0.12 0.11 -0.15 0.01 -0.02 0.13 -0.16 0.08 -0.09 0.06 -0.07 0.12 -0.17 0.03 -0.03 0.1 -0.13 0.12 -0.14 0.02 -0.04 0.14 -0.17 0.05 -0.06 0.08 -0.1 0.13 -0.17 0 -0.01 0.13 -0.15 0.09 -0.12 0.04 -0.05 0.14 -0.17 0.05 -0.05 0.08 -0.12 0.14 -0.14 -0.01 -0.01 0.13 -0.17 0.07 -0.1 0.05 -0.07 0.14 -0.16 0.03 -0.04 0.09 -0.14 0.11 -0.13 0.03 -0.04 0.12 -0.17 0.07 -0.06 0.06 -0.1 0.14 -0.17 0 -0.01 0.13 -0.16 0.09 -0.12 0.04 -0.04 0.14 -0.17 0.04 -0.06 0.09 -0.11 0.12 -0.15 0.01 0 0.14 -0.17 0.07 -0.1 0.05 -0.06 0.14 -0.17 0.02 -0.02 0.11 -0.14 0.11 -0.15 0.02 -0.02 0.12 -0.17 0.06 -0.08 0.06 -0.08 0.13 -0.17 0.01 -0.02 0.11 -0.14 0.1 -0.13 0.03 -0.05 0.13 -0.15 0.26 -0.34 0.09 -0.1 0.04 -0.06 0.13 -0.17 0.09 -0.12 0.05 -0.05 0.13 -0.17 0.08 -0.11 0.05 -0.04 0.14 -0.17 0.07 -0.1 0.05 -0.06 0.46 -0.6 0.06 -0.07 0.13 -0.15 0.07 -0.11 0.06 -0.06 0.13 -0.17 0.07 -0.1 0.05 -0.06 0.14 -0.17 0.07 -0.08 0.06 -0.07 0.14 -0.17 0.08 -0.08 0.06 -0.09 0.13 -0.15 0.06 -0.09 0.06 -0.08 0.14 -0.17 0.06 -0.08 0.06 -0.09 0.13 -0.15 0.14 -0.17 0.12 -0.17 0.14 -0.16 0.26 -0.33 0.13 -0.17 0.13 -0.16 2.07 -2.66 0.12 -0.17 0.4 -0.49 0.13 -0.17 0.14 -0.17 0.13 -0.16 0.26 -0.33 0.13 -0.17 0.14 -0.17 0.12 -0.16 0.13 -0.16 0.14 -0.17 0.12 -0.17 0.11 -0.14 0.02 -0.03 0.14 -0.15 0.07 -0.09 0.06 -0.08 0.13 -0.17 0.02 -0.02 0.1 -0.13 0.09 -0.14 0.04 -0.04 0.12 -0.16 0.06 -0.06 0.08 -0.11 0.12 -0.15 0.14 -0.18 0.07 -0.1 0.06 -0.06 0.12 -0.17 0.03 -0.03 0.11 -0.14 0.1 -0.14 0.02 -0.02 0.13 -0.17 0.06 -0.07 0.07 -0.08 0.13 -0.17 0.01 -0.02 0.12 -0.16 0.08 -0.11 0.04 -0.06 0.14 -0.17 0.05 -0.04 0.09 -0.11 0.1 -0.17 0.02 -0.01 0.13 -0.17 0.06 -0.08 0.19 -0.25 0.02 -0.02 0.1 -0.14 0.11 -0.13 0.02 -0.04 0.14 -0.17 0.05 -0.07 0.08 -0.1 0.13 -0.17 0 -0.01 0.14 -0.15 0.09 -0.11 0.04 -0.06 0.13 -0.17 0.02 -0.05 0.09 -0.12 0.11 -0.14 0.02 -0.02 0.13 -0.17 0.06 -0.09 0.07 -0.08 0.12 -0.17 0.02 -0.02 0.02 -0.02 0.22 -0.29 0.13 -0.17 0.05 -0.06 0.08 -0.11 0.13 -0.16 0.13 -0.17 0.07 -0.1 0.06 -0.07 0.12 -0.17 0.03 -0.02 0.1 -0.13 0.1 -0.14 0.02 -0.02 0.14 -0.17 0.05 -0.07 0.07 -0.1 0.13 -0.16 0.01 -0.02 0.12 -0.15 0.08 -0.11 0.06 -0.07 0.13 -0.16 0.04 -0.04 0.08 -0.12 0.01 -0.02 0.26 -0.31 0.06 -0.09 0.06 -0.08 0.14 -0.16 0.02 -0.02 0.09 -0.14 0.1 -0.13 0.04 -0.02 0.13 -0.18 0.05 -0.08 0.07 -0.1 0.13 -0.17 0.12 -0.17 0.09 -0.09 0.06 -0.08 0.13 -0.16 0.06 -0.06 0.06 -0.1 0.13 -0.17 0.26 -0.34 0.01 -0.04 0.1 -0.13 0.13 -0.17 0.02 -0.02 0.11 -0.16 0.13 -0.15 0 -0.01 0.14 -0.17 0.12 -0.14 0 -0.02 0.12 -0.18 0.11 -0.11 0.03 -0.05 0.12 -0.17 0.09 -0.1 0.04 -0.06 0.05 -0.06 0.08 -0.11 0.02 -0.02 0.1 -0.13 0.01 -0.02 0.07 -0.1 0.07 -0.06 0.12 -0.18 0.02 -0.01 0.08 -0.12 0.03 -0.03 0.06 -0.09 0.06 -0.08 0.05 -0.04 0.08 -0.13 0.1 -0.13 0.04 -0.04 0.12 -0.17 0.04 -0.03 0.1 -0.13 0 -0.01 0.09 -0.12 0.03 -0.04 0.07 -0.08 0.06 -0.09 0.03 -0.03 0.18 -0.25 0.04 -0.06 0.06 -0.07 0.06 -0.09 0.04 -0.02 0.09 -0.12 0.02 -0.03 0.08 -0.09 0.06 -0.07 0.05 -0.06 0.07 -0.1 0.11 -0.14 0.01 -0.04 0.07 -0.1 0.06 -0.07 0.06 -0.06 0.18 -0.25 0.02 -0.02 0.07 -0.1 0.06 -0.07 0.04 -0.05 0.09 -0.12 0.01 0 0.37 -0.5 0.09 -0.12 0.04 -0.04 0.05 -0.09 0.07 -0.08 0.02 -0.05 0.1 -0.12 0.18 -0.25 0.07 -0.1 0.02 -0.03 0.09 -0.12 0.02 0 0.08 -0.14 0.04 -0.03 0.05 -0.07 0.07 -0.1 0.03 -0.02 0.09 -0.13 0.14 -0.2 0.04 -0.06 0.1 -0.1 0.01 -0.01 0.1 -0.14 0.02 -0.02 0.07 -0.1 0.06 -0.06 0.05 -0.06 0.08 -0.12 0.01 0.02 0.09 -0.15 0.02 -0.02 0.08 -0.1 0.05 -0.07 0.05 -0.06 0.09 -0.11 0 -0.01 0.1 -0.13 0.02 -0.04 0.08 -0.08 0.06 -0.08 0.02 -0.05 0.09 -0.12 0.12 -0.17 0.06 -0.06 0.34 -0.45 0.11 -0.14 0.02 -0.03 0.14 -0.17 0.06 -0.09 0.06 -0.09 0.13 -0.15 0.03 -0.06 0.09 -0.12 0.13 -0.16 0.02 0 0.11 -0.15 0.1 -0.15 0.02 -0.04 0.12 -0.16 0.07 -0.09 0.06 -0.08 0.13 -0.17 0.04 -0.05 0.1 -0.12 0.13 -0.17 0.12 -0.17 0.1 -0.13 0.02 -0.04 0.14 -0.17 0.05 -0.09 0.07 -0.08 0.13 -0.17 0.03 -0.03 0.1 -0.13 0.12 -0.17 0.01 -0.01 0.12 -0.17 0.09 -0.12 0.03 -0.05 0.14 -0.17 0.05 -0.08 0.07 -0.09 0.13 -0.16 0.02 -0.04 0.1 -0.13 0.12 -0.15 0.01 -0.03 0.12 -0.15 0.09 -0.12 0.05 -0.05 0.12 -0.17 0.06 -0.06 0.09 -0.1 0.12 -0.17 0.02 -0.03 0.1 -0.14 0.11 -0.14 0.02 -0.02 0.13 -0.17 0.09 -0.11 0.05 -0.06 0.25 -0.33 0.13 -0.17 0.01 -0.02 0.12 -0.15 0.11 -0.14 0.01 -0.02 0.14 -0.17 0.07 -0.1 0.05 -0.07 0.14 -0.17 0.04 -0.06 0.08 -0.11 0.12 -0.16 0.02 -0.02 0.11 -0.15 0.1 -0.14 0.04 -0.03 0.13 -0.17 0.06 -0.09 0.06 -0.07 0.12 -0.17 0.04 -0.05 0.09 -0.13 0.12 -0.17 0.02 0 0.11 -0.16 0.1 -0.14 0.03 -0.04 0.12 -0.17 0.07 -0.08 0.06 -0.09 0.13 -0.17 0.03 -0.04 0.1 -0.12 0.13 -0.17 0.1 -0.14 0.02 -0.03 0.12 -0.18 0.08 -0.08 0.37 -0.49 0.07 -0.09 0.05 -0.07 0.06 -0.09 0.06 -0.06 0.07 -0.1 0.04 -0.06 0.07 -0.11 0.06 -0.06 0.11 -0.16 0.1 -0.12 0.03 -0.03 0.11 -0.17 0.09 -0.13 0.03 -0.03 0.22 -0.31 0.02 -0.02 0.1 -0.14 0.02 -0.01 0.12 -0.17 0.12 -0.16 0.01 -0.01 0.1 -0.16 0.02 -0.02 0.23 -0.31 0.01 -0.02 0.1 -0.14 0.13 -0.16 0.02 -0.04 0.14 -0.17 0.07 -0.1 0.05 -0.06 0.07 -0.1 0.05 -0.06 0.08 -0.1 0.06 -0.07 0.06 -0.1 0.06 -0.07 0.06 -0.08 0.06 -0.09 0.06 -0.08 0.06 -0.1 0.06 -0.06 0.12 -0.15 0.07 -0.12 0.06 -0.06 0.08 -0.11 0.04 -0.04 0.08 -0.11 0.04 -0.06 0.1 -0.12 0.02 -0.04 0.11 -0.14 0.02 -0.03 0.11 -0.14 0 -0.02 0.1 -0.15 0.02 -0.01 0.11 -0.15 0.02 -0.02 0.11 -0.14 0.01 -0.02 0.12 -0.17 0.13 -0.16 -0.01 -0.01 0.13 -0.14 0.02 -0.03 0.1 -0.13 0.01 -0.03 0.11 -0.13 0.02 -0.04 0.1 -0.13 0.02 -0.03 0.1 -0.13 0.03 -0.05 0.08 -0.12 0.03 -0.06 0.1 -0.09 0.04 -0.06 0.08 -0.1 0.04 -0.07 0.07 -0.09 0.06 -0.07 0.07 -0.09 0.06 -0.08 0.06 -0.09 0.06 -0.08 0.04 -0.07 0.08 -0.09 0.06 -0.07 0.07 -0.1 0.06 -0.06 0.07 -0.11 0.03 -0.06 0.1 -0.12 0.04 -0.03 0.09 -0.12 0.04 -0.05 0.08 -0.13 0.02 -0.04 0.1 -0.13 0.02 -0.02 0.09 -0.14 0.02 -0.02 0.12 -0.14 0.01 -0.02 0.12 -0.15 0 -0.01 0.12 -0.16 0.13 -0.17 0.06 -0.07 0.07 -0.1 0.13 -0.15 0.02 -0.04 0.1 -0.14 0.13 -0.16 0 -0.02 0.13 -0.17 0.07 -0.09 0.07 -0.06 0.1 -0.19 0.05 -0.02 0.09 -0.14 0.11 -0.16 0.02 -0.02 0.19 -0.27 0.05 -0.07 0.13 -0.16 0.05 -0.06 0.08 -0.11 0.12 -0.17 0.02 0 0.11 -0.16 0.1 -0.13 0.03 -0.05 0.14 -0.16 0.04 -0.07 0.09 -0.1 0.11 -0.17 0.02 -0.02 0.11 -0.15 0.09 -0.14 0.02 -0.01 0.13 -0.18 0.06 -0.09 0.07 -0.07 0.12 -0.17 0.02 -0.03 0.09 -0.12 0.13 -0.17 0.01 -0.02 0.13 -0.16 0.08 -0.11 0.06 -0.07 0.12 -0.17 0.04 -0.06 0.08 -0.11 0.12 -0.17 0.14 -0.17 0.09 -0.12 0.03 -0.05 0.14 -0.17 0.05 -0.06 0.07 -0.11 0.13 -0.16 0.02 -0.02 0.11 -0.14 0.09 -0.15 0.03 -0.01 0.12 -0.18 0.07 -0.07 0.06 -0.08 0.12 -0.17 0.02 -0.03 0.09 -0.13 0.12 -0.15 0.02 -0.02 0.12 -0.17 0.07 -0.11 0.05 -0.06 0.14 -0.16 0.03 -0.05 0.09 -0.12 0.13 -0.17 0.13 -0.17 0.12 -0.17 0.14 -0.17 0.12 -0.17 0.12 -0.17 0.12 -0.16 0.14 -0.17 0.12 -0.17 0.14 -0.16 0.11 -0.17 0.12 -0.17 0.13 -0.17 0.14 -0.16 0.12 -0.17 0.13 -0.17 0.02 -0.02 0.11 -0.14 0.05 -0.08 0.07 -0.1 0.26 -0.33 0 -0.01 0.12 -0.17 0.04 -0.06 0.09 -0.11 0.07 -0.1 0.04 -0.07 0.13 -0.14 0 -0.01 0.26 -0.35 0.06 -0.08 0.06 -0.09 0.09 -0.14 0.02 -0.04 0.13 -0.16 0.01 -0.02 0.11 -0.15 0.06 -0.06 0.07 -0.1 0.08 -0.12 0.04 -0.06 0.11 -0.17 0.04 -0.02 0.93 -1.28 0.04 -0.05 0.13 -0.17 0.12 -0.17 0.2 -0.27 0.05 -0.06 0.12 -0.17 0.01 -0.02 0.13 -0.16 0.02 -0.05 0.17 -0.21 0.06 -0.09 0.42 -0.57 0.07 -0.1 0.1 -0.12 0.03 -0.05 0.12 -0.16 0.01 0 0.12 -0.16 0.03 -0.07 0.09 -0.11 0.24 -0.32 0.01 -0.02 0.13 -0.17 0.01 -0.02 0.23 -0.32 0.1 -0.13 0.02 -0.03 0.37 -0.51 0.09 -0.11 0.04 -0.06 0.11 -0.17 0.01 0 0.13 -0.17 0.03 -0.03 0.1 -0.14 0.06 -0.08 0.07 -0.09 0.09 -0.15 0.02 -0.02 0.13 -0.17 0.02 -0.02 0.11 -0.14 0.05 -0.07 0.07 -0.1 0.09 -0.13 0.04 -0.03 0.12 -0.17 0.12 -0.17 0.04 -0.06 0.1 -0.11 0.07 -0.1 0.05 -0.06 0.27 -0.37 0.2 -0.28 0.2 -0.26 0.2 -0.29 0.21 -0.27 5.24 -7.22 1.57 -2.19 0.08 -0.1 0.05 -0.06 0.08 -0.14 0.04 -0.04 0.1 -0.15 0.02 -0.02 0.11 -0.17 0.01 -0.01 0.11 -0.17 0.02 0 0.14 -0.17 0.01 -0.02 0.1 -0.14 0.05 -0.06 0.08 -0.11 0.05 -0.08 0.06 -0.09 0.07 -0.1 0.06 -0.07 0.08 -0.12 0.04 -0.06 0.1 -0.14 0.02 -0.02 0.12 -0.16 0.01 -0.02 0.13 -0.16 0.01 -0.02 0.1 -0.16 0.02 -0.03 0.1 -0.14 0.03 -0.06 0.09 -0.13 0.05 -0.05 0.07 -0.12 0.06 -0.08 0.07 -0.09 0.07 -0.1 0.04 -0.06 0.09 -0.14 0.04 -0.05 0.09 -0.14 0.02 -0.02 0.12 -0.17 0.13 -0.17 0.01 -0.02 0.1 -0.14 0.04 -0.04 0.09 -0.13 0.04 -0.07 0.08 -0.1 0.06 -0.09 0.05 -0.09 0.06 -0.1 0.06 -0.06 0.09 -0.13 0.04 -0.06 0.1 -0.14 0.02 -0.03 0.38 -0.51 0.01 -0.04 0.1 -0.13 0.02 -0.06 0.09 -0.12 0.05 -0.07 0.07 -0.09 0.07 -0.1 0.05 -0.06 0.1 -0.13 0.03 -0.06 0.1 -0.14 0.02 -0.03 0.11 -0.16 0.01 -0.02 0.12 -0.17 0.14 -0.17 0.01 -0.02 0.11 -0.14 0.03 -0.05 0.09 -0.13 0.05 -0.06 0.08 -0.12 0.06 -0.09 0.06 -0.09 0.08 -0.09 0.05 -0.07 0.09 -0.13 0.04 -0.04 0.1 -0.15 0.02 -0.02 0.12 -0.16 0.01 0 0.11 -0.17 0.02 -0.02 0.11 -0.15 0.02 -0.04 0.1 -0.13 0.03 -0.06 0.09 -0.11 0.06 -0.08 0.07 -0.1 0.07 -0.09 0.05 -0.09 0.07 -0.1 0.06 -0.06 0.1 -0.13 0.02 -0.03 0.12 -0.17 0.12 -0.17 0.12 -0.17 0.12 -0.17 0.13 -0.15 0.02 -0.05 0.09 -0.13 0.04 -0.06 0.09 -0.12 0.12 -0.17 0.05 -0.08 0.07 -0.09 0.07 -0.09 0.05 -0.08 0.09 -0.11 0.04 -0.07 0.08 -0.13 0.03 -0.04 0.09 -0.13 0.03 -0.03 0.11 -0.16 0 -0.01 0.13 -0.16 0 -0.02 0.13 -0.17 0 -0.01 0.13 -0.16 0.01 -0.02 0.1 -0.16 0.02 -0.03 0.1 -0.14 0.03 -0.04 0.1 -0.12 0.02 -0.06 0.1 -0.11 0.05 -0.07 0.06 -0.1 0.07 -0.08 0.05 -0.09 0.08 -0.1 0.06 -0.06 0.08 -0.12 0.04 -0.06 0.08 -0.13 0.04 -0.03 0.1 -0.15 0.02 -0.02 0.11 -0.16 0.01 -0.01 0.13 -0.16 0.11 -0.18 0.02 -0.02 0.1 -0.16 0.02 -0.02 0.1 -0.15 0.02 -0.04 0.1 -0.12 0.04 -0.06 0.08 -0.12 0.05 -0.07 0.09 -0.1 0.06 -0.08 0.06 -0.09 0.06 -0.1 0.05 -0.07 0.09 -0.11 0.04 -0.04 0.09 -0.14 0.03 -0.05 0.09 -0.14 0.02 -0.03 0.12 -0.14 0.02 -0.02 0.12 -0.17 0.01 0 0.11 -0.17 0.01 -0.01 0.11 -0.16 0.02 -0.02 0.1 -0.15 0.03 -0.03 0.1 -0.13 0.03 -0.07 0.08 -0.12 0.05 -0.06 0.07 -0.09 0.06 -0.08 0.08 -0.09 0.05 -0.09 0.06 -0.09 0.08 -0.1 0.04 -0.06 0.08 -0.11 0.04 -0.06 0.09 -0.13 0.02 -0.04 0.11 -0.15 0.01 -0.02 0.12 -0.15 0.01 0 0.13 -0.18 0 -0.01 0.11 -0.17 0.02 -0.02 0.11 -0.15 0.02 -0.03 0.09 -0.14 0.03 -0.05 0.1 -0.12 0.05 -0.06 0.07 -0.1 0.05 -0.08 0.07 -0.09 0.06 -0.09 0.07 -0.09 0.07 -0.1 0.04 -0.06 0.08 -0.14 0.04 -0.05 0.1 -0.13 0.02 -0.05 0.1 -0.14 0.02 -0.04 0.12 -0.15 0 -0.02 0.13 -0.16 0.11 -0.17 0.02 -0.02 0.11 -0.16 0.06 -0.1 0.16 -0.25 0.02 -0.01 0.1 -0.17 0.08 -0.1 0.05 -0.08 0.24 -0.33 0.06 -0.1 0.06 -0.08 0.11 -0.17 0.01 -0.01 0.1 -0.17 0.07 -0.1 0.06 -0.07 0.13 -0.17 -0.01 0 0.12 -0.17 0.07 -0.09 0.06 -0.09 0.12 -0.16 0.01 0 0.12 -0.17 0.06 -0.1 0.06 -0.07 0.12 -0.18 0.14 -0.17 0.05 -0.09 0.06 -0.06 0.11 -0.19 0.14 -0.17 0.05 -0.09 0.06 -0.09 0.13 -0.16 -0.01 -0.01 0.13 -0.17 0.06 -0.08 0.06 -0.09 0.11 -0.17 0.12 -0.17 0.12 -0.16 0.13 -0.18 0.13 -0.17 0.11 -0.17 0.11 -0.17 0.14 -0.18 0.11 -0.17 0.12 -0.17 0.14 -0.16 0.11 -0.17 0.12 -0.17 0.96 -1.37 0.12 -0.17 0.35 -0.52 0.13 -0.18 0.24 -0.34 0.12 -0.16 0.1 -0.19 0.14 -0.15 0.13 -0.18 0.11 -0.17 0.13 -0.17 0.11 -0.17 0.13 -0.17 0.11 -0.16 0.13 -0.17 0.02 -0.06 0.09 -0.13 0.08 -0.13 0.03 -0.04 0.13 -0.17 0.02 -0.02 0.1 -0.14 0.06 -0.11 0.05 -0.06 0.11 -0.17 0.01 -0.01 0.13 -0.16 0.05 -0.09 0.06 -0.07 0.11 -0.17 0.02 -0.01 0.11 -0.17 0.04 -0.06 0.07 -0.1 0.1 -0.14 0.03 -0.04 0.13 -0.17 0.02 -0.04 0.09 -0.13 0.07 -0.11 0.05 -0.06 0.12 -0.16 0.01 -0.02 0.11 -0.15 0.06 -0.11 0.06 -0.06 0.1 -0.17 0.02 -0.02 0.12 -0.17 0.04 -0.06 0.07 -0.1 0.11 -0.14 0.01 -0.03 0.13 -0.17 0.02 -0.06 0.09 -0.12 0.09 -0.12 0.03 -0.06 0.12 -0.16 0.02 -0.03 0.11 -0.14 0.08 -0.1 0.03 -0.07 0.12 -0.17 0.01 -0.01 0.1 -0.16 0.07 -0.08 0.06 -0.1 0.11 -0.15 0.02 -0.03 0.11 -0.17 0.05 -0.06 0.06 -0.12 0.1 -0.14 0.02 -0.04 0.13 -0.17 0.02 -0.03 0.09 -0.14 0.07 -0.11 0.04 -0.07 0.13 -0.17 0.02 0 0.1 -0.16 0.06 -0.09 0.06 -0.09 0.11 -0.17 0 -0.01 0.13 -0.16 0.05 -0.09 0.08 -0.09 0.09 -0.16 0.02 -0.02 0.12 -0.17 0.04 -0.06 0.09 -0.13 0.08 -0.12 0.04 -0.06 0.12 -0.17 0.02 -0.04 0.09 -0.14 0.25 -0.35 0 -0.01 0.11 -0.17 0.06 -0.07 0.06 -0.09 0.12 -0.17 0.11 -0.17 0.13 -0.17 0.11 -0.17 0.12 -0.17 0.12 -0.18 0.12 -0.18 0.11 -0.17 0.11 -0.17 0.11 -0.14 0.02 -0.02 0.11 -0.17 0.01 -0.02 0.11 -0.17 0.02 -0.02 0.1 -0.15 0.03 -0.05 0.09 -0.14 0.04 -0.06 0.07 -0.11 0.07 -0.09 0.04 -0.08 0.1 -0.12 0.02 -0.05 0.11 -0.15 0.02 -0.02 0.13 -0.16 0.11 -0.17 0 -0.03 0.11 -0.14 0.04 -0.06 0.09 -0.13 0.05 -0.07 0.07 -0.09 0.07 -0.1 0.02 -0.06 0.1 -0.14 0.03 -0.05 0.11 -0.16 0.02 0 0.11 -0.18 0.01 0 0.1 -0.17 0.03 -0.03 0.09 -0.14 0.04 -0.06 0.09 -0.12 0.05 -0.08 0.06 -0.08 0.08 -0.11 0.04 -0.06 0.09 -0.14 0.02 -0.03 0.11 -0.17 0.02 0 0.11 -0.18 0.01 -0.01 0.1 -0.16 0.03 -0.04 0.09 -0.14 0.04 -0.06 0.07 -0.11 0.07 -0.09 0.05 -0.09 0.09 -0.12 0.04 -0.06 0.09 -0.14 0.02 -0.02 0.12 -0.17 0.12 -0.17 0.01 -0.03 0.11 -0.14 0.03 -0.05 0.08 -0.14 0.05 -0.06 0.07 -0.1 0.07 -0.11 0.06 -0.07 0.21 -0.32 0.01 -0.03 0.13 -0.17 -0.01 -0.01 0.12 -0.17 0.02 -0.03 0.09 -0.14 0.05 -0.06 0.08 -0.1 0.06 -0.11 0.18 -0.25 0.09 -0.12 0.02 -0.06 0.09 -0.15 0.02 -0.02 0.11 -0.17 0.14 -0.21 0.1 -0.14 0.05 -0.06 0.07 -0.1 0.08 -0.09 0.05 -0.09 0.06 -0.1 0.05 -0.06 0.1 -0.15 0.02 -0.02 0.1 -0.17 0.02 -0.02 0.12 -0.17 0 -0.02 0.11 -0.16 0.11 -0.17 0.06 -0.07 0.06 -0.1 0.08 -0.1 0.06 -0.07 0.07 -0.13 0.04 -0.05 0.1 -0.15 0.01 -0.02 0.11 -0.17 0.14 -0.17 0.02 -0.03 0.09 -0.14 0.11 -0.17 0.12 -0.17 0 0 0.13 -0.17 0.04 -0.06 0.07 -0.1 0.35 -0.52 0.06 -0.08 0.06 -0.09 0.11 -0.14 0.01 -0.03 0.14 -0.22 0.1 -0.13 0.25 -0.33 0 -0.02 0.08 -0.13 0.03 -0.02 0.06 -0.1 0.06 -0.07 0.04 -0.06 0.08 -0.12 0.01 -0.02 0.09 -0.13 0.02 -0.02 0.08 -0.11 0.04 -0.06 0.05 -0.07 0.06 -0.1 0.03 -0.02 0.08 -0.14 0.01 -0.02 0.09 -0.12 0.04 -0.06 0.05 -0.08 0.06 -0.09 0.03 -0.03 0.08 -0.14 0.09 -0.14 0.04 -0.04 0.06 -0.09 0.06 -0.09 0.02 -0.04 0.09 -0.13 0.01 -0.01 0.08 -0.14 0.02 -0.02 0.07 -0.1 0.05 -0.06 0.04 -0.06 0.07 -0.11 0.02 -0.03 0.1 -0.13 0.02 -0.02 0.07 -0.1 0.04 -0.07 0.06 -0.06 0.06 -0.1 0.02 -0.03 0.09 -0.13 0.02 -0.01 0.08 -0.12 0.03 -0.06 0.06 -0.08 0.06 -0.1 0.02 -0.02 0.1 -0.14 0.09 -0.13 0.03 -0.04 0.06 -0.09 0.04 -0.09 0.05 -0.06 0.08 -0.11 0.01 -0.02 0.09 -0.13 0.02 -0.03 0.06 -0.1 0.06 -0.08 0.05 -0.06 0.08 -0.11 0.02 -0.02 0.09 -0.14 0.01 -0.02 0.07 -0.11 0.05 -0.06 0.05 -0.07 0.07 -0.1 0.01 -0.03 0.1 -0.13 -0.01 -0.02 0.09 -0.12 0.04 -0.06 0.06 -0.07 0.06 -0.1 0.03 -0.03 0.09 -0.14 0.09 -0.14 0.02 -0.05 0.07 -0.09 0.05 -0.08 0.03 -0.06 0.08 -0.12 0.02 -0.01 0.09 -0.14 0.02 -0.02 0.07 -0.1 0.06 -0.09 0.04 -0.04 0.07 -0.12 0.01 -0.02 0.1 -0.14 0.01 -0.03 0.07 -0.1 0.04 -0.06 0.06 -0.06 0.06 -0.1 0.02 -0.04 0.08 -0.14 0.02 0 0.08 -0.13 0.03 -0.05 0.06 -0.08 0.06 -0.09 0.03 -0.04 0.09 -0.13 0.06 -0.08 0.06 -0.09 0.1 -0.14 0.01 -0.02 0.13 -0.18 0.02 -0.02 0.1 -0.15 0.06 -0.08 0.06 -0.1 0.09 -0.14 0.02 -0.04 0.12 -0.16 0.02 -0.04 0.1 -0.14 0.05 -0.1 0.07 -0.08 0.09 -0.15 0.01 -0.02 0.14 -0.17 0.01 -0.03 0.09 -0.16 0.06 -0.07 0.06 -0.09 0.1 -0.15 0.01 -0.02 0.12 -0.17 0.02 -0.04 0.1 -0.14 0.05 -0.09 0.06 -0.08 0.09 -0.14 0.02 -0.04 0.12 -0.17 0.02 -0.03 0.09 -0.14 0.06 -0.09 0.06 -0.09 0.09 -0.14 0.01 -0.04 0.12 -0.17 0.03 -0.03 0.09 -0.14 0.06 -0.09 0.05 -0.09 0.1 -0.14 0.03 -0.02 0.1 -0.17 0.02 -0.04 0.1 -0.14 0.06 -0.1 0.05 -0.07 0.1 -0.17 0.02 -0.01 0.13 -0.18 0.02 -0.03 0.09 -0.14 0.06 -0.1 0.05 -0.08 0.1 -0.14 0.01 -0.03 0.12 -0.17 0.03 -0.03 0.08 -0.14 0.06 -0.1 0.06 -0.07 0.1 -0.18 0.13 -0.17 0.13 -0.17 0.1 -0.17 0.12 -0.19 0.12 -0.16 0.12 -0.19 0.1 -0.16 0.13 -0.18 0.1 -0.17 0.12 -0.17 0.12 -0.17 0.11 -0.18 0.11 -0.17 0.13 -0.18 0.11 -0.17 0.12 -0.17 0.12 -0.17 0.11 -0.17 0.12 -0.17 0.11 -0.17 0.11 -0.17 0.12 -0.18 0.13 -0.17 0.09 -0.17 0.14 -0.17 0.11 -0.18 0.11 -0.17 0.11 -0.17 0.04 -0.06 0.07 -0.11 0.08 -0.11 0.03 -0.06 0.12 -0.16 0.01 -0.01 0.11 -0.17 0.03 -0.05 0.08 -0.14 0.07 -0.09 0.05 -0.07 0.1 -0.14 0.03 -0.05 0.1 -0.17 0.02 -0.02 0.1 -0.16 0.04 -0.06 0.07 -0.12 0.07 -0.12 0.04 -0.05 0.1 -0.18 0.02 0 0.11 -0.17 0.02 -0.05 0.09 -0.14 0.07 -0.08 0.05 -0.09 0.09 -0.13 0.02 -0.04 0.11 -0.17 0.03 -0.02 0.09 -0.16 0.05 -0.07 0.06 -0.1 0.09 -0.12 0.03 -0.06 0.12 -0.18 0.57 -0.85 0.02 -0.04 0.29 -0.45 0.03 -0.04 0.11 -0.18 0.01 -0.01 0.1 -0.17 0.05 -0.06 0.06 -0.11 0.08 -0.11 0.38 -0.6 0.07 -0.09 0.05 -0.09 0.1 -0.14 0.01 -0.04 0.11 -0.17 0.03 -0.02 0.08 -0.16 0.06 -0.07 0.3 -0.45 0.11 -0.16 0.03 -0.06 0.43 -0.66 0.01 -0.02 0.44 -0.68 0.12 -0.17 0.06 -0.06 0.07 -0.1 0.22 -0.35 0.1 -0.17 0.14 -0.17 0.1 -0.17 0.12 -0.17 0.1 -0.17 0.12 -0.18 0.06 -0.08 0.06 -0.1 0.06 -0.1 0.06 -0.08 0.07 -0.12 0.04 -0.06 0.21 -0.34 0.01 -0.01 0.24 -0.35 0.02 -0.04 0.09 -0.14 0.11 -0.17 0.06 -0.09 0.06 -0.09 0.07 -0.12 0.05 -0.06 0.09 -0.14 0.02 -0.03 0.11 -0.15 0 -0.02 0.12 -0.17 0.02 -0.02 0.09 -0.17 0.03 -0.03 0.09 -0.14 0.03 -0.06 0.08 -0.12 0.06 -0.06 0.05 -0.1 0.08 -0.09 0.05 -0.09 0.08 -0.11 0.02 -0.06 0.1 -0.15 0.13 -0.2 0.11 -0.16 0.01 -0.04 0.1 -0.14 0.04 -0.06 0.08 -0.12 0.04 -0.09 0.06 -0.09 0.07 -0.1 0.06 -0.08 0.08 -0.1 0.03 -0.07 0.09 -0.14 0.03 -0.02 0.1 -0.17 0.01 0 0.11 -0.17 0.02 -0.02 0.1 -0.17 0.01 -0.03 0.1 -0.14 0.04 -0.06 0.07 -0.11 0.06 -0.09 0.06 -0.09 0.06 -0.11 0.05 -0.06 0.07 -0.13 0.04 -0.05 0.1 -0.16 0 -0.02 0.12 -0.17 0.01 -0.01 0.11 -0.17 0.03 -0.04 0.08 -0.14 0.03 -0.06 0.08 -0.12 0.05 -0.07 0.06 -0.1 0.06 -0.11 0.05 -0.06 0.09 -0.12 0.04 -0.06 0.08 -0.15 0.03 -0.02 0.1 -0.17 0.01 -0.01 0.11 -0.17 0.02 -0.02 0.1 -0.15 0.02 -0.05 0.09 -0.13 0.03 -0.07 0.07 -0.11 0.06 -0.08 0.06 -0.1 0.08 -0.1 0.03 -0.06 0.09 -0.14 0.03 -0.05 0.1 -0.16 0 -0.02 0.12 -0.16 0.01 -0.02 0.1 -0.17 0.02 -0.03 0.1 -0.14 0.04 -0.06 0.07 -0.11 0.05 -0.08 0.06 -0.1 0.07 -0.11 0.04 -0.06 0.08 -0.13 0.03 -0.05 0.1 -0.15 0.02 -0.02 0.11 -0.18 0.12 -0.17 0.01 -0.03 0.1 -0.15 0.04 -0.06 0.07 -0.11 0.07 -0.11 0.03 -0.06 0.1 -0.15 0.01 -0.02 0.12 -0.17 0.02 -0.02 0.09 -0.15 0.05 -0.07 0.07 -0.1 0.02 -0.06 0.09 -0.12 0.02 -0.02 0.1 -0.16 0 -0.01 0.1 -0.15 0.02 -0.02 0.08 -0.14 0.03 -0.05 0.06 -0.11 0.04 -0.06 0.06 -0.09 0.06 -0.09 0.05 -0.07 0.06 -0.1 0.04 -0.06 0.07 -0.12 0.03 -0.03 0.09 -0.14 0.01 -0.02 0.1 -0.16 0.01 0 0.1 -0.15 0.01 -0.04 0.09 -0.12 0.02 -0.05 0.07 -0.09 0.05 -0.08 0.06 -0.09 0.06 -0.09 0.05 -0.06 0.06 -0.11 0.03 -0.06 0.08 -0.12 0.11 -0.17 0.01 -0.02 0.09 -0.15 0.01 -0.01 0.12 -0.17 0.08 -0.13 0.04 -0.04 0.06 -0.11 0.06 -0.08 0.05 -0.07 0.06 -0.1 0.03 -0.06 0.08 -0.11 0.02 -0.03 0.08 -0.14 0.02 -0.03 0.1 -0.14 -0.01 -0.01 0.1 -0.15 0.02 -0.01 0.09 -0.15 0.03 -0.03 0.06 -0.13 0.05 -0.05 0.06 -0.1 0.05 -0.08 0.04 -0.08 0.06 -0.1 0.04 -0.06 0.08 -0.12 0.03 -0.04 0.07 -0.14 0.01 -0.02 0.1 -0.15 0.01 -0.02 0.1 -0.15 0.01 -0.02 0.09 -0.13 0.02 -0.05 0.09 -0.12 0.04 -0.06 0.11 -0.17 0.04 -0.06 0.07 -0.12 0.02 -0.05 0.09 -0.13 0.02 -0.03 0.08 -0.14 0.01 -0.01 0.11 -0.15 -0.01 -0.02 0.1 -0.14 0.03 -0.03 0.06 -0.13 0.04 -0.06 0.07 -0.09 0.04 -0.09 0.11 -0.17 0.03 -0.06 0.07 -0.11 0.03 -0.05 0.08 -0.13 0.03 -0.02 0.09 -0.15 -0.02 -0.01 0.12 -0.15 0.01 -0.02 0.1 -0.14 0.02 -0.05 0.07 -0.11 0.03 -0.06 0.08 -0.09 0.03 -0.08 0.06 -0.08 0.06 -0.09 0.03 -0.06 0.08 -0.11 0.02 -0.02 0.09 -0.15 0.02 -0.02 0.09 -0.15 0.06 -0.08 0.06 -0.09 0.07 -0.11 0.05 -0.07 0.09 -0.14 0.03 -0.03 0.11 -0.18 0.1 -0.18 0.02 -0.04 0.09 -0.12 0.05 -0.08 0.06 -0.1 0.07 -0.11 0.04 -0.06 0.1 -0.16 0.02 -0.02 0.11 -0.17 0.01 -0.01 0.1 -0.17 0.03 -0.06 0.08 -0.12 0.06 -0.08 0.06 -0.1 0.08 -0.11 0.03 -0.06 0.11 -0.16 -0.01 -0.01 0.12 -0.17 0.02 -0.04 0.09 -0.13 0.03 -0.07 0.09 -0.1 0.06 -0.11 0.06 -0.07 0.08 -0.14 0.02 -0.04 0.13 -0.17 0.06 -0.13 0.04 -0.05 0.03 -0.06 0.07 -0.13 0.09 -0.11 0.02 -0.06 0.04 -0.06 0.07 -0.11 0.02 -0.01 0.08 -0.12 0.02 -0.06 0.05 -0.06 0.06 -0.12 0.08 -0.12 0.03 -0.06 0.05 -0.06 0.06 -0.11 0.01 -0.01 0.07 -0.12 0.03 -0.05 0.05 -0.08 0.06 -0.1 0 -0.01 0.08 -0.12 0.03 -0.06 0.05 -0.06 0.06 -0.1 0.02 -0.02 0.07 -0.11 0.03 -0.05 0.04 -0.09 0.08 -0.1 0 -0.02 0.07 -0.12 0.02 -0.03 0.05 -0.09 0.06 -0.09 0.01 -0.03 0.08 -0.12 0.02 -0.03 0.05 -0.09 0.06 -0.09 0.02 -0.03 0.08 -0.11 0.02 -0.03 0.06 -0.09 0.05 -0.09 0.02 -0.04 0.07 -0.1 0.02 -0.03 0.05 -0.1 0.06 -0.09 0.01 -0.02 0.08 -0.13 0.02 -0.03 0.06 -0.09 0.05 -0.08 0.02 -0.03 0.07 -0.12 0.02 -0.04 0.05 -0.07 0.06 -0.09 0.04 -0.03 0.06 -0.12 0.01 -0.03 0.07 -0.09 0.05 -0.07 0.02 -0.04 0.08 -0.12 0.01 -0.02 0.06 -0.1 0.06 -0.08 0.02 -0.04 0.08 -0.12 0.01 -0.02 0.06 -0.1 0.05 -0.08 0.03 -0.04 0.07 -0.12 0.01 -0.02 0.06 -0.1 0.05 -0.07 0.03 -0.05 0.07 -0.13 0.01 0 0.06 -0.11 0.05 -0.07 0.03 -0.05 0.07 -0.12 0 0 0.07 -0.11 0.04 -0.06 0.04 -0.06 0.07 -0.12 0.01 -0.02 0.07 -0.1 0.03 -0.06 0.04 -0.06 0.08 -0.11 0.07 -0.12 0.04 -0.06 0.03 -0.06 0.08 -0.11 0.06 -0.11 0.04 -0.07 0.08 -0.13 0.03 -0.05 0.1 -0.16 0.01 -0.02 0.11 -0.17 0.01 -0.01 0.11 -0.17 0.02 -0.05 0.09 -0.14 0.04 -0.06 0.07 -0.12 0.06 -0.1 0.04 -0.09 0.08 -0.13 0.03 -0.04 0.22 -0.35 0.02 -0.02 0.09 -0.15 0.02 -0.06 0.09 -0.14 0.05 -0.08 0.06 -0.09 0.07 -0.11 0.05 -0.08 0.09 -0.13 0.02 -0.05 0.1 -0.18 0.11 -0.17 0.03 -0.03 0.09 -0.14 0.03 -0.07 0.07 -0.1 0.06 -0.09 0.05 -0.08 0.07 -0.13 0.04 -0.06 0.1 -0.15 0 -0.02 0.12 -0.17 0.01 -0.02 0.11 -0.16 0.02 -0.05 0.09 -0.14 0.05 -0.07 0.06 -0.1 0.08 -0.11 0.02 -0.06 0.09 -0.14 0.03 -0.05 0.09 -0.16 0 -0.02 0.1 -0.17 0.04 -0.02 0.08 -0.16 0.04 -0.06 0.08 -0.12 0.1 -0.17 0.12 -0.18 0.11 -0.17 0.1 -0.18 0.11 -0.17 0.12 -0.17 0.09 -0.19 0.11 -0.16 0.12 -0.18 0.1 -0.18 0.12 -0.17 0.1 -0.17 0.12 -0.18 0.1 -0.17 0.12 -0.17 0.12 -0.17 0.09 -0.18 0.22 -0.35 0.1 -0.18 0.11 -0.17 0.12 -0.18 0.11 -0.17 0.11 -0.18 0.11 -0.17 0.1 -0.18 0.1 -0.17 0.11 -0.17 0.11 -0.18 0.1 -0.17 0.11 -0.19 0.04 -0.04 0.07 -0.13 0.05 -0.08 0.06 -0.09 0.06 -0.09 0.06 -0.1 0.07 -0.13 0.04 -0.05 0.09 -0.14 0.02 -0.03 0.1 -0.17 0.11 -0.17 0.04 -0.02 0.07 -0.16 0.03 -0.05 0.09 -0.13 0.03 -0.08 0.07 -0.09 0.06 -0.1 0.05 -0.08 0.08 -0.13 0.02 -0.05 0.09 -0.16 0.02 -0.02 0.09 -0.17 0.02 -0.01 0.1 -0.17 0.01 -0.03 0.1 -0.15 0.03 -0.06 0.08 -0.11 0.04 -0.09 0.06 -0.09 0.07 -0.1 0.04 -0.07 0.07 -0.14 0.04 -0.05 0.09 -0.14 0.01 -0.03 0.11 -0.17 0 -0.01 0.1 -0.17 0.02 -0.02 0.09 -0.15 0.04 -0.06 0.06 -0.12 0.06 -0.08 0.06 -0.09 0.06 -0.1 0.06 -0.07 0.07 -0.14 0.03 -0.05 0.09 -0.16 0.02 -0.02 0.11 -0.18 0.01 0.01 0.1 -0.18 0.01 -0.02 0.1 -0.13 0.04 -0.06 0.07 -0.12 0.06 -0.09 0.05 -0.09 0.07 -0.1 0.05 -0.07 0.07 -0.14 0.03 -0.06 0.1 -0.14 0.01 -0.03 0.12 -0.17 -0.01 -0.02 0.22 -0.34 0.04 -0.05 0.06 -0.13 0.05 -0.09 0.06 -0.09 0.11 -0.17 0.1 -0.19 0.1 -0.18 0.12 -0.17 0.1 -0.17 0.11 -0.18 0.1 -0.17 0.11 -0.18 0.1 -0.17 0.12 -0.18 0.1 -0.17 0.12 -0.19 0.1 -0.15 0.1 -0.2 0.12 -0.17 0.09 -0.17 0.11 -0.18 0.11 -0.18 0.11 -0.17 0.1 -0.17 0.1 -0.18 0.12 -0.18 0.09 -0.14 0.02 -0.03 0.1 -0.17 0.02 0 0.1 -0.17 0.01 -0.03 0.1 -0.14 0.03 -0.04 0.09 -0.15 0.02 -0.04 0.09 -0.14 0.04 -0.08 0.06 -0.1 0.06 -0.09 0.05 -0.09 0.07 -0.11 0.04 -0.07 0.08 -0.13 0.02 -0.05 0.1 -0.14 0.01 -0.03 0.12 -0.17 0.01 -0.01 0.09 -0.17 0 -0.01 0.1 -0.17 0.02 -0.04 0.09 -0.14 0.03 -0.06 0.09 -0.12 0.04 -0.08 0.06 -0.1 0.06 -0.09 0.05 -0.1 0.07 -0.12 0.05 -0.06 0.07 -0.14 0.03 -0.05 0.09 -0.14 0.02 -0.03 0.09 -0.18 0.11 -0.17 0.01 -0.02 0.1 -0.16 0.01 -0.04 0.09 -0.14 0.03 -0.05 0.08 -0.13 0.05 -0.08 0.06 -0.1 0.06 -0.09 0.05 -0.08 0.07 -0.11 0.03 -0.06 0.08 -0.14 0.03 -0.03 0.1 -0.17 0.02 -0.02 0.1 -0.17 0.1 -0.18 0.02 -0.01 0.1 -0.17 0.02 -0.03 0.09 -0.14 0.03 -0.06 0.07 -0.11 0.05 -0.08 0.06 -0.1 0.05 -0.1 0.06 -0.08 0.19 -0.31 0.02 -0.04 0.1 -0.16 0.01 -0.02 0.1 -0.17 0.1 -0.17 0.02 -0.03 0.1 -0.16 0.02 -0.03 0.08 -0.15 0.03 -0.06 0.08 -0.12 0.06 -0.08 0.05 -0.07 0.07 -0.12 0.04 -0.09 0.07 -0.13 0.03 -0.05 0.11 -0.17 0.1 -0.18 0.11 -0.17 0.12 -0.18 0.11 -0.17 0.1 -0.17 0.11 -0.19 0.1 -0.17 0.11 -0.17 0.1 -0.18 0.1 -0.18 0.11 -0.18 0.11 -0.17 0.1 -0.18 0.11 -0.18 0.09 -0.16 0.1 -0.18 0.02 -0.02 0.09 -0.14 0.03 -0.06 0.08 -0.11 0.03 -0.08 0.06 -0.1 0.05 -0.1 0.05 -0.06 0.07 -0.13 0.02 -0.04 0.1 -0.15 0 -0.02 0.11 -0.17 0 -0.02 0.09 -0.15 0.02 -0.02 0.09 -0.14 0.04 -0.07 0.06 -0.1 0.04 -0.09 0.06 -0.08 0.06 -0.11 0.03 -0.06 0.09 -0.14 0.02 -0.02 0.09 -0.17 0.01 0 0.1 -0.17 0.01 -0.02 0.1 -0.16 0.02 -0.02 0.09 -0.14 0.03 -0.06 0.06 -0.11 0.06 -0.08 0.04 -0.09 0.08 -0.11 0.03 -0.06 0.09 -0.14 0.01 -0.03 0.1 -0.15 -0.01 -0.01 0.11 -0.17 0.01 -0.02 0.09 -0.14 0.04 -0.06 0.07 -0.12 0.04 -0.07 0.05 -0.09 0.06 -0.1 0.04 -0.06 0.07 -0.13 0.03 -0.05 0.09 -0.14 0.01 -0.02 0.09 -0.17 0.11 -0.17 0.01 -0.02 0.09 -0.14 0.04 -0.05 0.06 -0.13 0.05 -0.08 0.05 -0.07 0.06 -0.12 0.03 -0.07 0.09 -0.13 0.02 -0.04 0.09 -0.15 0.02 -0.01 0.1 -0.17 0.01 -0.01 0.1 -0.16 0 -0.04 0.1 -0.13 0.03 -0.06 0.07 -0.12 0.05 -0.06 0.04 -0.1 0.07 -0.12 0.03 -0.06 0.09 -0.13 0.02 -0.04 0.09 -0.17 0.1 -0.18 0.01 -0.01 0.1 -0.15 0.02 -0.04 0.08 -0.14 0.03 -0.06 0.06 -0.1 0.06 -0.09 0.05 -0.07 0.06 -0.11 0.03 -0.06 0.09 -0.14 0.02 -0.03 0.09 -0.17 0.1 -0.17 0.01 -0.03 0.1 -0.14 0.02 -0.06z"/>
 </g>
</svg>
