<?xml version="1.0" encoding="UTF-8"?>
<!DOCTYPE svg PUBLIC "-//W3C//DTD SVG 1.1//EN" "http://www.w3.org/Graphics/SVG/1.1/DTD/svg11.dtd">
<!-- Creator: CorelDRAW 2021 (64 Bit) -->
<svg xmlns="http://www.w3.org/2000/svg" xml:space="preserve" width="250" height="250" version="1.1" style="shape-rendering:geometricPrecision; text-rendering:geometricPrecision; image-rendering:optimizeQuality; fill-rule:evenodd; clip-rule:evenodd"
viewBox="0 0 2622.48 2861.54"
 xmlns:xlink="http://www.w3.org/1999/xlink"
 xmlns:xodm="http://www.corel.com/coreldraw/odm/2003">
 <defs>
  <style type="text/css">
   <![CDATA[
    .fil0 {fill:#003152}
    .fil1 {fill:#1AA552}
   ]]>
  </style>
 </defs>
 <g id="Camada_x0020_1">
  <metadata id="CorelCorpID_0Corel-Layer"/>
  <g id="_2355468190320">
   <path class="fil0" d="M275.1 1151.88c159.74,-416.58 563.45,-712.31 1036.24,-712.31 112.19,0 220.5,16.65 322.57,47.62l117.66 -173.59c-137.6,-49.03 -285.79,-75.73 -440.22,-75.73 -585.68,0 -1081.67,384.03 -1249.91,914.01l213.66 0z"/>
   <path class="fil0" d="M2132.68 2291.33l116.69 172.92c230.85,-236.34 373.11,-559.59 373.11,-916.07 0,-334.18 -125.02,-639.16 -330.85,-870.72l-117.45 173.28c335.11,435.67 323.7,1037 -41.5,1440.6z"/>
   <path class="fil0" d="M201.91 1549.01c0,-51.65 3.53,-102.47 10.36,-152.24l-203.31 0c-110.79,957.97 825.31,1712.42 1740.09,1388.53l-117.22 -176.08c-736.24,199.53 -1429.92,-325.55 -1429.92,-1060.22z"/>
   <path class="fil0" d="M22.92 1396.77l759.95 0 0 248.68 -759.95 0c-12.42,-82.97 -12.62,-165.86 0,-248.68z"/>
  </g>
  <g id="_2355468200256">
   <path class="fil1" d="M781.41 1044.59l1129.69 1670.27c64.5,-34.11 154.68,-85.48 208.22,-133.74l-1045.43 -1553.03 -292.48 16.5z"/>
   <path class="fil1" d="M2040.32 474.52l0.08 -0.1 0.08 -0.14 0.09 -0.14 0.09 -0.15 0.08 -0.15 0.1 -0.14 0.08 -0.15 0.33 -0.56c1.96,-3.3 3.9,-6.6 5.83,-9.91 1.93,-3.32 3.85,-6.64 5.77,-9.97 1.91,-3.33 3.82,-6.66 5.7,-10 1.88,-3.34 3.77,-6.69 5.63,-10.05 1.86,-3.35 3.72,-6.71 5.55,-10.08 1.84,-3.37 3.67,-6.75 5.49,-10.12 1.81,-3.38 3.63,-6.77 5.42,-10.17 1.79,-3.39 3.56,-6.79 5.34,-10.21 1.77,-3.41 3.52,-6.83 5.26,-10.26 1.74,-3.42 3.48,-6.86 5.19,-10.3 1.72,-3.44 3.43,-6.88 5.11,-10.34 1.7,-3.46 3.38,-6.92 5.04,-10.39 1.67,-3.48 3.32,-6.95 4.96,-10.43 1.66,-3.49 3.26,-6.98 4.87,-10.48 1.62,-3.51 3.22,-7.02 4.8,-10.54 1.59,-3.52 3.15,-7.04 4.72,-10.58 1.56,-3.52 3.11,-7.07 4.63,-10.62 1.53,-3.55 3.05,-7.12 4.55,-10.69 1.49,-3.56 2.99,-7.14 4.46,-10.71 1.28,-3.13 2.56,-6.25 3.81,-9.38l0.56 -1.41c1.45,-3.6 2.89,-7.21 4.3,-10.82 1.42,-3.62 2.82,-7.24 4.22,-10.87 1.38,-3.63 2.76,-7.28 4.12,-10.95 1.35,-3.64 2.69,-7.3 4.02,-10.96 1.34,-3.67 2.65,-7.35 3.95,-11.05 1.3,-3.69 2.57,-7.38 3.84,-11.1 1.26,-3.7 2.52,-7.4 3.75,-11.13 1.23,-3.72 2.45,-7.47 3.66,-11.21 1.19,-3.74 2.38,-7.49 3.55,-11.24 1.17,-3.77 2.32,-7.55 3.46,-11.33 1.14,-3.78 2.26,-7.56 3.37,-11.36 1.1,-3.8 2.19,-7.62 3.26,-11.43 1.06,-3.83 2.12,-7.64 3.15,-11.48 1.04,-3.85 2.06,-7.71 3.06,-11.57 9.31,-35.8 17.12,-72.39 23.33,-109.83 7.97,45.62 13.71,90.13 17.38,133.62 0.4,4.68 0.77,9.35 1.12,13.99 0.34,4.65 0.67,9.27 0.97,13.88 0.3,4.63 0.57,9.24 0.83,13.84 0.24,4.57 0.48,9.16 0.68,13.71 0.21,4.57 0.38,9.13 0.55,13.66 0.15,4.54 0.29,9.05 0.4,13.56 0.11,4.51 0.2,9.01 0.27,13.51 0.06,4.47 0.11,8.94 0.13,13.38l0.01 0.78c0.02,4.2 0.02,8.39 -0.01,12.57 -0.01,4.44 -0.06,8.86 -0.12,13.28 -0.07,4.39 -0.16,8.8 -0.26,13.16 -0.12,4.39 -0.25,8.75 -0.39,13.13 -0.15,4.35 -0.32,8.69 -0.51,13.02 -0.19,4.33 -0.39,8.66 -0.64,12.98 -0.23,4.3 -0.47,8.6 -0.75,12.88 -0.27,4.28 -0.57,8.56 -0.89,12.83 -0.31,4.25 -0.65,8.49 -1.01,12.73 -0.35,4.24 -0.73,8.45 -1.14,12.68 -0.39,4.21 -0.82,8.4 -1.25,12.59 -0.44,4.19 -0.9,8.37 -1.37,12.54 -0.47,4.17 -0.96,8.32 -1.48,12.47 -0.52,4.14 -1.04,8.27 -1.6,12.39 -0.55,4.12 -1.12,8.23 -1.71,12.33 -0.6,4.1 -1.21,8.18 -1.84,12.26 -0.63,4.07 -1.29,8.14 -1.95,12.2 -0.66,4.05 -1.36,8.1 -2.06,12.13 -0.7,4.04 -1.43,8.06 -2.16,12.07 -0.74,4.01 -1.5,8.01 -2.28,12 -0.77,4.01 -1.56,7.98 -2.37,11.96 -0.82,3.97 -1.65,7.93 -2.48,11.88 -0.85,3.95 -1.72,7.88 -2.6,11.82 -0.89,3.93 -1.79,7.85 -2.71,11.76 -0.91,3.9 -1.84,7.8 -2.8,11.7 -0.95,3.88 -1.92,7.77 -2.9,11.63 -0.99,3.87 -1.99,7.73 -3,11.58 -1.02,3.85 -2.06,7.69 -3.11,11.53 -1.06,3.82 -2.11,7.65 -3.2,11.46 -1.08,3.81 -2.17,7.62 -3.29,11.41 -1.11,3.79 -2.25,7.57 -3.39,11.35 -1.14,3.77 -2.31,7.54 -3.5,11.3 -1.17,3.76 -2.37,7.49 -3.57,11.24 -1.2,3.73 -2.44,7.47 -3.67,11.19 -1.23,3.72 -2.49,7.44 -3.76,11.14 -1.27,3.7 -2.55,7.4 -3.86,11.08 -1.29,3.69 -2.61,7.37 -3.93,11.04 -1.32,3.67 -2.67,7.33 -4.01,10.98 -1.37,3.65 -2.74,7.29 -4.12,10.93 -1.39,3.63 -2.8,7.26 -4.22,10.87 -1.41,3.62 -2.84,7.23 -4.28,10.82 -1.45,3.61 -2.89,7.21 -4.37,10.8 -1.47,3.58 -2.95,7.16 -4.46,10.72 -1.49,3.57 -3,7.14 -4.53,10.68 -1.52,3.56 -3.06,7.12 -4.61,10.66 -1.54,3.54 -3.11,7.07 -4.69,10.58 -1.57,3.54 -3.16,7.05 -4.76,10.56 -1.61,3.5 -3.22,7.01 -4.85,10.51 -1.63,3.48 -3.26,6.98 -4.93,10.45 -1.65,3.48 -3.32,6.95 -4.99,10.42 -1.68,3.46 -3.37,6.92 -5.08,10.37 -1.71,3.45 -3.42,6.89 -5.15,10.32 -1.73,3.44 -3.46,6.87 -5.21,10.3 -1.75,3.41 -3.52,6.83 -5.29,10.24 -1.78,3.4 -3.55,6.81 -5.35,10.19 -1.8,3.41 -3.61,6.79 -5.43,10.17 -1.57,2.93 -3.16,5.85 -4.74,8.77l-0.75 1.37c-1.84,3.37 -3.68,6.73 -5.54,10.09 -1.86,3.36 -3.72,6.7 -5.61,10.05 -1.88,3.35 -3.78,6.69 -5.68,10.02 -1.91,3.32 -3.82,6.65 -5.77,9.97 -1.92,3.31 -3.86,6.62 -5.81,9.93 -1.95,3.3 -3.92,6.6 -5.89,9.91 -1.98,3.29 -3.96,6.57 -5.94,9.85 -1.99,3.28 -4,6.55 -6.01,9.82 -2.02,3.28 -4.04,6.53 -6.07,9.8 -2.03,3.24 -4.07,6.5 -6.12,9.76 -2.05,3.24 -4.11,6.48 -6.18,9.72l-0.22 0.35c-1.98,3.12 -3.98,6.23 -5.99,9.36 -2.08,3.21 -4.17,6.44 -6.29,9.65 -2.11,3.22 -4.23,6.42 -6.36,9.62l-2.09 3.14 -4.31 6.46c-2.13,3.19 -4.29,6.38 -6.44,9.57 -2.15,3.17 -4.33,6.36 -6.49,9.54 -2.18,3.18 -4.37,6.35 -6.55,9.51 -2.19,3.17 -4.39,6.33 -6.6,9.48 -2.21,3.15 -4.43,6.3 -6.64,9.44 -2.24,3.14 -4.46,6.29 -6.7,9.43 -2.24,3.13 -4.5,6.26 -6.75,9.39 -2.25,3.12 -4.52,6.24 -6.79,9.36 -2.28,3.12 -4.55,6.23 -6.85,9.33 -2.28,3.12 -4.58,6.22 -6.88,9.32 -2.3,3.12 -4.61,6.2 -6.93,9.28 -2.32,3.1 -4.63,6.18 -6.96,9.26 -2.33,3.09 -4.68,6.18 -7.02,9.25 -2.04,2.69 -4.12,5.4 -6.19,8.09l-0.86 1.12c-2.37,3.07 -4.72,6.13 -7.08,9.19 -2.37,3.06 -4.75,6.11 -7.13,9.17 -2.39,3.06 -4.78,6.1 -7.17,9.15 -2.4,3.04 -4.79,6.08 -7.2,9.12 -2.41,3.04 -4.82,6.08 -7.24,9.12 -2.43,3.03 -4.85,6.06 -7.27,9.08 -2.43,3.03 -4.87,6.05 -7.31,9.07 -2.44,3.02 -4.89,6.05 -7.34,9.04 -2.45,3.01 -4.92,6.02 -7.36,9.03 -2.47,3 -4.94,6 -7.42,9.01 -2.48,3 -4.96,6 -7.43,8.99 -2.49,3 -4.98,5.98 -7.47,8.97l-7.5 8.95 -7.52 8.95 -7.55 8.92 -7.57 8.91 -7.6 8.89 -7.64 8.88 -7.64 8.86 -7.68 8.86 -7.69 8.84 -7.71 8.82 -7.73 8.82 -7.75 8.8 -7.78 8.8 -7.78 8.79 -7.81 8.77 -7.82 8.76 -7.83 8.77 -7.85 8.75 -7.86 8.74 -7.86 8.74 -7.89 8.74 -7.88 8.71 -7.9 8.72 -7.9 8.72 -7.92 8.71 -7.92 8.71 -7.92 8.71 -7.93 8.71 -7.93 8.7 -7.92 8.69 -7.94 8.71 -7.93 8.7 -7.94 8.69 -7.93 8.7 -7.92 8.71 -7.93 8.71 -3.98 4.37 -3.92 4.34 -7.91 8.72 -7.89 8.73 -7.9 8.72 -7.9 8.73 -7.89 8.72 -7.88 8.73 -7.88 8.74 -7.86 8.75 -7.86 8.74 -1.89 2.13 -5.92 6.64 -5.74 6.46 -2.06 2.32c-2.6,2.91 -5.2,5.85 -7.79,8.78l-5.33 6.05 -2.43 2.75 -7.75 8.8c-2.59,2.93 -5.16,5.86 -7.75,8.8 -2.06,2.35 -4.11,4.69 -6.15,7.05l-1.57 1.78 -7.7 8.84 -7.68 8.84 -7.66 8.87 -7.64 8.87 -7.61 8.89 -7.58 8.89 -7.58 8.93 -7.52 8.93c-2.51,2.98 -5.01,5.96 -7.51,8.95 -2.5,2.99 -5,5.97 -7.48,8.97l-7.45 8.98c-2.48,3 -4.95,6 -7.41,9.01 -2.47,3 -4.94,6.01 -7.38,9.01 -2.47,3.02 -4.92,6.03 -7.36,9.04 -2.44,3.02 -4.89,6.04 -7.32,9.07l-1.88 2.35 -5.37 6.74c-2.41,3.03 -4.82,6.07 -7.23,9.11 -2.39,3.04 -4.79,6.09 -7.17,9.15 -2.41,3.05 -4.79,6.11 -7.16,9.17 -2.38,3.05 -4.74,6.11 -7.1,9.18 -2.37,3.06 -4.73,6.13 -7.07,9.21 -2.35,3.08 -4.69,6.16 -7.03,9.23 -2.33,3.08 -4.65,6.18 -6.97,9.27 -2.32,3.09 -4.63,6.18 -6.93,9.28 -2.31,3.09 -4.61,6.2 -6.88,9.31 -2.28,3.11 -4.58,6.23 -6.84,9.34 -2.28,3.12 -4.53,6.25 -6.79,9.37 -2.25,3.13 -4.5,6.26 -6.73,9.4 -2.23,3.14 -4.47,6.29 -6.68,9.43 -2.24,3.15 -4.44,6.31 -6.64,9.47 -2.21,3.15 -4.39,6.32 -6.57,9.49 -2.19,3.17 -4.36,6.33 -6.52,9.53 -2.17,3.17 -4.33,6.36 -6.47,9.55 -2.15,3.19 -4.29,6.39 -6.41,9.59 -2.12,3.21 -4.24,6.41 -6.35,9.62 -2.11,3.21 -4.22,6.43 -6.29,9.66 -2.09,3.23 -4.16,6.46 -6.23,9.69 -2.07,3.25 -4.12,6.49 -6.17,9.74 -2.04,3.24 -4.07,6.51 -6.09,9.77 -2.02,3.26 -4.04,6.53 -6.04,9.82 -1.99,3.27 -3.99,6.55 -5.96,9.84 -1.97,3.27 -3.93,6.6 -5.89,9.89 -1.96,3.3 -3.91,6.61 -5.83,9.93 -1.93,3.32 -3.85,6.64 -5.76,9.97 -1.17,2.08 -2.37,4.15 -3.53,6.22l-2.16 3.8c-1.88,3.34 -3.75,6.7 -5.62,10.04 -1.86,3.37 -3.7,6.73 -5.54,10.1 -1.83,3.38 -3.66,6.76 -5.46,10.15 -1.81,3.39 -3.61,6.78 -5.38,10.18 -1.78,3.41 -3.56,6.82 -5.31,10.23 -1.75,3.42 -3.5,6.86 -5.22,10.28 -1.73,3.44 -3.44,6.87 -5.14,10.33 -1.69,3.47 -3.39,6.92 -5.06,10.39 -1.67,3.47 -3.32,6.94 -4.96,10.43 -1.65,3.5 -3.28,6.99 -4.9,10.48 -1.61,3.5 -3.21,7.02 -4.8,10.53 -1.58,3.52 -3.15,7.05 -4.71,10.58l-0.19 0.44c-1.49,3.39 -2.98,6.79 -4.44,10.19 -1.54,3.56 -3.04,7.12 -4.55,10.68 -1.49,3.58 -2.97,7.16 -4.44,10.74 -1.46,3.6 -2.91,7.2 -4.33,10.81 -1.43,3.61 -2.85,7.23 -4.24,10.86 -1.39,3.63 -2.77,7.27 -4.13,10.93 -1.36,3.65 -2.69,7.31 -4.02,10.98l-1.1 3.04c-0.95,2.67 -1.91,5.32 -2.85,7.99 -1.29,3.69 -2.57,7.38 -3.83,11.1 -1.26,3.7 -2.51,7.42 -3.74,11.15 -1.23,3.73 -2.43,7.47 -3.6,11.22 -1.2,3.76 -2.37,7.52 -3.52,11.28 -1.14,3.77 -2.27,7.56 -3.39,11.35 -1.12,3.81 -2.21,7.61 -3.28,11.43 -1.08,3.82 -2.12,7.65 -3.16,11.48 -1.04,3.83 -2.05,7.69 -3.04,11.55 -1,3.87 -1.98,7.74 -2.93,11.63 -0.96,3.89 -1.89,7.79 -2.8,11.69 -0.92,3.91 -1.81,7.84 -2.69,11.76 -0.87,3.94 -1.73,7.89 -2.56,11.85 -0.48,2.28 -0.95,4.55 -1.42,6.84 -0.36,1.67 -0.71,3.37 -1.05,5.04 -0.82,3.99 -1.6,7.97 -2.34,11.96 -0.75,4.04 -1.45,8.06 -2.15,12.09l-0.03 0.23 -0.05 -0.27c-0.67,-3.89 -1.3,-7.91 -1.94,-12.03l-0.43 -2.68 -2.41 -14.75c-0.78,-4.82 -1.58,-9.71 -2.38,-14.72 -0.77,-4.81 -1.55,-9.72 -2.33,-14.7 -0.75,-4.81 -1.52,-9.7 -2.26,-14.66 -0.74,-4.8 -1.46,-9.67 -2.19,-14.62 -0.7,-4.78 -1.4,-9.64 -2.08,-14.55 -0.67,-4.78 -1.32,-9.6 -1.99,-14.49 -0.64,-4.76 -1.26,-9.56 -1.88,-14.44 -0.6,-4.74 -1.19,-9.52 -1.78,-14.36 -0.56,-4.71 -1.11,-9.48 -1.65,-14.29 -0.52,-4.7 -1.03,-9.45 -1.52,-14.23 -0.48,-4.67 -0.95,-9.4 -1.4,-14.15 -0.44,-4.65 -0.86,-9.35 -1.26,-14.07 -0.4,-4.64 -0.78,-9.3 -1.14,-14 -0.35,-4.61 -0.69,-9.25 -1.01,-13.92l-0.05 -0.88c-0.27,-4.28 -0.53,-8.6 -0.77,-12.95 -0.26,-4.55 -0.49,-9.12 -0.71,-13.74 -0.21,-4.54 -0.4,-9.1 -0.58,-13.68 -0.17,-4.51 -0.32,-9.04 -0.45,-13.6 -0.12,-4.04 -0.21,-8.13 -0.28,-12.24l-0.01 -1.28c-0.08,-4.44 -0.12,-8.91 -0.15,-13.41 -0.03,-4.42 -0.03,-8.87 -0.02,-13.34 0.02,-4.4 0.06,-8.82 0.13,-13.27 0.06,-4.37 0.14,-8.77 0.25,-13.18 0.11,-4.35 0.23,-8.71 0.38,-13.11 0.16,-4.33 0.33,-8.68 0.53,-13.04 0.19,-4.29 0.4,-8.61 0.64,-12.95 0.24,-4.27 0.51,-8.56 0.79,-12.87 0.27,-4.26 0.6,-8.52 0.92,-12.81 0.32,-4.22 0.68,-8.46 1.05,-12.72 0.36,-4.2 0.76,-8.4 1.18,-12.64 0.41,-4.18 0.84,-8.36 1.31,-12.57 0.45,-4.16 0.93,-8.33 1.43,-12.5 0.49,-4.13 1.01,-8.27 1.57,-12.42 0.54,-4.1 1.09,-8.22 1.67,-12.35 0.59,-4.06 1.2,-8.16 1.82,-12.26 0.38,-2.52 0.79,-5.05 1.2,-7.58l0.74 -4.63c0.66,-4.04 1.33,-8.08 2.05,-12.13 0.69,-4.02 1.43,-8.03 2.18,-12.06 0.74,-3.98 1.51,-7.99 2.3,-11.99 0.79,-3.96 1.6,-7.93 2.43,-11.91 0.84,-3.94 1.69,-7.9 2.56,-11.85 0.86,-3.92 1.75,-7.84 2.66,-11.78 0.92,-3.89 1.85,-7.79 2.8,-11.7 0.95,-3.87 1.91,-7.75 2.91,-11.63l1.06 -4.07c0.63,-2.5 1.29,-5 1.96,-7.5 1.02,-3.84 2.08,-7.66 3.15,-11.49 1.08,-3.81 2.17,-7.61 3.3,-11.41 1.11,-3.78 2.26,-7.56 3.43,-11.33 1.17,-3.76 2.36,-7.51 3.57,-11.26 1.21,-3.72 2.44,-7.44 3.7,-11.17 1.25,-3.7 2.52,-7.41 3.84,-11.11 1.28,-3.68 2.61,-7.36 3.94,-11.03 1.34,-3.65 2.7,-7.3 4.07,-10.94 1.38,-3.65 2.78,-7.27 4.2,-10.89 1.41,-3.61 2.85,-7.23 4.31,-10.82 1.45,-3.58 2.93,-7.16 4.42,-10.74 1.5,-3.57 3.01,-7.13 4.55,-10.69 1.53,-3.55 3.08,-7.08 4.66,-10.62 0.84,-1.86 1.68,-3.75 2.52,-5.63 0.74,-1.65 1.48,-3.28 2.24,-4.92 1.6,-3.5 3.21,-7.01 4.87,-10.5 1.64,-3.48 3.3,-6.95 4.98,-10.42 1.67,-3.47 3.36,-6.93 5.07,-10.38 1.69,-3.43 3.42,-6.88 5.15,-10.32l2.34 -4.59 2.9 -5.68c1.77,-3.41 3.54,-6.81 5.35,-10.21 1.8,-3.39 3.61,-6.78 5.44,-10.16 1.83,-3.37 3.67,-6.75 5.53,-10.1 1.86,-3.35 3.74,-6.7 5.63,-10.04 1.89,-3.34 3.79,-6.66 5.73,-9.99 1.91,-3.32 3.84,-6.63 5.8,-9.94 1.94,-3.3 3.91,-6.59 5.89,-9.89 1.59,-2.65 3.19,-5.29 4.81,-7.93l1.17 -1.93c2.01,-3.27 4.02,-6.53 6.05,-9.8 2.03,-3.26 4.06,-6.51 6.12,-9.76 2.05,-3.24 4.12,-6.48 6.21,-9.71 2.08,-3.22 4.17,-6.45 6.28,-9.67 2.11,-3.21 4.22,-6.41 6.36,-9.62 2.13,-3.19 4.27,-6.38 6.43,-9.58 2.17,-3.18 4.32,-6.36 6.51,-9.53 2.18,-3.17 4.37,-6.33 6.57,-9.48 2.19,-3.17 4.41,-6.32 6.64,-9.47 2.22,-3.14 4.46,-6.28 6.7,-9.43 2.25,-3.13 4.51,-6.25 6.77,-9.37l3.44 -4.72 3.39 -4.63c2.28,-3.11 4.58,-6.22 6.88,-9.31 2.3,-3.11 4.61,-6.2 6.94,-9.28 2.32,-3.09 4.65,-6.17 6.98,-9.25 2.35,-3.08 4.7,-6.15 7.07,-9.22l7.78 -8.78 155.96 91.1 -155.96 -91.1 15.59 -17.56 67.63 39.51 0.01 -0.01 -67.64 -39.51 7.79 -8.78 23.42 13.68 -23.42 -13.68c77.53,-87.31 276.22,-310.67 322.19,-358.51l8.23 -8.53 4.31 -4.45 3.92 -4.07 8.19 -8.55 8.2 -8.54 8.19 -8.56 8.21 -8.54 6.14 -6.38 2.06 -2.16 8.21 -8.53 8.19 -8.57 8.17 -8.55 8.16 -8.58 8.16 -8.57 8.14 -8.58 8.13 -8.59 8.12 -8.59 8.09 -8.61 8.08 -8.6 8.05 -8.64 8.05 -8.64 8.02 -8.64 8.02 -8.67 7.97 -8.67 7.96 -8.68 7.95 -8.71 7.92 -8.71 3.24 -3.56 4.65 -5.16c2.63,-2.9 5.26,-5.81 7.87,-8.72l7.86 -8.75 7.82 -8.78 7.79 -8.77 7.77 -8.82 7.73 -8.81c2.57,-2.95 5.13,-5.89 7.69,-8.83 2.56,-2.96 5.12,-5.9 7.68,-8.86 2.55,-2.95 5.08,-5.91 7.63,-8.86 2.52,-2.97 5.07,-5.94 7.6,-8.91 2.52,-2.97 5.05,-5.93 7.57,-8.91 2.52,-2.98 5.03,-5.96 7.53,-8.94 2.51,-2.99 5,-5.96 7.5,-8.95 2.48,-3 4.99,-5.98 7.47,-8.98 2.48,-3 4.95,-5.99 7.42,-9 2.47,-3 4.92,-6.01 7.38,-9.01l1.7 -2.08c0.01,-0.12 0.06,-0.12 0.1,-0.16l5.52 -6.81 0.04 -0.05 0.08 -0.08 0.04 -0.06 0.06 -0.08 0.06 -0.06 0.06 -0.08 0.07 -0.07 0.04 -0.08 0.07 -0.08 0.06 -0.05 0.08 -0.08 0.04 -0.06 0.08 -0.09 0.04 -0.05 0.08 -0.1 0.03 -0.03 0.09 -0.12 0.02 -0.03 0.1 -0.12 0.01 -0.01 0.1 -0.14 0.02 -0.01 0.11 -0.14 0.12 -0.14 0.1 -0.14 0.01 -0.01 0.1 -0.13 0.03 -0.01 0.1 -0.12 0.02 -0.03 0.09 -0.11 0.02 -0.03 0.1 -0.11 0.03 -0.05 0.08 -0.1 0.05 -0.05 0.07 -0.1 0.1 -0.14 0.12 -0.14 0.11 -0.14 0.12 -0.14 0.12 -0.14 0.11 -0.14 0.11 -0.15 0.12 -0.14 3.19 -3.97 0.12 -0.14 0.23 -0.28 0.12 -0.14 0.11 -0.15 0.12 -0.12 0.11 -0.16 0.12 -0.13 0.11 -0.15 0.02 -0.02 0.1 -0.12 0.1 -0.12 0.02 -0.01 0.12 -0.14 0.06 -0.09 0.06 -0.07 0.1 -0.14 0.03 -0.03 0.1 -0.11 0.1 -0.14 0 -0.01 0.12 -0.15 0.07 -0.08 0.04 -0.05 0.11 -0.15 0.05 -0.04 0.07 -0.1 0.12 -0.14 0.01 -0.01 0.11 -0.13 0.08 -0.1 0.03 -0.03 0.12 -0.14 0.06 -0.05 0.06 -0.09 0.11 -0.14 0.01 -0.03 0.1 -0.11 0.1 -0.12 0.02 -0.02 0.11 -0.15 0.06 -0.07 0.05 -0.06 0.12 -0.15 0.03 -0.03 0.08 -0.11 0.12 -0.12 0 -0.02 0.12 -0.14 0.06 -0.09 0.04 -0.05 0.12 -0.14 0.03 -0.04 0.08 -0.1 0.1 -0.14 0.01 0 0.12 -0.14 0.08 -0.1 0.03 -0.03 0.12 -0.14 0.04 -0.06 0.06 -0.09 0.12 -0.14 0.01 -0.02 0.1 -0.12 0.1 -0.12 0.01 -0.02 0.13 -0.14 0.05 -0.08 0.2 -0.23 0.08 -0.12 0.12 -0.13 0 -0.01 0.12 -0.14 0.06 -0.1 0.05 -0.05 0.12 -0.13 0.03 -0.05 0.08 -0.1 0.11 -0.14 0.12 -0.14 0.08 -0.1 0.03 -0.04 0.12 -0.15 0.03 -0.06 0.07 -0.07 0.11 -0.15 0.02 0 0.1 -0.14 0.1 -0.12 0.01 -0.03 0.12 -0.14 0.06 -0.08 0.05 -0.07 0.12 -0.14 0.03 -0.03 0.08 -0.11 0.11 -0.14 0.12 -0.14 0.06 -0.1 0.05 -0.05 0.12 -0.14 0.03 -0.05 0.08 -0.1 0.12 -0.14 0.05 -0.08 0.06 -0.07 0.11 -0.14 0.07 -0.09 0.05 -0.06 0.11 -0.14 0.08 -0.1 0.03 -0.04 0.12 -0.14 0.09 -0.12 0.02 -0.02 0.11 -0.14 0.11 -0.13 0.01 -0.01 0.11 -0.14 0.12 -0.15 0.1 -0.14 0.12 -0.14 0.01 -0.01 0.1 -0.12 0.11 -0.14 0.03 -0.03 0.08 -0.1 0.11 -0.14 0.05 -0.06 0.07 -0.09 0.12 -0.14 0.03 -0.06 0.07 -0.08 0.12 -0.14 0.05 -0.08 0.06 -0.07 0.11 -0.14 0.08 -0.1 0.04 -0.06 0.11 -0.14 0.08 -0.11 0.03 -0.04 0.12 -0.13 0.12 -0.14 0.11 -0.13 0.12 -0.16 0.1 -0.14 0.12 -0.15 0.1 -0.14 0.12 -0.14 0.11 -0.14 0.12 -0.14 0.12 -0.14 0.11 -0.14 0.11 -0.15 0.12 -0.13 0.12 -0.15 0.1 -0.14 0.12 -0.14 0.1 -0.14 0.12 -0.14 0.11 -0.14 0.1 -0.14 0.12 -0.15 0.1 -0.14 0.12 -0.15 0.1 -0.14 0.11 -0.15 0.12 -0.13 0.12 -0.15 0.1 -0.14 0.11 -0.14 0.12 -0.14 0.1 -0.15 0.12 -0.13 0.56 -0.71 0.23 -0.29 0.04 -0.07 0.07 -0.08 0.34 -0.43 0.1 -0.15 0.04 -0.05 0.07 -0.08 0.12 -0.15 0.1 -0.14 0.08 -0.09 0.04 -0.06 0.11 -0.14 0.03 -0.03 0.87 -1.1 0.05 -0.06 0.07 -0.09 0.29 -0.38 0.06 -0.05 0.1 -0.15 0.03 -0.03 0.09 -0.1 0.1 -0.13 0.01 -0.02 0.11 -0.14 0.07 -0.08 0.05 -0.06 0.1 -0.15 0.03 -0.03 0.09 -0.11 0.1 -0.12 0.01 -0.03 0.12 -0.14 0.04 -0.05 0.07 -0.09 0.11 -0.14 0 -0.01 0.11 -0.13 0.07 -0.1 0.03 -0.04 0.12 -0.15 0.04 -0.04 0.07 -0.1 0.12 -0.12 -0.01 -0.01 0.12 -0.15 0.06 -0.08 0.04 -0.06 0.12 -0.14 0.03 -0.03 0.08 -0.12 0.1 -0.11 0.03 -0.03 0.1 -0.14 0.06 -0.06 0.06 -0.08 0.12 -0.14 0 -0.01 0.11 -0.14 0.08 -0.1 0.03 -0.03 0.12 -0.15 0.03 -0.05 0.08 -0.1 0.1 -0.13 0.01 0 0.12 -0.15 0.06 -0.09 0.04 -0.06 0.12 -0.14 0.01 -0.02 0.1 -0.12 0.1 -0.13 0.02 -0.02 0.1 -0.14 0.06 -0.07 0.06 -0.07 0.12 -0.14 0.01 -0.02 0.1 -0.12 0.09 -0.11 0.03 -0.04 0.11 -0.13 0.23 -0.29 0.08 -0.09 0.03 -0.05 0.11 -0.14 0.08 -0.1 0.04 -0.04 0.11 -0.15 0.07 -0.1 0.04 -0.03 0.12 -0.15 0.06 -0.09 0.04 -0.05 0.4 -0.51 0.05 -0.06 0.11 -0.13 0.06 -0.1 0.06 -0.06 0.11 -0.14 0.06 -0.09 0.04 -0.06 0.12 -0.15 0.06 -0.07 0.05 -0.06 0.12 -0.15 0.07 -0.07 0.05 -0.08 0.11 -0.13 0.05 -0.08 0.05 -0.07 0.12 -0.15 0.05 -0.07 0.06 -0.07 0.11 -0.13 0.12 -0.15 0.1 -0.15 0.12 -0.14 0.22 -0.28 0.11 -0.15 0.11 -0.14 1.78 -2.3 0.1 -0.15 0.34 -0.43 0.11 -0.14 0.12 -0.14 0.11 -0.14 0.22 -0.29 0.11 -0.14 0.12 -0.15 0.1 -0.14 0.11 -0.14 0.12 -0.14 0.1 -0.15 0.1 -0.12 0.01 -0.03 0.12 -0.13 0.06 -0.08 0.05 -0.07 0.11 -0.14 0.02 -0.02 0.09 -0.11 0.08 -0.12 0.03 -0.03 0.1 -0.14 0.06 -0.06 0.07 -0.1 0.1 -0.13 0.12 -0.16 0.06 -0.08 0.05 -0.06 0.1 -0.14 0.03 -0.03 0.1 -0.12 0.09 -0.12 0.01 -0.02 0.11 -0.15 0.05 -0.06 0.06 -0.07 0.11 -0.14 0.01 -0.01 0.1 -0.14 0.07 -0.1 0.03 -0.05 0.12 -0.15 0.04 -0.03 0.08 -0.1 0.09 -0.14 0.02 -0.01 0.11 -0.14 0.06 -0.07 0.16 -0.22 0.01 -0.02 0.09 -0.12 0.1 -0.11 0.01 -0.03 0.12 -0.14 0.04 -0.06 0.07 -0.08 0.11 -0.14 0 -0.01 0.12 -0.13 0.07 -0.1 0.03 -0.06 0.11 -0.14 0.02 -0.04 0.08 -0.1 0.1 -0.12 0.02 -0.01 0.11 -0.14 0.06 -0.07 0.06 -0.07 0.1 -0.15 0.02 -0.01 0.01 -0.02 0.19 -0.25 0.11 -0.15 0.04 -0.05 0.07 -0.1 0.11 -0.14 0.11 -0.14 0.06 -0.09 0.05 -0.06 0.1 -0.14 0.03 -0.02 0.09 -0.12 0.09 -0.12 0.02 -0.02 0.12 -0.14 0.04 -0.06 0.06 -0.09 0.11 -0.14 0.01 -0.01 0.1 -0.13 0.07 -0.1 0.05 -0.06 0.11 -0.14 0.03 -0.03 0.07 -0.1 0.01 -0.02 0.22 -0.27 0.06 -0.08 0.05 -0.07 0.12 -0.14 0.02 -0.02 0.08 -0.12 0.09 -0.11 0.03 -0.02 0.11 -0.15 0.04 -0.07 0.06 -0.08 0.11 -0.14 0.1 -0.14 0.08 -0.08 0.05 -0.07 0.11 -0.14 0.05 -0.06 0.06 -0.09 0.11 -0.14 0.23 -0.29 0.01 -0.03 0.09 -0.11 0.11 -0.14 0.01 -0.01 0.1 -0.14 0.11 -0.13 0 -0.01 0.12 -0.14 0.1 -0.12 0 -0.02 0.1 -0.15 0.1 -0.1 0.03 -0.04 0.1 -0.14 0.08 -0.09 0.03 -0.06 0.04 -0.05 0.07 -0.1 0.01 -0.01 0.09 -0.11 0.01 -0.02 0.06 -0.08 0.06 -0.06 0.1 -0.15 0.02 -0.01 0.07 -0.1 0.03 -0.03 0.06 -0.08 0.05 -0.07 0.04 -0.03 0.07 -0.11 0.08 -0.11 0.03 -0.03 0.1 -0.14 0.03 -0.03 0.08 -0.12 0 -0.01 0.08 -0.1 0.03 -0.03 0.06 -0.07 0.05 -0.07 0.03 -0.03 0.16 -0.21 0.03 -0.05 0.06 -0.06 0.05 -0.08 0.03 -0.02 0.07 -0.1 0.01 -0.03 0.07 -0.08 0.05 -0.06 0.04 -0.05 0.06 -0.09 0.1 -0.12 0.01 -0.03 0.06 -0.08 0.05 -0.06 0.05 -0.05 0.16 -0.21 0.02 -0.02 0.06 -0.09 0.05 -0.06 0.03 -0.04 0.07 -0.1 0.01 0 0.32 -0.43 0.08 -0.1 0.03 -0.03 0.04 -0.08 0.06 -0.07 0.02 -0.04 0.09 -0.1 0.16 -0.21 0.06 -0.08 0.02 -0.03 0.08 -0.1 0.01 0 0.07 -0.12 0.03 -0.03 0.04 -0.06 0.06 -0.09 0.03 -0.01 0.08 -0.11 0.12 -0.17 0.03 -0.05 0.08 -0.09 0.01 -0.01 0.08 -0.12 0.01 -0.01 0.06 -0.09 0.05 -0.06 0.04 -0.05 0.07 -0.1 0.01 0.01 0.08 -0.13 0.02 -0.02 0.07 -0.08 0.04 -0.06 0.04 -0.05 0.08 -0.1 0 -0.01 0.09 -0.11 0.01 -0.03 0.07 -0.07 0.06 -0.07 0.02 -0.04 0.08 -0.1 0.1 -0.15 0.05 -0.05 0.29 -0.38 0.1 -0.12 0.01 -0.03 0.12 -0.15 0.05 -0.07 0.06 -0.08 0.11 -0.13 0.03 -0.05 0.08 -0.1 0.11 -0.14 0.01 0 0.1 -0.13 0.09 -0.13 0.02 -0.03 0.1 -0.14 0.06 -0.08 0.05 -0.07 0.11 -0.14 0.03 -0.04 0.08 -0.1 0.11 -0.15 0.1 -0.14 0.09 -0.11 0.02 -0.03 0.12 -0.14 0.04 -0.07 0.06 -0.07 0.11 -0.14 0.03 -0.03 0.09 -0.11 0.1 -0.14 0.01 -0.01 0.1 -0.14 0.08 -0.1 0.03 -0.04 0.12 -0.14 0.04 -0.07 0.06 -0.08 0.11 -0.14 0.02 -0.03 0.09 -0.11 0.1 -0.13 0.01 -0.03 0.1 -0.13 0.08 -0.1 0.04 -0.04 0.1 -0.15 0.05 -0.06 0.08 -0.09 0.1 -0.14 0.01 -0.03 0.08 -0.12 0.1 -0.12 0.02 -0.01 0.11 -0.14 0.07 -0.1 0.04 -0.06 0.21 -0.28 0.11 -0.15 0.01 -0.01 0.1 -0.13 0.1 -0.12 0.01 -0.01 0.12 -0.14 0.06 -0.09 0.04 -0.06 0.12 -0.15 0.03 -0.05 0.07 -0.1 0.1 -0.14 0.02 -0.02 0.1 -0.13 0.08 -0.12 0.03 -0.03 0.11 -0.15 0.06 -0.07 0.05 -0.06 0.1 -0.14 0.03 -0.04 0.07 -0.11 0.1 -0.14 0.01 0 0.1 -0.14 0.09 -0.12 0.03 -0.03 0.1 -0.14 0.06 -0.07 0.05 -0.07 0.11 -0.15 0.03 -0.03 0.08 -0.1 0.11 -0.14 0.09 -0.12 0.02 -0.03 0.1 -0.16 0.07 -0.07 0.32 -0.43 0.06 -0.08 0.04 -0.06 0.06 -0.08 0.06 -0.05 0.06 -0.09 0.03 -0.05 0.06 -0.1 0.05 -0.06 0.1 -0.14 0.09 -0.1 0.03 -0.03 0.1 -0.14 0.08 -0.11 0.03 -0.03 0.19 -0.27 0.02 -0.02 0.09 -0.12 0.01 -0.01 0.1 -0.14 0.1 -0.14 0.01 -0.01 0.09 -0.14 0.02 -0.01 0.2 -0.27 0.01 -0.01 0.09 -0.12 0.11 -0.14 0.02 -0.03 0.12 -0.15 0.06 -0.08 0.04 -0.05 0.06 -0.09 0.04 -0.05 0.07 -0.09 0.05 -0.06 0.05 -0.08 0.05 -0.06 0.06 -0.07 0.06 -0.08 0.05 -0.07 0.05 -0.08 0.05 -0.05 0.1 -0.13 0.06 -0.1 0.05 -0.06 0.07 -0.1 0.03 -0.03 0.07 -0.1 0.03 -0.05 0.08 -0.1 0.01 -0.03 0.1 -0.12 0.02 -0.03 0.1 -0.12 0 -0.02 0.09 -0.13 0.01 -0.01 0.1 -0.13 0.01 -0.02 0.1 -0.12 0.01 -0.01 0.1 -0.14 0.11 -0.14 -0.01 -0.01 0.11 -0.12 0.01 -0.03 0.08 -0.11 0.01 -0.03 0.1 -0.11 0.02 -0.03 0.08 -0.12 0.01 -0.03 0.09 -0.11 0.03 -0.04 0.07 -0.1 0.03 -0.05 0.09 -0.08 0.03 -0.06 0.07 -0.09 0.03 -0.06 0.06 -0.08 0.05 -0.06 0.06 -0.08 0.05 -0.07 0.06 -0.08 0.06 -0.07 0.03 -0.06 0.07 -0.08 0.05 -0.06 0.06 -0.08 0.05 -0.05 0.06 -0.1 0.03 -0.05 0.08 -0.1 0.03 -0.03 0.08 -0.1 0.03 -0.04 0.07 -0.11 0.02 -0.03 0.09 -0.11 0.02 -0.02 0.08 -0.12 0.01 -0.02 0.1 -0.12 0.01 -0.01 0.1 -0.13 0 -0.01 0.1 -0.14 0.11 -0.15 0.05 -0.06 0.06 -0.09 0.11 -0.13 0.01 -0.03 0.08 -0.12 0.11 -0.14 0 -0.01 0.11 -0.14 0.06 -0.08 0.06 -0.06 0.09 -0.16 0.04 -0.01 0.07 -0.12 0.1 -0.14 0.02 -0.01 0.16 -0.23 0.04 -0.06 0.11 -0.14 0.04 -0.05 0.07 -0.1 0.1 -0.15 0.01 0 0.1 -0.14 0.08 -0.12 0.03 -0.04 0.12 -0.14 0.03 -0.06 0.08 -0.09 0.1 -0.14 0.02 -0.01 0.1 -0.13 0.08 -0.12 0.02 -0.01 0.11 -0.16 0.05 -0.08 0.06 -0.06 0.1 -0.15 0.02 -0.03 0.08 -0.1 0.11 -0.14 0.01 -0.01 0.11 -0.14 0.07 -0.1 0.05 -0.06 0.1 -0.14 0.03 -0.05 0.07 -0.1 0.1 -0.15 0.12 -0.14 0.08 -0.1 0.03 -0.04 0.12 -0.14 0.04 -0.05 0.06 -0.1 0.11 -0.14 0.01 -0.02 0.1 -0.12 0.08 -0.13 0.03 -0.01 0.1 -0.16 0.06 -0.06 0.06 -0.07 0.1 -0.15 0.01 -0.03 0.08 -0.12 0.1 -0.13 0.02 -0.02 0.1 -0.14 0.06 -0.1 0.04 -0.06 0.12 -0.14 0.03 -0.04 0.08 -0.1 0.11 -0.15 0.11 -0.15 0.1 -0.14 0.12 -0.14 0.1 -0.14 0.1 -0.15 0.1 -0.14 0.12 -0.14 0.1 -0.15 0.12 -0.14 0.1 -0.15 0.1 -0.15 0.11 -0.14 0.12 -0.14 0.1 -0.15 0.11 -0.15 0.01 -0.02 0.1 -0.12 0.04 -0.07 0.06 -0.09 0.22 -0.28 0 -0.01 0.1 -0.14 0.03 -0.05 0.08 -0.1 0.06 -0.09 0.03 -0.06 0.11 -0.12 0 -0.01 0.22 -0.3 0.05 -0.07 0.05 -0.08 0.08 -0.12 0.02 -0.03 0.11 -0.14 0.01 -0.02 0.1 -0.13 0.06 -0.06 0.06 -0.09 0.07 -0.1 0.03 -0.05 0.1 -0.14 0.03 -0.02 0.8 -1.1 0.03 -0.04 0.11 -0.15 0.1 -0.14 0.17 -0.23 0.04 -0.05 0.1 -0.14 0.01 -0.01 0.11 -0.14 0.01 -0.04 0.14 -0.18 0.06 -0.08 0.36 -0.49 0.06 -0.09 0.08 -0.1 0.03 -0.04 0.1 -0.14 0.01 0 0.1 -0.14 0.03 -0.06 0.07 -0.1 0.21 -0.27 0.01 -0.02 0.12 -0.14 0.01 -0.02 0.2 -0.27 0.08 -0.11 0.02 -0.03 0.32 -0.44 0.08 -0.1 0.03 -0.05 0.1 -0.14 0.01 0 0.11 -0.15 0.03 -0.03 0.08 -0.12 0.05 -0.07 0.06 -0.07 0.08 -0.13 0.01 -0.01 0.11 -0.15 0.01 -0.02 0.1 -0.12 0.04 -0.06 0.06 -0.09 0.08 -0.11 0.03 -0.03 0.1 -0.15 0.1 -0.14 0.03 -0.05 0.08 -0.1 0.06 -0.09 0.04 -0.06 0.23 -0.32 0.17 -0.24 0.17 -0.23 0.17 -0.25 0.18 -0.23 4.52 -6.22 1.35 -1.89 0.07 -0.08 0.04 -0.06 0.07 -0.12 0.03 -0.03 0.09 -0.13 0.02 -0.01 0.1 -0.14 0.01 -0.01 0.1 -0.15 0.01 0 0.12 -0.15 0.01 -0.02 0.08 -0.12 0.04 -0.05 0.07 -0.1 0.04 -0.07 0.05 -0.08 0.06 -0.08 0.05 -0.06 0.07 -0.1 0.03 -0.05 0.09 -0.12 0.01 -0.02 0.1 -0.14 0.01 -0.02 0.11 -0.14 0.01 -0.01 0.09 -0.14 0.02 -0.03 0.09 -0.12 0.03 -0.05 0.08 -0.11 0.04 -0.04 0.06 -0.1 0.05 -0.07 0.06 -0.08 0.06 -0.09 0.03 -0.05 0.07 -0.12 0.03 -0.04 0.08 -0.12 0.02 -0.02 0.1 -0.14 0.11 -0.15 0.01 -0.02 0.09 -0.12 0.03 -0.03 0.08 -0.11 0.03 -0.06 0.07 -0.08 0.06 -0.08 0.04 -0.08 0.05 -0.09 0.06 -0.06 0.08 -0.11 0.03 -0.05 0.09 -0.12 0.01 -0.03 0.33 -0.44 0.01 -0.03 0.09 -0.11 0.02 -0.05 0.08 -0.1 0.04 -0.06 0.06 -0.08 0.06 -0.08 0.04 -0.05 0.08 -0.11 0.03 -0.05 0.08 -0.12 0.02 -0.03 0.1 -0.14 0.01 -0.01 0.1 -0.14 0.12 -0.15 0.01 -0.01 0.1 -0.12 0.03 -0.04 0.08 -0.11 0.04 -0.05 0.07 -0.1 0.05 -0.08 0.05 -0.07 0.07 -0.08 0.04 -0.06 0.07 -0.11 0.03 -0.03 0.08 -0.13 0.01 -0.02 0.1 -0.14 0.01 0 0.1 -0.15 0.02 -0.02 0.1 -0.13 0.01 -0.03 0.09 -0.11 0.03 -0.05 0.07 -0.1 0.05 -0.07 0.06 -0.09 0.06 -0.08 0.04 -0.08 0.06 -0.08 0.05 -0.06 0.08 -0.12 0.02 -0.03 0.1 -0.15 0.1 -0.15 0.1 -0.14 0.1 -0.15 0.11 -0.13 0.02 -0.04 0.08 -0.12 0.03 -0.05 0.08 -0.1 0.1 -0.14 0.04 -0.07 0.06 -0.08 0.06 -0.08 0.04 -0.07 0.08 -0.1 0.03 -0.06 0.07 -0.11 0.03 -0.03 0.08 -0.11 0.03 -0.03 0.1 -0.14 0 -0.01 0.11 -0.14 0 -0.01 0.11 -0.15 0 -0.01 0.11 -0.14 0.01 -0.01 0.09 -0.14 0.01 -0.03 0.09 -0.12 0.03 -0.03 0.08 -0.1 0.02 -0.06 0.08 -0.1 0.04 -0.06 0.05 -0.09 0.06 -0.07 0.04 -0.08 0.07 -0.09 0.05 -0.05 0.07 -0.1 0.03 -0.06 0.07 -0.11 0.03 -0.03 0.08 -0.13 0.02 -0.02 0.1 -0.14 0.01 -0.01 0.11 -0.14 0.1 -0.16 0.02 -0.01 0.09 -0.14 0.01 -0.02 0.09 -0.13 0.01 -0.03 0.09 -0.1 0.03 -0.05 0.07 -0.1 0.04 -0.06 0.08 -0.09 0.05 -0.07 0.05 -0.08 0.05 -0.08 0.04 -0.06 0.08 -0.1 0.03 -0.03 0.08 -0.12 0.03 -0.04 0.08 -0.12 0.01 -0.03 0.1 -0.12 0.01 -0.01 0.1 -0.15 0.01 0 0.1 -0.15 0.01 -0.01 0.1 -0.14 0.02 -0.02 0.08 -0.13 0.03 -0.03 0.09 -0.11 0.03 -0.06 0.07 -0.1 0.04 -0.05 0.06 -0.08 0.05 -0.07 0.07 -0.08 0.04 -0.08 0.05 -0.08 0.07 -0.09 0.03 -0.06 0.07 -0.1 0.03 -0.05 0.08 -0.11 0.02 -0.03 0.1 -0.13 0.01 -0.02 0.1 -0.13 0.01 0 0.11 -0.16 0 -0.01 0.1 -0.14 0.01 -0.01 0.1 -0.13 0.02 -0.03 0.07 -0.12 0.03 -0.04 0.08 -0.1 0.04 -0.06 0.06 -0.09 0.04 -0.07 0.06 -0.08 0.06 -0.08 0.06 -0.07 0.06 -0.09 0.03 -0.05 0.07 -0.12 0.03 -0.04 0.08 -0.11 0.02 -0.04 0.09 -0.12 0.01 -0.03 0.1 -0.13 0 -0.01 0.11 -0.14 0.1 -0.15 0.02 -0.01 0.1 -0.14 0.05 -0.08 0.14 -0.21 0.02 -0.01 0.09 -0.14 0.07 -0.08 0.04 -0.07 0.21 -0.29 0.06 -0.08 0.06 -0.07 0.1 -0.14 0.01 -0.01 0.09 -0.14 0.06 -0.08 0.05 -0.06 0.11 -0.15 -0.01 0 0.1 -0.15 0.06 -0.08 0.05 -0.08 0.1 -0.14 0.01 0 0.1 -0.15 0.05 -0.08 0.05 -0.06 0.1 -0.16 0.12 -0.14 0.04 -0.08 0.06 -0.06 0.1 -0.16 0.12 -0.14 0.04 -0.07 0.05 -0.08 0.11 -0.14 -0.01 -0.01 0.11 -0.15 0.05 -0.07 0.06 -0.08 0.1 -0.15 0.1 -0.15 0.1 -0.14 0.11 -0.16 0.11 -0.14 0.1 -0.15 0.1 -0.14 0.12 -0.16 0.1 -0.15 0.1 -0.14 0.12 -0.14 0.1 -0.15 0.1 -0.15 0.83 -1.19 0.1 -0.14 0.3 -0.45 0.11 -0.16 0.21 -0.29 0.1 -0.14 0.09 -0.16 0.12 -0.13 0.11 -0.16 0.1 -0.14 0.11 -0.15 0.1 -0.15 0.11 -0.14 0.1 -0.14 0.12 -0.15 0.02 -0.05 0.08 -0.11 0.07 -0.11 0.03 -0.03 0.11 -0.15 0.02 -0.02 0.09 -0.12 0.06 -0.1 0.04 -0.06 0.1 -0.15 0.01 -0.01 0.11 -0.14 0.04 -0.08 0.05 -0.06 0.1 -0.14 0.01 -0.01 0.1 -0.15 0.03 -0.06 0.06 -0.09 0.08 -0.12 0.03 -0.03 0.11 -0.15 0.02 -0.03 0.08 -0.11 0.06 -0.1 0.04 -0.05 0.1 -0.14 0.01 -0.02 0.1 -0.13 0.05 -0.1 0.06 -0.05 0.09 -0.14 0.01 -0.01 0.1 -0.15 0.03 -0.05 0.06 -0.09 0.1 -0.12 0.01 -0.03 0.11 -0.14 0.01 -0.05 0.08 -0.1 0.08 -0.1 0.03 -0.06 0.1 -0.14 0.01 -0.03 0.1 -0.12 0.07 -0.09 0.03 -0.06 0.1 -0.14 0.01 -0.01 0.09 -0.14 0.06 -0.07 0.05 -0.08 0.1 -0.13 0.01 -0.03 0.1 -0.14 0.04 -0.05 0.05 -0.1 0.09 -0.12 0.02 -0.03 0.11 -0.14 0.02 -0.03 0.08 -0.12 0.06 -0.1 0.03 -0.06 0.11 -0.15 0.01 0 0.09 -0.14 0.05 -0.08 0.05 -0.08 0.1 -0.14 0 -0.01 0.11 -0.14 0.04 -0.08 0.07 -0.08 0.08 -0.14 0.01 -0.01 0.1 -0.14 0.03 -0.05 0.08 -0.11 0.07 -0.1 0.03 -0.05 0.1 -0.14 0.01 -0.03 0.08 -0.12 0.21 -0.3 0 -0.01 0.1 -0.14 0.06 -0.06 0.05 -0.08 0.1 -0.15 0.1 -0.14 0.11 -0.15 0.1 -0.15 0.1 -0.14 0.1 -0.16 0.1 -0.15 0.1 -0.15 0.1 -0.14 0.1 -0.12 0.02 -0.02 0.1 -0.14 0.01 -0.01 0.1 -0.14 0.02 -0.01 0.08 -0.13 0.03 -0.04 0.08 -0.12 0.03 -0.05 0.06 -0.1 0.06 -0.08 0.03 -0.07 0.08 -0.1 0.02 -0.04 0.1 -0.13 0.01 -0.02 0.11 -0.14 0.1 -0.15 0 -0.03 0.1 -0.12 0.03 -0.05 0.07 -0.11 0.04 -0.06 0.06 -0.08 0.06 -0.09 0.02 -0.05 0.08 -0.12 0.03 -0.04 0.1 -0.14 0.02 0 0.1 -0.16 0.01 0 0.09 -0.14 0.03 -0.03 0.08 -0.12 0.03 -0.06 0.08 -0.1 0.04 -0.07 0.05 -0.07 0.07 -0.1 0.03 -0.05 0.08 -0.12 0.02 -0.03 0.1 -0.14 0.01 0 0.1 -0.15 0.01 -0.01 0.09 -0.14 0.03 -0.03 0.08 -0.12 0.03 -0.05 0.06 -0.1 0.06 -0.08 0.04 -0.08 0.07 -0.1 0.03 -0.05 0.08 -0.12 0.01 -0.02 0.1 -0.14 0.1 -0.15 0.01 -0.03 0.1 -0.12 0.03 -0.04 0.07 -0.12 0.04 -0.05 0.06 -0.08 0.06 -0.1 0.05 -0.06 0.18 -0.27 0.01 -0.03 0.11 -0.14 -0.01 -0.01 0.1 -0.14 0.02 -0.03 0.08 -0.12 0.04 -0.06 0.07 -0.09 0.05 -0.1 0.16 -0.21 0.07 -0.1 0.02 -0.05 0.08 -0.13 0.02 -0.01 0.1 -0.15 0.12 -0.18 0.08 -0.12 0.04 -0.06 0.06 -0.09 0.07 -0.08 0.04 -0.08 0.05 -0.08 0.04 -0.05 0.09 -0.13 0.01 -0.02 0.09 -0.14 0.02 -0.01 0.1 -0.14 0 -0.01 0.1 -0.14 0.1 -0.15 0.05 -0.06 0.05 -0.09 0.07 -0.08 0.05 -0.06 0.06 -0.11 0.03 -0.04 0.09 -0.13 0.01 -0.02 0.1 -0.15 0.12 -0.14 0.01 -0.03 0.08 -0.12 0.1 -0.15 0.1 -0.15 0 0 0.11 -0.15 0.03 -0.05 0.06 -0.09 0.3 -0.45 0.06 -0.07 0.05 -0.08 0.1 -0.12 0.01 -0.03 0.12 -0.19 0.08 -0.11 0.21 -0.29 0 -0.01 0.07 -0.11 0.03 -0.02 0.05 -0.09 0.05 -0.06 0.03 -0.05 0.07 -0.1 0.01 -0.02 0.07 -0.11 0.01 -0.01 0.07 -0.1 0.03 -0.05 0.04 -0.06 0.05 -0.09 0.03 -0.02 0.07 -0.12 0.01 -0.01 0.08 -0.1 0.03 -0.05 0.04 -0.07 0.05 -0.08 0.03 -0.03 0.07 -0.12 0.08 -0.12 0.03 -0.03 0.05 -0.08 0.06 -0.08 0.02 -0.03 0.08 -0.11 0.01 -0.01 0.07 -0.12 0.02 -0.02 0.06 -0.09 0.04 -0.06 0.03 -0.06 0.06 -0.1 0.01 -0.03 0.08 -0.11 0.01 -0.02 0.06 -0.09 0.03 -0.06 0.05 -0.06 0.05 -0.09 0.01 -0.03 0.07 -0.12 0.01 -0.01 0.07 -0.1 0.03 -0.05 0.05 -0.07 0.05 -0.09 0.02 -0.02 0.08 -0.12 0.08 -0.11 0.03 -0.03 0.05 -0.08 0.03 -0.08 0.04 -0.05 0.07 -0.1 0.01 -0.01 0.08 -0.11 0.02 -0.03 0.05 -0.08 0.05 -0.07 0.04 -0.05 0.07 -0.1 0.01 -0.02 0.08 -0.12 0.01 -0.01 0.06 -0.1 0.04 -0.06 0.04 -0.06 0.06 -0.09 0.01 -0.03 0.09 -0.11 -0.01 -0.01 0.08 -0.1 0.03 -0.05 0.05 -0.06 0.05 -0.08 0.03 -0.03 0.08 -0.12 0.08 -0.12 0.02 -0.04 0.06 -0.08 0.04 -0.07 0.03 -0.05 0.07 -0.1 0.01 -0.01 0.08 -0.12 0.01 -0.02 0.06 -0.08 0.05 -0.08 0.03 -0.03 0.06 -0.1 0.01 -0.01 0.09 -0.12 0.01 -0.03 0.06 -0.08 0.03 -0.05 0.05 -0.06 0.05 -0.09 0.02 -0.03 0.07 -0.12 0.01 0 0.07 -0.11 0.03 -0.04 0.05 -0.07 0.05 -0.08 0.03 -0.03 0.07 -0.12 0.05 -0.07 0.05 -0.08 0.09 -0.12 0.01 -0.02 0.11 -0.16 0.02 -0.02 0.08 -0.13 0.06 -0.07 0.05 -0.08 0.08 -0.12 0.02 -0.03 0.1 -0.14 0.01 -0.03 0.08 -0.12 0.04 -0.08 0.06 -0.07 0.08 -0.13 0.01 -0.02 0.12 -0.15 0.01 -0.03 0.08 -0.14 0.06 -0.06 0.06 -0.07 0.09 -0.13 0.01 -0.01 0.1 -0.15 0.02 -0.03 0.09 -0.12 0.04 -0.08 0.05 -0.07 0.08 -0.12 0.02 -0.03 0.1 -0.14 0.02 -0.03 0.08 -0.12 0.05 -0.07 0.06 -0.08 0.08 -0.12 0.01 -0.03 0.1 -0.15 0.03 -0.03 0.07 -0.12 0.06 -0.08 0.04 -0.07 0.09 -0.12 0.03 -0.02 0.09 -0.14 0.01 -0.03 0.08 -0.12 0.06 -0.09 0.04 -0.06 0.09 -0.14 0.01 -0.01 0.11 -0.16 0.02 -0.03 0.08 -0.12 0.05 -0.09 0.04 -0.07 0.09 -0.12 0.01 -0.03 0.1 -0.15 0.03 -0.03 0.07 -0.12 0.05 -0.09 0.06 -0.06 0.09 -0.16 0.11 -0.14 0.11 -0.14 0.08 -0.14 0.1 -0.16 0.1 -0.14 0.1 -0.16 0.09 -0.14 0.11 -0.16 0.09 -0.14 0.1 -0.14 0.1 -0.15 0.1 -0.16 0.1 -0.15 0.11 -0.16 0.1 -0.14 0.1 -0.15 0.1 -0.15 0.1 -0.15 0.1 -0.15 0.1 -0.15 0.1 -0.15 0.1 -0.15 0.12 -0.14 0.08 -0.14 0.12 -0.14 0.1 -0.16 0.1 -0.15 0.1 -0.15 0.03 -0.06 0.06 -0.1 0.07 -0.1 0.03 -0.05 0.1 -0.14 0.01 -0.01 0.1 -0.14 0.03 -0.04 0.07 -0.12 0.06 -0.08 0.04 -0.06 0.08 -0.12 0.03 -0.04 0.09 -0.14 0.02 -0.01 0.09 -0.14 0.03 -0.05 0.06 -0.1 0.06 -0.1 0.03 -0.04 0.09 -0.16 0.01 0 0.1 -0.15 0.02 -0.04 0.08 -0.12 0.06 -0.07 0.04 -0.08 0.08 -0.12 0.01 -0.03 0.1 -0.15 0.03 -0.01 0.07 -0.14 0.04 -0.06 0.05 -0.09 0.08 -0.1 0.03 -0.05 0.1 -0.16 0.49 -0.73 0.02 -0.03 0.25 -0.39 0.03 -0.03 0.1 -0.15 0.01 -0.01 0.09 -0.14 0.04 -0.05 0.05 -0.1 0.07 -0.1 0.33 -0.51 0.06 -0.08 0.04 -0.07 0.09 -0.12 0.01 -0.03 0.1 -0.15 0.03 -0.01 0.07 -0.14 0.05 -0.06 0.26 -0.39 0.1 -0.14 0.03 -0.05 0.37 -0.57 0.01 -0.01 0.38 -0.58 0.1 -0.15 0.05 -0.05 0.06 -0.09 0.19 -0.3 0.09 -0.15 0.12 -0.15 0.09 -0.15 0.1 -0.15 0.09 -0.15 0.1 -0.15 0.05 -0.07 0.06 -0.09 0.06 -0.08 0.05 -0.07 0.06 -0.1 0.03 -0.05 0.19 -0.3 0.01 -0.01 0.21 -0.3 0.02 -0.03 0.08 -0.12 0.1 -0.14 0.05 -0.08 0.05 -0.08 0.06 -0.1 0.04 -0.05 0.08 -0.12 0.01 -0.03 0.1 -0.13 0 -0.02 0.1 -0.15 0.01 -0.01 0.08 -0.14 0.03 -0.03 0.08 -0.12 0.03 -0.05 0.07 -0.1 0.06 -0.06 0.04 -0.09 0.07 -0.08 0.04 -0.08 0.07 -0.1 0.02 -0.05 0.08 -0.13 0.12 -0.17 0.1 -0.14 0.01 -0.03 0.09 -0.12 0.03 -0.05 0.07 -0.1 0.03 -0.08 0.06 -0.08 0.06 -0.09 0.05 -0.07 0.07 -0.09 0.03 -0.06 0.08 -0.12 0.03 -0.02 0.09 -0.15 0.01 0 0.1 -0.15 0.01 -0.01 0.09 -0.14 0.01 -0.03 0.08 -0.12 0.03 -0.05 0.06 -0.1 0.05 -0.08 0.05 -0.07 0.06 -0.1 0.04 -0.06 0.06 -0.11 0.03 -0.04 0.09 -0.14 0 -0.02 0.1 -0.14 0.01 -0.01 0.1 -0.14 0.03 -0.03 0.07 -0.12 0.03 -0.05 0.07 -0.1 0.04 -0.06 0.05 -0.09 0.06 -0.1 0.04 -0.05 0.08 -0.1 0.03 -0.06 0.07 -0.13 0.03 -0.02 0.09 -0.14 0.01 -0.01 0.1 -0.14 0.01 -0.02 0.08 -0.13 0.02 -0.04 0.08 -0.11 0.03 -0.06 0.06 -0.1 0.06 -0.07 0.05 -0.09 0.07 -0.09 0.03 -0.05 0.08 -0.12 0.03 -0.04 0.09 -0.14 0 -0.01 0.1 -0.14 0.01 -0.01 0.09 -0.14 0.02 -0.03 0.08 -0.12 0.03 -0.06 0.06 -0.1 0.04 -0.07 0.06 -0.08 0.06 -0.1 0.03 -0.06 0.07 -0.11 0.03 -0.04 0.09 -0.13 0.01 -0.01 0.1 -0.16 0.1 -0.15 0.01 -0.03 0.09 -0.13 0.03 -0.06 0.06 -0.1 0.06 -0.1 0.03 -0.05 0.09 -0.13 0.01 -0.02 0.1 -0.15 0.01 -0.02 0.08 -0.13 0.04 -0.06 0.06 -0.09 0.01 -0.05 0.08 -0.1 0.01 -0.01 0.08 -0.14 0 -0.01 0.09 -0.13 0.01 -0.01 0.07 -0.12 0.03 -0.04 0.06 -0.1 0.03 -0.06 0.05 -0.08 0.06 -0.08 0.04 -0.06 0.05 -0.09 0.03 -0.05 0.06 -0.1 0.03 -0.03 0.08 -0.12 0.01 -0.01 0.08 -0.14 0.01 0 0.09 -0.13 0.01 -0.03 0.08 -0.1 0.01 -0.04 0.06 -0.08 0.04 -0.07 0.05 -0.08 0.05 -0.08 0.04 -0.06 0.06 -0.1 0.03 -0.05 0.07 -0.1 0.1 -0.15 0.01 -0.01 0.08 -0.13 0.01 -0.01 0.1 -0.14 0.07 -0.12 0.03 -0.03 0.05 -0.1 0.05 -0.07 0.04 -0.06 0.05 -0.09 0.03 -0.06 0.07 -0.1 0.02 -0.03 0.07 -0.12 0.01 -0.03 0.09 -0.12 -0.01 -0.01 0.09 -0.13 0.01 -0.01 0.08 -0.13 0.03 -0.03 0.05 -0.11 0.04 -0.04 0.05 -0.09 0.04 -0.07 0.03 -0.07 0.06 -0.08 0.03 -0.05 0.07 -0.1 0.03 -0.03 0.06 -0.12 0.01 -0.01 0.09 -0.13 0.01 -0.01 0.09 -0.13 0.01 -0.02 0.08 -0.11 0.01 -0.04 0.08 -0.1 0.03 -0.05 0.1 -0.15 0.03 -0.06 0.06 -0.1 0.02 -0.04 0.08 -0.11 0.02 -0.03 0.07 -0.12 0.01 -0.01 0.1 -0.13 -0.01 -0.01 0.09 -0.12 0.03 -0.03 0.06 -0.11 0.03 -0.05 0.06 -0.08 0.03 -0.08 0.1 -0.15 0.03 -0.05 0.06 -0.1 0.03 -0.04 0.07 -0.11 0.03 -0.02 0.08 -0.13 -0.01 -0.01 0.1 -0.13 0.01 -0.02 0.08 -0.12 0.02 -0.04 0.06 -0.1 0.03 -0.05 0.07 -0.08 0.03 -0.07 0.05 -0.07 0.05 -0.08 0.03 -0.05 0.07 -0.1 0.02 -0.02 0.08 -0.13 0.01 -0.02 0.07 -0.13 0.05 -0.07 0.05 -0.08 0.06 -0.1 0.04 -0.06 0.08 -0.12 0.03 -0.03 0.1 -0.16 0.09 -0.16 0.02 -0.03 0.07 -0.1 0.04 -0.07 0.05 -0.09 0.06 -0.1 0.03 -0.05 0.09 -0.14 0.01 -0.02 0.1 -0.15 0.01 -0.01 0.09 -0.14 0.03 -0.05 0.07 -0.1 0.05 -0.07 0.05 -0.09 0.07 -0.1 0.03 -0.06 0.1 -0.14 -0.01 -0.01 0.1 -0.15 0.02 -0.03 0.08 -0.12 0.03 -0.06 0.08 -0.09 0.05 -0.1 0.05 -0.06 0.07 -0.12 0.02 -0.03 0.11 -0.15 0.06 -0.11 0.03 -0.04 0.03 -0.05 0.06 -0.11 0.08 -0.1 0.02 -0.05 0.03 -0.06 0.06 -0.1 0.01 -0.01 0.07 -0.1 0.02 -0.05 0.04 -0.05 0.06 -0.1 0.07 -0.1 0.03 -0.05 0.04 -0.06 0.06 -0.1 0.01 -0.01 0.06 -0.1 0.03 -0.04 0.04 -0.07 0.05 -0.08 0 -0.01 0.07 -0.1 0.03 -0.05 0.04 -0.06 0.05 -0.09 0.02 -0.01 0.06 -0.1 0.03 -0.04 0.03 -0.07 0.07 -0.09 0 -0.01 0.06 -0.1 0.02 -0.03 0.04 -0.07 0.06 -0.08 0.01 -0.03 0.07 -0.1 0.02 -0.03 0.04 -0.08 0.06 -0.08 0.01 -0.03 0.07 -0.1 0.01 -0.03 0.05 -0.08 0.04 -0.08 0.02 -0.03 0.06 -0.09 0.02 -0.03 0.04 -0.09 0.06 -0.08 0.01 -0.01 0.07 -0.11 0.01 -0.03 0.06 -0.08 0.04 -0.07 0.01 -0.03 0.06 -0.1 0.02 -0.03 0.04 -0.06 0.05 -0.08 0.03 -0.03 0.05 -0.1 0.01 -0.03 0.06 -0.08 0.04 -0.06 0.02 -0.03 0.07 -0.1 0.01 -0.02 0.05 -0.08 0.05 -0.07 0.01 -0.03 0.07 -0.1 0.01 -0.01 0.06 -0.08 0.04 -0.07 0.03 -0.03 0.06 -0.1 0.01 -0.02 0.06 -0.09 0.04 -0.06 0.03 -0.04 0.06 -0.11 0.01 0 0.06 -0.1 0.04 -0.06 0.03 -0.04 0.06 -0.1 0 0 0.06 -0.1 0.03 -0.06 0.03 -0.05 0.06 -0.1 0.01 -0.01 0.06 -0.09 0.03 -0.06 0.03 -0.05 0.07 -0.1 0.06 -0.1 0.03 -0.05 0.03 -0.06 0.07 -0.1 0.06 -0.1 0.03 -0.06 0.07 -0.11 0.03 -0.04 0.09 -0.14 0.01 -0.02 0.1 -0.15 0.01 -0.01 0.1 -0.14 0.01 -0.04 0.08 -0.12 0.03 -0.05 0.06 -0.1 0.05 -0.08 0.03 -0.08 0.07 -0.11 0.03 -0.03 0.19 -0.3 0.01 -0.02 0.08 -0.13 0.02 -0.05 0.08 -0.12 0.04 -0.07 0.05 -0.08 0.06 -0.1 0.04 -0.07 0.08 -0.11 0.02 -0.04 0.09 -0.15 0.1 -0.15 0.03 -0.03 0.08 -0.12 0.03 -0.06 0.06 -0.09 0.06 -0.08 0.04 -0.07 0.06 -0.11 0.03 -0.05 0.09 -0.13 0 -0.02 0.1 -0.15 0.01 -0.01 0.1 -0.14 0.01 -0.04 0.07 -0.12 0.04 -0.06 0.05 -0.09 0.07 -0.1 0.02 -0.06 0.08 -0.12 0.03 -0.04 0.08 -0.14 0 -0.01 0.09 -0.15 0.03 -0.01 0.07 -0.14 0.03 -0.05 0.07 -0.1 0.09 -0.15 0.1 -0.16 0.1 -0.15 0.09 -0.16 0.1 -0.15 0.1 -0.15 0.08 -0.16 0.1 -0.14 0.1 -0.16 0.09 -0.16 0.1 -0.15 0.08 -0.15 0.1 -0.16 0.09 -0.15 0.1 -0.15 0.1 -0.15 0.08 -0.16 0.19 -0.3 0.09 -0.16 0.1 -0.15 0.1 -0.15 0.1 -0.15 0.1 -0.16 0.1 -0.15 0.09 -0.16 0.09 -0.14 0.1 -0.15 0.1 -0.16 0.09 -0.15 0.1 -0.16 0.03 -0.03 0.06 -0.12 0.04 -0.07 0.05 -0.08 0.06 -0.08 0.05 -0.08 0.06 -0.11 0.03 -0.04 0.08 -0.12 0.01 -0.03 0.09 -0.15 0.1 -0.15 0.03 -0.02 0.06 -0.14 0.03 -0.04 0.08 -0.11 0.03 -0.07 0.06 -0.08 0.06 -0.09 0.04 -0.07 0.07 -0.11 0.02 -0.04 0.08 -0.14 0.02 -0.02 0.08 -0.14 0.01 -0.01 0.09 -0.15 0.01 -0.03 0.09 -0.13 0.03 -0.05 0.07 -0.1 0.03 -0.08 0.06 -0.08 0.06 -0.09 0.03 -0.06 0.06 -0.12 0.03 -0.04 0.08 -0.12 0.01 -0.03 0.1 -0.15 0 -0.01 0.09 -0.14 0.02 -0.02 0.08 -0.13 0.03 -0.06 0.06 -0.1 0.05 -0.07 0.06 -0.08 0.05 -0.09 0.05 -0.06 0.06 -0.12 0.03 -0.04 0.08 -0.14 0.01 -0.02 0.1 -0.16 0.01 0.01 0.09 -0.16 0.01 -0.02 0.08 -0.12 0.03 -0.06 0.06 -0.1 0.05 -0.08 0.04 -0.08 0.06 -0.09 0.04 -0.06 0.06 -0.12 0.03 -0.05 0.08 -0.12 0.01 -0.03 0.1 -0.14 -0.01 -0.01 0.19 -0.29 0.03 -0.04 0.05 -0.12 0.04 -0.07 0.05 -0.08 0.1 -0.14 0.09 -0.16 0.09 -0.16 0.1 -0.15 0.09 -0.14 0.1 -0.16 0.09 -0.15 0.1 -0.16 0.09 -0.15 0.1 -0.16 0.09 -0.15 0.1 -0.16 0.09 -0.13 0.09 -0.17 0.1 -0.15 0.08 -0.15 0.1 -0.16 0.1 -0.16 0.1 -0.15 0.09 -0.14 0.08 -0.16 0.1 -0.16 0.08 -0.12 0.01 -0.03 0.09 -0.15 0.01 0 0.08 -0.15 0.01 -0.03 0.08 -0.12 0.03 -0.03 0.08 -0.13 0.02 -0.03 0.08 -0.12 0.03 -0.07 0.05 -0.09 0.05 -0.08 0.04 -0.08 0.06 -0.1 0.03 -0.06 0.07 -0.11 0.02 -0.04 0.09 -0.12 0.01 -0.03 0.1 -0.15 0.01 -0.01 0.08 -0.15 0 -0.01 0.09 -0.15 0.02 -0.03 0.07 -0.12 0.03 -0.05 0.08 -0.1 0.03 -0.07 0.05 -0.08 0.05 -0.08 0.04 -0.08 0.06 -0.1 0.04 -0.05 0.06 -0.12 0.03 -0.04 0.08 -0.12 0.02 -0.03 0.08 -0.16 0.1 -0.14 0.01 -0.02 0.09 -0.14 0.01 -0.03 0.08 -0.12 0.03 -0.04 0.07 -0.11 0.04 -0.07 0.05 -0.09 0.05 -0.08 0.04 -0.07 0.06 -0.1 0.03 -0.06 0.07 -0.12 0.03 -0.03 0.08 -0.14 0.01 -0.02 0.09 -0.15 0.09 -0.16 0.01 -0.01 0.09 -0.15 0.01 -0.03 0.08 -0.12 0.03 -0.06 0.06 -0.1 0.04 -0.07 0.06 -0.09 0.04 -0.09 0.05 -0.07 0.16 -0.27 0.02 -0.03 0.09 -0.14 0.01 -0.02 0.09 -0.15 0.09 -0.15 0.01 -0.03 0.08 -0.14 0.02 -0.03 0.07 -0.13 0.03 -0.05 0.07 -0.1 0.05 -0.07 0.04 -0.06 0.06 -0.1 0.03 -0.07 0.06 -0.11 0.03 -0.04 0.1 -0.15 0.09 -0.16 0.1 -0.15 0.1 -0.16 0.1 -0.15 0.08 -0.15 0.1 -0.16 0.09 -0.15 0.1 -0.15 0.09 -0.16 0.09 -0.15 0.1 -0.16 0.1 -0.15 0.09 -0.16 0.1 -0.16 0.08 -0.14 0.09 -0.16 0.01 -0.01 0.08 -0.12 0.03 -0.06 0.07 -0.1 0.03 -0.07 0.05 -0.08 0.04 -0.09 0.04 -0.06 0.06 -0.11 0.02 -0.03 0.09 -0.13 0 -0.02 0.1 -0.14 0 -0.01 0.08 -0.13 0.01 -0.02 0.08 -0.12 0.03 -0.06 0.06 -0.09 0.03 -0.08 0.05 -0.07 0.05 -0.1 0.03 -0.05 0.08 -0.12 0.02 -0.01 0.08 -0.15 0.01 0 0.09 -0.15 0.01 -0.01 0.08 -0.14 0.01 -0.02 0.08 -0.12 0.03 -0.06 0.06 -0.1 0.05 -0.07 0.03 -0.07 0.07 -0.1 0.03 -0.05 0.08 -0.12 0.01 -0.03 0.09 -0.13 -0.01 -0.01 0.1 -0.14 0.01 -0.02 0.07 -0.12 0.03 -0.05 0.06 -0.1 0.03 -0.06 0.04 -0.08 0.06 -0.09 0.03 -0.06 0.06 -0.11 0.03 -0.04 0.08 -0.12 0.01 -0.02 0.08 -0.15 0.1 -0.15 0.01 -0.01 0.07 -0.12 0.03 -0.04 0.06 -0.11 0.04 -0.07 0.04 -0.06 0.06 -0.1 0.03 -0.06 0.07 -0.11 0.02 -0.03 0.07 -0.13 0.01 -0.01 0.08 -0.15 0.01 -0.01 0.09 -0.14 0 -0.03 0.08 -0.11 0.03 -0.05 0.06 -0.1 0.04 -0.06 0.03 -0.08 0.06 -0.1 0.03 -0.05 0.08 -0.11 0.01 -0.03 0.08 -0.14 0.09 -0.16 0.01 -0.01 0.09 -0.13 0.01 -0.03 0.07 -0.12 0.03 -0.06 0.05 -0.09 0.06 -0.08 0.04 -0.06 0.05 -0.1 0.03 -0.05 0.08 -0.12 0.02 -0.03 0.08 -0.15 0.09 -0.14 0.01 -0.03 0.08 -0.12 0.01 -0.05z"/>
  </g>
 </g>
</svg>
